<svg xmlns="http://www.w3.org/2000/svg" width="1414.932" height="64.389" viewBox="0 0 1414.932 64.389">
  <g id="Group_252" data-name="Group 252" transform="translate(3086.265 10019.389) rotate(180)">
    <path id="Subtraction_2" data-name="Subtraction 2" d="M25.169,50.547a25.253,25.253,0,0,1-5.072-.513,24.975,24.975,0,0,1-9-3.8A25.312,25.312,0,0,1,15.372,1.986,24.966,24.966,0,0,1,20.1.513,25.253,25.253,0,0,1,25.169,0Z" transform="translate(2587.412 9987.786) rotate(-60)" fill="#fff" opacity="0.101"/>
    <path id="Subtraction_40" data-name="Subtraction 40" d="M25.169,50.547a25.253,25.253,0,0,1-5.072-.513,24.975,24.975,0,0,1-9-3.8A25.312,25.312,0,0,1,15.372,1.986,24.966,24.966,0,0,1,20.1.513,25.253,25.253,0,0,1,25.169,0Z" transform="translate(1751.651 9987.786) rotate(-60)" fill="#fff" opacity="0.101"/>
    <path id="Subtraction_37" data-name="Subtraction 37" d="M32.036,64.339a32.155,32.155,0,0,1-6.461-.655,31.79,31.79,0,0,1-11.45-4.839A32.219,32.219,0,0,1,19.566,2.528,31.778,31.778,0,0,1,25.579.654,32.143,32.143,0,0,1,32.036,0Z" transform="translate(2844.196 9955)" fill="#fff" opacity="0.101"/>
    <path id="Subtraction_41" data-name="Subtraction 41" d="M32.036,64.339a32.155,32.155,0,0,1-6.461-.655,31.79,31.79,0,0,1-11.45-4.839A32.219,32.219,0,0,1,19.566,2.528,31.778,31.778,0,0,1,25.579.654,32.143,32.143,0,0,1,32.036,0Z" transform="translate(2352.196 9955)" fill="#fff" opacity="0.101"/>
    <path id="Subtraction_42" data-name="Subtraction 42" d="M32.036,0a32.155,32.155,0,0,0-6.461.655,31.79,31.79,0,0,0-11.45,4.839,32.219,32.219,0,0,0,5.442,56.317,31.778,31.778,0,0,0,6.013,1.874,32.143,32.143,0,0,0,6.456.654Z" transform="translate(1707.051 10019.339) rotate(180)" fill="#fff" opacity="0.101"/>
    <path id="Subtraction_39" data-name="Subtraction 39" d="M32.036,64.339a32.155,32.155,0,0,1-6.461-.655,31.79,31.79,0,0,1-11.45-4.839A32.219,32.219,0,0,1,19.566,2.528,31.778,31.778,0,0,1,25.579.654,32.143,32.143,0,0,1,32.036,0Z" transform="translate(2975.232 10019.339) rotate(180)" fill="#fff" opacity="0.101"/>
    <path id="Subtraction_52" data-name="Subtraction 52" d="M32.036,0a32.155,32.155,0,0,0-6.461.655,31.79,31.79,0,0,0-11.45,4.839,32.219,32.219,0,0,0,5.442,56.317,31.778,31.778,0,0,0,6.013,1.874,32.143,32.143,0,0,0,6.456.654Z" transform="translate(3053.987 9955.05)" fill="#fff" opacity="0.101"/>
    <path id="Subtraction_38" data-name="Subtraction 38" d="M32.036,64.338a32.156,32.156,0,0,1-6.461-.655,31.79,31.79,0,0,1-11.45-4.839A32.219,32.219,0,0,1,19.566,2.528,31.777,31.777,0,0,1,25.579.654,32.143,32.143,0,0,1,32.036,0Z" transform="translate(2758.732 9955)" fill="#b68042" opacity="0.101"/>
    <path id="Subtraction_9" data-name="Subtraction 9" d="M26.262,52.743a26.363,26.363,0,0,1-5.3-.537,26.06,26.06,0,0,1-9.386-3.967A26.412,26.412,0,0,1,16.04,2.072,26.05,26.05,0,0,1,20.969.536,26.35,26.35,0,0,1,26.262,0Z" transform="translate(1852.611 9960.798)" fill="#fff" opacity="0.101"/>
    <path id="Subtraction_10" data-name="Subtraction 10" d="M28.909,58.06a29.019,29.019,0,0,1-5.831-.591A28.687,28.687,0,0,1,12.746,53.1,29.074,29.074,0,0,1,17.657,2.28,28.676,28.676,0,0,1,23.083.59,29.006,29.006,0,0,1,28.909,0Z" transform="translate(1941.748 9955)" fill="#fff" opacity="0.101"/>
    <path id="Subtraction_8" data-name="Subtraction 8" d="M32.036,64.339a32.155,32.155,0,0,1-6.461-.655,31.79,31.79,0,0,1-11.45-4.839A32.219,32.219,0,0,1,19.566,2.528,31.777,31.777,0,0,1,25.579.654,32.142,32.142,0,0,1,32.036,0Z" transform="translate(2100.295 9955)" fill="#fff" opacity="0.101"/>
    <path id="Subtraction_7" data-name="Subtraction 7" d="M32.036,64.339a32.155,32.155,0,0,1-6.461-.655,31.79,31.79,0,0,1-11.45-4.839A32.219,32.219,0,0,1,19.566,2.528,31.777,31.777,0,0,1,25.579.654,32.142,32.142,0,0,1,32.036,0Z" transform="translate(2124.878 9955)" fill="#fff" opacity="0.101"/>
    <path id="Path_35" data-name="Path 35" d="M22.583.011a23.3,23.3,0,0,0-9.164,1.77C8.317,3.81,3.964,9.715,2.761,12S-.435,21.148.085,24.416,2.639,32.41,4.6,34.338a29.877,29.877,0,0,0,8.822,5.848c3.1,1.176,9.164,2.739,9.164,2.739" transform="translate(1694.217 10008.322) rotate(180)" fill="none" stroke="#b68042" stroke-width="1.5" opacity="0.698"/>
    <path id="Path_552" data-name="Path 552" d="M22.583,42.915a23.3,23.3,0,0,1-9.164-1.77c-5.1-2.029-9.456-7.934-10.659-10.22S-.435,21.777.085,18.51,2.639,10.515,4.6,8.587a29.877,29.877,0,0,1,8.82-5.848C16.521,1.563,22.583,0,22.583,0" transform="translate(3063.383 9965.397)" fill="none" stroke="#b68042" stroke-width="1.5" opacity="0.7"/>
    <path id="Path_36" data-name="Path 36" d="M17.521.008a18.078,18.078,0,0,0-7.109,1.373c-3.959,1.575-7.337,6.157-8.27,7.93s-2.479,7.1-2.076,9.631,1.982,6.2,3.5,7.7a23.179,23.179,0,0,0,6.845,4.537c2.406.913,7.109,2.125,7.109,2.125" transform="translate(1689.154 10003.871) rotate(180)" fill="none" stroke="#b68042" stroke-width="1.5" opacity="0.698"/>
    <path id="Path_553" data-name="Path 553" d="M17.521,33.295a18.078,18.078,0,0,1-7.109-1.373c-3.959-1.574-7.336-6.156-8.269-7.929S-.337,16.9.066,14.36s1.982-6.2,3.5-7.7a23.179,23.179,0,0,1,6.845-4.537C12.818,1.212,17.521,0,17.521,0" transform="translate(3068.445 9970.568)" fill="none" stroke="#b68042" stroke-width="1.5" opacity="0.7"/>
    <path id="Path_6" data-name="Path 6" d="M26.023-.961A51.788,51.788,0,0,0,15.464,2.052C9.584,4.39,4.568,11.2,3.182,13.829S-.5,24.369.1,28.134s2.944,9.213,5.2,11.434a34.427,34.427,0,0,0,10.166,6.739c3.574,1.355,11.983,4.216,11.983,4.216" transform="translate(1699.023 10011.951) rotate(180)" fill="none" stroke="#b68042" stroke-width="1.5" opacity="0.698"/>
    <path id="Path_554" data-name="Path 554" d="M26.023,51.484a51.788,51.788,0,0,1-10.559-3.013c-5.88-2.338-10.9-9.143-12.282-11.777S-.5,26.154.1,22.389s2.944-9.213,5.2-11.434A34.427,34.427,0,0,1,15.464,4.216C19.038,2.861,27.447,0,27.447,0" transform="translate(3058.576 9961.428)" fill="none" stroke="#b68042" stroke-width="1.5" opacity="0.7"/>
  </g>
</svg>
