<svg xmlns="http://www.w3.org/2000/svg" width="686.721" height="617.404" viewBox="0 0 686.721 617.404">
  <g id="Group_212" data-name="Group 212" transform="translate(-6736.394 -4819.427)" opacity="0.363">
    <path id="Path_413" data-name="Path 413" d="M267.979,342.569c4.216-10.653,6.467-21.974,10.113-32.837s8.958-21.606,17.848-28.816c11.388-9.243,26.783-11.381,41.337-13.174l35.073-4.329c6.752-.833,13.924-1.613,20.121,1.215,6.8,3.1,11.1,9.993,13.751,16.977,2.768,7.292,4.194,15.282,2.716,22.942-2.071,10.728-9.445,19.506-16.617,27.758-4.884,5.612-9.925,11.306-16.392,15-6.895,3.931-14.892,5.3-22.612,7.135-23.752,5.649-45.958,16.152-69.335,23.017-7.78,2.251-26.077,10.773-27.173-.885C255.735,365.09,263.935,352.794,267.979,342.569Z" transform="translate(6659.731 4718.972)" fill="none" stroke="#8e8583" stroke-miterlimit="10" stroke-width="1" opacity="0.79"/>
    <path id="Path_414" data-name="Path 414" d="M249.449,351.72l-10.008-23.759c-4.194-9.948-8.432-21.059-4.824-31.231.75-2.251,1.943-4.321,2.671-6.572,1.433-4.411,1.185-9.183.75-13.8-3.128-34.067-14.7-66.709-26.168-98.938-2.311-6.489-4.629-13.009-7.907-19.07-2.858-5.289-6.414-10.2-9.093-15.574-3.308-6.639-5.2-13.871-7.067-21.051L181.72,98.41" transform="translate(6678.463 4759.995)" fill="none" stroke="#8e8583" stroke-miterlimit="10" stroke-width="1" opacity="0.79"/>
    <path id="Path_429" data-name="Path 429" d="M53.1,355.839l9.322-85.672c-4.194-9.948-8.027-47.885-4.418-58.058.75-2.251-3.167-18.11-2.439-20.361,1.433-4.411,1.185-9.183.75-13.8-3.128-34.067-14.7-66.709-26.168-98.938C27.84,72.516,25.522,66,22.244,59.935c-2.858-5.289-6.414-10.2-9.093-15.574-3.308-6.639-5.2-13.871-7.067-21.051L0,0" transform="translate(7268.853 5039.045) rotate(60)" fill="none" stroke="#8e8583" stroke-miterlimit="10" stroke-width="1" opacity="0.79"/>
    <path id="Path_415" data-name="Path 415" d="M338.284,274.113a11.14,11.14,0,0,0,4.861-1.5c1.658-1.118,2.648-3,3.571-4.741l7.832-15.087c1.433-2.746,2.911-5.567,5.252-7.615a24.4,24.4,0,0,1,6.392-3.691q12.979-5.784,26.385-10.5c3.631-1.283,7.442-2.6,10.045-5.439,2.251-2.423,3.316-5.664,5.109-8.417,6-9.19,19.175-12.078,24.187-21.839-23.542.225-47.924.705-69.207,10.766-6.819,3.226-13.174,7.375-20.008,10.578-25.335,11.868-54.683,9.753-82.321,14.082a9.207,9.207,0,0,0-4.891,1.808,8.987,8.987,0,0,0-2.251,4.734c-1.268,5.124-7.187,24.922-3,29.026,3.083,3.038,22.341.818,27.345,1.5C297.66,270.459,317.788,276.843,338.284,274.113Z" transform="translate(6661.717 4735.798)" fill="none" stroke="#8e8583" stroke-miterlimit="10" stroke-width="1" opacity="0.79"/>
    <path id="Path_416" data-name="Path 416" d="M233.471,156.807c5.342-4.141,11.733-6.752,17-11.013s9.453-10.968,7.795-17.525a33.76,33.76,0,0,0-38.876,29.581c-.488,4.336-1.74,13.406,1.38,16.392C224.183,167.618,227.386,161.526,233.471,156.807Z" transform="translate(6669.22 4752.642)" fill="none" stroke="#8e8583" stroke-miterlimit="10" stroke-width="1" opacity="0.79"/>
    <path id="Path_417" data-name="Path 417" d="M137.483,154.458c-8.11-8.17-15.117-17.42-23.714-25.065-23.617-21-56.326-27.653-87.378-33.52-2-.375-4.224-.75-5.957.345-2.251,1.418-2.641,4.546-2.753,7.232-.675,16.5-1.185,33.812,6.257,48.546,9.94,19.7,31.509,30.136,51.51,39.461,16.557,7.72,33.3,15.695,51.307,18.815,10.563,1.831,49.222,3.751,49.514-13.234.135-8.035-10.563-16.647-15.755-21.614C152.945,168.277,144.79,161.825,137.483,154.458Z" transform="translate(6719.527 4760.723)" fill="none" stroke="#8e8583" stroke-miterlimit="10" stroke-width="1" opacity="0.79"/>
    <path id="Path_427" data-name="Path 427" d="M56.111,154.458c8.11-8.17,15.117-17.42,23.714-25.065,23.617-21,56.326-27.653,87.378-33.52,2-.375,4.224-.75,5.957.345,2.251,1.418,2.641,4.546,2.753,7.232.675,16.5,1.185,33.812-6.257,48.546-9.94,19.7-31.509,30.136-51.51,39.461-16.557,7.72-33.3,15.694-51.307,18.815-10.563,1.831-49.222,3.751-49.514-13.234-.135-8.035,10.563-16.647,15.755-21.614C40.649,168.277,48.8,161.825,56.111,154.458Z" transform="translate(7246.389 4852.978)" fill="none" stroke="#8e8583" stroke-miterlimit="10" stroke-width="1" opacity="0.79"/>
    <path id="Path_418" data-name="Path 418" d="M126.551,150.252c-7.952-3.954-15.875-8.3-22.184-14.562a48.239,48.239,0,0,1-13.5-40.677,11.478,11.478,0,0,1,1.921-5.387c1.17-1.515,2.926-2.356,4.546-3.316,13.579-8.02,20.256-23.909,24.442-39.1,19.236,3.173,40.122,7.247,52.8,22.049,4.981,5.807,8.252,12.881,10.788,20.106,8.372,24.082,10.683,54.015,7.5,79.283-1,7.847-3.646,5.334-10.781,3.286q-10.008-2.873-19.8-6.4a334.821,334.821,0,0,1-35.733-15.282Z" transform="translate(6701.275 4772.784)" fill="none" stroke="#8e8583" stroke-miterlimit="10" stroke-width="1" opacity="0.79"/>
    <path id="Path_432" data-name="Path 432" d="M28.3,80.66c-6.225-3.095-12.426-6.5-17.365-11.4A37.761,37.761,0,0,1,.369,37.42a8.985,8.985,0,0,1,1.5-4.216,11.68,11.68,0,0,1,3.559-2.6C16.06,24.33,21.287,11.892,24.564,0,39.621,2.484,55.97,5.673,65.895,17.259,69.794,21.8,72.355,27.343,74.34,33,80.893,51.849,82.7,75.28,80.212,95.059c-.781,6.143-2.854,4.175-8.439,2.572q-7.834-2.249-15.5-5.009A262.094,262.094,0,0,1,28.3,80.66Z" transform="translate(7067.414 5085.362) rotate(14)" fill="none" stroke="#8e8583" stroke-miterlimit="10" stroke-width="1" opacity="0.79"/>
    <path id="Path_428" data-name="Path 428" d="M158.072,150.252c7.952-3.954,15.875-8.3,22.184-14.562a48.239,48.239,0,0,0,13.5-40.677,11.478,11.478,0,0,0-1.921-5.387c-1.17-1.515-2.926-2.356-4.546-3.316-13.579-8.02-20.256-23.909-24.442-39.1-19.236,3.173-40.122,7.247-52.8,22.049-4.981,5.807-8.252,12.881-10.788,20.106-8.372,24.082-10.683,54.015-7.5,79.283,1,7.847,3.646,5.334,10.781,3.286q10.008-2.873,19.8-6.4a334.825,334.825,0,0,0,35.733-15.282Z" transform="translate(7173.611 4865.039)" fill="none" stroke="#8e8583" stroke-miterlimit="10" stroke-width="1" opacity="0.79"/>
    <path id="Path_419" data-name="Path 419" d="M382.909,765.484c4.216-10.653,6.467-21.974,10.113-32.837s8.958-21.606,17.855-28.831c11.381-9.243,26.775-11.381,41.329-13.174l35.073-4.329c6.752-.833,13.924-1.613,20.121,1.215,6.8,3.1,11.1,9.993,13.751,16.977,2.768,7.292,4.194,15.282,2.716,22.942-2.063,10.721-9.445,19.506-16.61,27.758-4.891,5.612-9.933,11.306-16.4,15-6.895,3.931-14.892,5.3-22.612,7.135-23.752,5.649-45.951,16.152-69.327,23.009-7.787,2.251-26.085,10.781-27.18-.878C370.665,788,378.865,775.709,382.909,765.484Z" transform="translate(6631.023 4613.338)" fill="none" stroke="#8e8583" stroke-miterlimit="10" stroke-width="1" opacity="0.79"/>
    <path id="Path_430" data-name="Path 430" d="M11.267,79.94C15.483,69.287,17.733,57.967,21.379,47.1S30.337,25.5,39.235,18.273C50.615,9.03,66.01,6.892,80.564,5.1L115.636.77c6.752-.833,13.924-1.613,20.121,1.215,6.8,3.1,11.1,9.993,13.751,16.977,2.768,7.292,4.194,15.282,2.716,22.942-2.063,10.721-9.445,19.506-16.61,27.758-4.891,5.612-9.933,11.306-16.4,15-6.895,3.931-14.892,5.3-22.612,7.135C72.852,97.45,50.653,107.953,27.276,114.81c-7.787,2.251-26.085,10.781-27.18-.878C-.977,102.454,7.223,90.166,11.267,79.94Z" transform="translate(7274.834 4999.746) rotate(110)" fill="none" stroke="#8e8583" stroke-miterlimit="10" stroke-width="1" opacity="0.79"/>
    <path id="Path_420" data-name="Path 420" d="M453.195,697.033a11.139,11.139,0,0,0,4.861-1.5c1.658-1.118,2.648-3,3.571-4.741l7.84-15.087c1.425-2.746,2.9-5.567,5.251-7.615a24.4,24.4,0,0,1,6.392-3.691q12.971-5.784,26.385-10.5c3.631-1.283,7.442-2.611,10.053-5.439,2.251-2.423,3.308-5.664,5.1-8.417,6-9.19,19.175-12.078,24.187-21.839-23.534.225-47.924.705-69.2,10.766-6.827,3.226-13.181,7.375-20.016,10.578-25.335,11.868-54.683,9.753-82.321,14.082a9.231,9.231,0,0,0-4.891,1.808,8.987,8.987,0,0,0-2.251,4.734c-1.275,5.124-7.195,24.922-3,29.026,3.091,3.038,22.349.818,27.353,1.5C412.586,693.379,432.722,699.733,453.195,697.033Z" transform="translate(6633.013 4630.159)" fill="none" stroke="#8e8583" stroke-miterlimit="10" stroke-width="1" opacity="0.79"/>
    <path id="Path_431" data-name="Path 431" d="M89.518,78.833a11.141,11.141,0,0,0,4.861-1.5c1.658-1.118,2.648-3,3.571-4.741L105.79,57.5c1.425-2.746,2.9-5.567,5.251-7.615a24.4,24.4,0,0,1,6.392-3.691q12.971-5.784,26.385-10.5c3.631-1.283,7.442-2.611,10.053-5.439,2.251-2.423,3.308-5.664,5.1-8.417,6-9.19,19.175-12.078,24.187-21.839-23.534.225-47.924.705-69.2,10.766-6.827,3.226-13.181,7.375-20.016,10.578C68.609,33.212,39.261,31.1,11.623,35.425a9.231,9.231,0,0,0-4.891,1.808,8.987,8.987,0,0,0-2.251,4.734c-1.275,5.124-7.195,24.922-3,29.026,3.091,3.038,22.349.818,27.353,1.5C48.909,75.179,69.044,81.533,89.518,78.833Z" transform="translate(7178.326 5087.597) rotate(2)" fill="none" stroke="#8e8583" stroke-miterlimit="10" stroke-width="1" opacity="0.79"/>
    <path id="Path_421" data-name="Path 421" d="M355.154,731.592q-6.159-13.864-12.3-27.758c-5.154-11.606-10.368-24.57-5.927-36.438.968-2.6,2.386-5.041,3.278-7.667,1.763-5.146,1.455-10.713.93-16.107C337.3,603.861,323.09,565.8,308.986,528.2c-2.836-7.57-5.694-15.177-9.715-22.244-3.511-6.174-7.885-11.891-11.178-18.178-4.059-7.742-6.384-16.182-8.68-24.547l-7.5-27.2" transform="translate(6655.935 4675.662)" fill="none" stroke="#8e8583" stroke-miterlimit="10" stroke-width="1" opacity="0.79"/>
    <path id="Path_422" data-name="Path 422" d="M314.373,571.012c-3.466-6.407,2-14.539,8.778-17.255s14.344-1.853,21.606-2.453a11.575,11.575,0,0,0,4.906-1.238c2.251-1.305,3.466-3.751,4.944-5.9C361.9,533.659,376,530.891,388.659,529a37.683,37.683,0,0,1,9.13,23.107,8.8,8.8,0,0,1-.93,5.049,8.678,8.678,0,0,1-4.171,3.076c-8.47,3.526-18.05,2.326-27.21,2.881C349.835,564.073,323.1,587.119,314.373,571.012Z" transform="translate(6645.597 4652.44)" fill="none" stroke="#8e8583" stroke-miterlimit="10" stroke-width="1" opacity="0.79"/>
    <path id="Path_423" data-name="Path 423" d="M328.81,583.891l51.112,1.538c6.1.188,12.926.105,17.315-4.134,5.064-4.891,4.606-12.994,3.751-19.986" transform="translate(6641.722 4644.369)" fill="none" stroke="#8e8583" stroke-miterlimit="10" stroke-width="1" opacity="0.79"/>
    <path id="Path_424" data-name="Path 424" d="M250.978,606.624c-25.087-12.243-50.812-24.96-69.635-45.576-19.138-21.006-32.177-50.677-59.214-59.357-5.642-1.808-12.191-2.431-17.195.75-2.806,1.793-4.809,4.591-6.617,7.39A125.653,125.653,0,0,0,80.312,599.37C82.5,611.6,86.659,623.7,94.206,633.565c13.286,17.36,35.05,25.582,55.786,32.484,22.919,7.63,47.384,14.727,70.9,9.205,21.524-5.049,38.636-19.888,53.265-35.718,5.762-6.227,15.755-13.6,9.753-20.6C279.914,614.187,257.783,609.948,250.978,606.624Z" transform="translate(6704.265 4659.635)" fill="none" stroke="#8e8583" stroke-miterlimit="10" stroke-width="1" opacity="0.79"/>
    <path id="Path_425" data-name="Path 425" d="M278.422,757c-15.634-21.816-28.9-45.553-47.556-64.841-25.837-26.708-60.235-43.122-93.837-58.974-7.12,12.371-5.041,27.84-1.725,41.727,8.74,36.6,25.6,72.666,54.886,96.305,19.836,16.017,43.978,25.14,68.69,30.451,11.328,2.431,65.344,15.124,70.3,3.518C308.889,791.753,292.714,776.944,278.422,757Z" transform="translate(6690.819 4626.417)" fill="none" stroke="#8e8583" stroke-miterlimit="10" stroke-width="1" opacity="0.79"/>
    <path id="Path_426" data-name="Path 426" d="M220.612,448.444c-1.155,11.426-.5,23.572,5.394,33.422,4.306,7.2,11.043,12.574,17.818,17.525a337.054,337.054,0,0,0,70.318,39.454c5.387-19.948,10.811-40.084,11.823-60.722s-2.723-42.1-14.307-59.214c-5.837-8.612-13.444-15.845-21.006-23C284.425,390,273.69,374.938,265.1,373.228c-10.023-1.988-17.383,10.18-22.431,17.255a121.084,121.084,0,0,0-22.056,57.962Z" transform="translate(6668.867 4691.403)" fill="none" stroke="#8e8583" stroke-miterlimit="10" stroke-width="1" opacity="0.79"/>
    <path id="Path_433" data-name="Path 433" d="M.474,75.433C-.681,86.859-.028,99,5.868,108.855c4.306,7.2,11.043,12.574,17.818,17.525A337.056,337.056,0,0,0,94,165.834c5.387-19.948,10.811-40.084,11.823-60.722S103.1,63.01,91.52,45.9c-5.837-8.612-13.444-15.845-21.006-23C64.287,16.984,53.552,1.927,44.962.217,34.939-1.771,27.579,10.4,22.531,17.472A121.084,121.084,0,0,0,.474,75.433Z" transform="translate(7256.588 5150.723) rotate(97)" fill="none" stroke="#8e8583" stroke-miterlimit="10" stroke-width="1" opacity="0.79"/>
  </g>
</svg>
