<svg xmlns="http://www.w3.org/2000/svg" width="1422.559" height="59.996" viewBox="0 0 1422.559 59.996">
  <g id="Group_251" data-name="Group 251" transform="translate(-1671.57 -10139.322)">
    <path id="Subtraction_43" data-name="Subtraction 43" d="M25.169,50.547a25.253,25.253,0,0,1-5.072-.513,24.975,24.975,0,0,1-9-3.8A25.312,25.312,0,0,1,15.372,1.986,24.966,24.966,0,0,1,20.1.513,25.253,25.253,0,0,1,25.169,0V50.547Z" transform="translate(2659.412 10172.307) rotate(-60)" fill="#fff" opacity="0.354"/>
    <path id="Subtraction_45" data-name="Subtraction 45" d="M25.169,50.547a25.253,25.253,0,0,1-5.072-.513,24.975,24.975,0,0,1-9-3.8A25.312,25.312,0,0,1,15.372,1.986,24.966,24.966,0,0,1,20.1.513,25.253,25.253,0,0,1,25.169,0V50.547Z" transform="translate(2125.569 10139.322) rotate(30)" fill="#fff" opacity="0.354"/>
    <path id="Subtraction_44" data-name="Subtraction 44" d="M25.169,50.547a25.253,25.253,0,0,1-5.072-.513,24.975,24.975,0,0,1-9-3.8A25.312,25.312,0,0,1,15.372,1.986,24.966,24.966,0,0,1,20.1.513,25.253,25.253,0,0,1,25.169,0V50.547Z" transform="translate(2859.791 10145.601)" fill="#fff" opacity="0.354"/>
    <path id="Subtraction_50" data-name="Subtraction 50" d="M25.169,50.547a25.253,25.253,0,0,1-5.072-.513,24.975,24.975,0,0,1-9-3.8A25.312,25.312,0,0,1,15.372,1.986,24.966,24.966,0,0,1,20.1.513,25.253,25.253,0,0,1,25.169,0V50.547Z" transform="translate(2844.196 10147.339)" fill="#fff" opacity="0.354"/>
    <path id="Subtraction_51" data-name="Subtraction 51" d="M25.168,0A25.253,25.253,0,0,0,20.1.513a24.975,24.975,0,0,0-9,3.8,25.312,25.312,0,0,0,4.275,44.244A24.966,24.966,0,0,0,20.1,50.033a25.253,25.253,0,0,0,5.072.513V0Z" transform="translate(2938.365 10199.318) rotate(180)" fill="#fff" opacity="0.354"/>
    <path id="Subtraction_46" data-name="Subtraction 46" d="M25.169,50.547a25.253,25.253,0,0,1-5.072-.513,24.975,24.975,0,0,1-9-3.8A25.312,25.312,0,0,1,15.372,1.986,24.966,24.966,0,0,1,20.1.513,25.253,25.253,0,0,1,25.169,0V50.547Z" transform="translate(1808.011 10145.601)" fill="#fff" opacity="0.354"/>
    <path id="Subtraction_48" data-name="Subtraction 48" d="M25.169,50.547a25.253,25.253,0,0,1-5.072-.513,24.975,24.975,0,0,1-9-3.8A25.312,25.312,0,0,1,15.372,1.986,24.966,24.966,0,0,1,20.1.513,25.253,25.253,0,0,1,25.169,0V50.547Z" transform="translate(1795.426 10145.601)" fill="#fff" opacity="0.354"/>
    <path id="Subtraction_49" data-name="Subtraction 49" d="M25.169,50.547a25.253,25.253,0,0,1-5.072-.513,24.975,24.975,0,0,1-9-3.8A25.312,25.312,0,0,1,15.372,1.986,24.966,24.966,0,0,1,20.1.513,25.253,25.253,0,0,1,25.169,0V50.547Z" transform="translate(1762.864 10145.601)" fill="#fff" opacity="0.354"/>
    <path id="Subtraction_47" data-name="Subtraction 47" d="M25.169,50.547a25.253,25.253,0,0,1-5.072-.513,24.975,24.975,0,0,1-9-3.8A25.312,25.312,0,0,1,15.372,1.986,24.966,24.966,0,0,1,20.1.513,25.253,25.253,0,0,1,25.169,0V50.547Z" transform="translate(1840.573 10147.339)" fill="#fff" opacity="0.354"/>
    <path id="Path_555" data-name="Path 555" d="M1671.576,10171.237s150.092,1.5,215.839,0,287.327-7.6,360.057,0,251.041-2.966,360.14,0,208.684-1.076,267.942,0,141.951-.376,218.573,0" fill="none" stroke="#b68042" stroke-width="1.2"/>
  </g>
</svg>
