<svg xmlns="http://www.w3.org/2000/svg" width="376" height="277.398" viewBox="0 0 376 277.398">
  <g id="Group_226" data-name="Group 226" transform="translate(-11133.5 1628.078)">
    <path id="Path_529" data-name="Path 529" d="M9.018,15.581a3.152,3.152,0,0,1-1.23,2.646,5.335,5.335,0,0,1-3.34.949,8.365,8.365,0,0,1-3.516-.589V17.146a9.256,9.256,0,0,0,1.723.527,9.063,9.063,0,0,0,1.846.193A3.724,3.724,0,0,0,6.75,17.3a1.86,1.86,0,0,0,.756-1.578,2.025,2.025,0,0,0-.268-1.094,2.49,2.49,0,0,0-.9-.787,12.542,12.542,0,0,0-1.912-.817A6.1,6.1,0,0,1,1.868,11.5,3.357,3.357,0,0,1,1.1,9.209,2.853,2.853,0,0,1,2.215,6.845a4.639,4.639,0,0,1,2.953-.879,8.7,8.7,0,0,1,3.524.7l-.466,1.3A7.965,7.965,0,0,0,5.133,7.3a2.994,2.994,0,0,0-1.854.51A1.68,1.68,0,0,0,2.61,9.227a2.169,2.169,0,0,0,.246,1.094,2.317,2.317,0,0,0,.831.782,10.32,10.32,0,0,0,1.789.787,7.081,7.081,0,0,1,2.782,1.547A3.042,3.042,0,0,1,9.018,15.581ZM15.5,19.176a4.426,4.426,0,0,1-3.371-1.3,5.036,5.036,0,0,1-1.235-3.612,5.585,5.585,0,0,1,1.147-3.7,3.81,3.81,0,0,1,3.081-1.371,3.633,3.633,0,0,1,2.865,1.191,4.564,4.564,0,0,1,1.055,3.142v.923H12.4a3.818,3.818,0,0,0,.857,2.575,2.964,2.964,0,0,0,2.29.879,7.759,7.759,0,0,0,3.076-.65v1.3a7.721,7.721,0,0,1-1.463.479A8.224,8.224,0,0,1,15.5,19.176Zm-.4-8.763a2.383,2.383,0,0,0-1.85.756,3.484,3.484,0,0,0-.813,2.092h5.036a3.208,3.208,0,0,0-.615-2.114A2.165,2.165,0,0,0,15.1,10.413Zm10.494,8.763a4.426,4.426,0,0,1-3.371-1.3,5.036,5.036,0,0,1-1.235-3.612,5.585,5.585,0,0,1,1.147-3.7,3.81,3.81,0,0,1,3.081-1.371,3.633,3.633,0,0,1,2.865,1.191,4.564,4.564,0,0,1,1.055,3.142v.923H22.5a3.818,3.818,0,0,0,.857,2.575,2.964,2.964,0,0,0,2.29.879,7.759,7.759,0,0,0,3.076-.65v1.3a7.721,7.721,0,0,1-1.463.479A8.224,8.224,0,0,1,25.594,19.176Zm-.4-8.763a2.383,2.383,0,0,0-1.85.756,3.484,3.484,0,0,0-.813,2.092h5.036a3.208,3.208,0,0,0-.615-2.114A2.165,2.165,0,0,0,25.2,10.413ZM38.18,17.708H38.1a3.428,3.428,0,0,1-3.023,1.468,3.577,3.577,0,0,1-2.94-1.292,5.687,5.687,0,0,1-1.05-3.674,5.783,5.783,0,0,1,1.055-3.7,3.549,3.549,0,0,1,2.936-1.318,3.5,3.5,0,0,1,3.006,1.424H38.2l-.062-.694L38.1,9.244V5.324H39.56V19H38.373Zm-2.918.246a2.656,2.656,0,0,0,2.167-.813,4.108,4.108,0,0,0,.672-2.624V14.21a4.834,4.834,0,0,0-.681-2.922,2.587,2.587,0,0,0-2.175-.875,2.233,2.233,0,0,0-1.964,1,4.96,4.96,0,0,0-.681,2.817,4.755,4.755,0,0,0,.677,2.786A2.292,2.292,0,0,0,35.262,17.954ZM54.8,15.581a3.152,3.152,0,0,1-1.23,2.646,5.335,5.335,0,0,1-3.34.949,8.365,8.365,0,0,1-3.516-.589V17.146a9.256,9.256,0,0,0,1.723.527,9.063,9.063,0,0,0,1.846.193,3.724,3.724,0,0,0,2.25-.567,1.86,1.86,0,0,0,.756-1.578,2.025,2.025,0,0,0-.268-1.094,2.49,2.49,0,0,0-.9-.787,12.542,12.542,0,0,0-1.912-.817A6.1,6.1,0,0,1,47.65,11.5a3.357,3.357,0,0,1-.769-2.294A2.853,2.853,0,0,1,48,6.845a4.639,4.639,0,0,1,2.953-.879,8.7,8.7,0,0,1,3.524.7l-.466,1.3A7.965,7.965,0,0,0,50.915,7.3a2.994,2.994,0,0,0-1.854.51,1.68,1.68,0,0,0-.668,1.415,2.169,2.169,0,0,0,.246,1.094,2.317,2.317,0,0,0,.831.782,10.32,10.32,0,0,0,1.789.787,7.081,7.081,0,0,1,2.782,1.547A3.042,3.042,0,0,1,54.8,15.581ZM63.8,19V12.769a2.514,2.514,0,0,0-.536-1.758,2.184,2.184,0,0,0-1.679-.58,2.751,2.751,0,0,0-2.219.826,4.184,4.184,0,0,0-.7,2.707V19H57.208V5.324h1.459v4.14A9.02,9.02,0,0,1,58.6,10.7h.088a2.976,2.976,0,0,1,1.226-1.094,3.986,3.986,0,0,1,1.815-.4,3.717,3.717,0,0,1,2.65.839,3.535,3.535,0,0,1,.883,2.667V19Zm10.38,0-.29-1.371h-.07a4.053,4.053,0,0,1-1.437,1.226,4.38,4.38,0,0,1-1.789.321,3.217,3.217,0,0,1-2.246-.738,2.693,2.693,0,0,1-.813-2.1q0-2.918,4.667-3.059l1.635-.053v-.6a2.442,2.442,0,0,0-.488-1.674,2.006,2.006,0,0,0-1.56-.541,6.357,6.357,0,0,0-2.725.738l-.448-1.116a6.856,6.856,0,0,1,1.56-.606,6.757,6.757,0,0,1,1.7-.22,3.669,3.669,0,0,1,2.553.765,3.192,3.192,0,0,1,.831,2.452V19Zm-3.3-1.028a2.961,2.961,0,0,0,2.14-.747,2.764,2.764,0,0,0,.778-2.092v-.87l-1.459.062a5.307,5.307,0,0,0-2.509.541,1.63,1.63,0,0,0-.769,1.49,1.5,1.5,0,0,0,.479,1.2A1.988,1.988,0,0,0,70.884,17.972Zm11.777-8.78a5.709,5.709,0,0,1,1.151.105l-.2,1.354a4.97,4.97,0,0,0-1.055-.132,2.567,2.567,0,0,0-2,.949,3.461,3.461,0,0,0-.831,2.364V19H78.267V9.367h1.2l.167,1.784h.07A4.234,4.234,0,0,1,81,9.7,2.908,2.908,0,0,1,82.661,9.191Zm6.662,9.984a4.426,4.426,0,0,1-3.371-1.3,5.036,5.036,0,0,1-1.235-3.612,5.585,5.585,0,0,1,1.147-3.7,3.81,3.81,0,0,1,3.081-1.371,3.633,3.633,0,0,1,2.865,1.191,4.564,4.564,0,0,1,1.055,3.142v.923H86.229a3.818,3.818,0,0,0,.857,2.575,2.964,2.964,0,0,0,2.29.879,7.759,7.759,0,0,0,3.076-.65v1.3a7.721,7.721,0,0,1-1.463.479A8.224,8.224,0,0,1,89.323,19.176Zm-.4-8.763a2.383,2.383,0,0,0-1.85.756,3.484,3.484,0,0,0-.813,2.092H91.3a3.208,3.208,0,0,0-.615-2.114A2.165,2.165,0,0,0,88.928,10.413ZM7.453,46,3.094,34.609h-.07q.123,1.354.123,3.217V46H1.767V33.15h2.25l4.069,10.6h.07l4.1-10.6h2.232V46H13V37.721q0-1.424.123-3.094h-.07L8.657,46Zm18.659-4.825a5.314,5.314,0,0,1-1.187,3.678,4.179,4.179,0,0,1-3.278,1.323,4.342,4.342,0,0,1-2.294-.606,4,4,0,0,1-1.547-1.74,6.065,6.065,0,0,1-.545-2.654,5.306,5.306,0,0,1,1.178-3.669,4.165,4.165,0,0,1,3.27-1.314,4.075,4.075,0,0,1,3.212,1.345A5.291,5.291,0,0,1,26.112,41.175Zm-7.339,0a4.572,4.572,0,0,0,.738,2.813,2.563,2.563,0,0,0,2.171.967,2.58,2.58,0,0,0,2.175-.962,4.549,4.549,0,0,0,.743-2.817,4.476,4.476,0,0,0-.743-2.791,2.609,2.609,0,0,0-2.193-.954,2.568,2.568,0,0,0-2.162.94A4.526,4.526,0,0,0,18.773,41.175Zm14.379-4.966a3.581,3.581,0,0,1,2.949,1.3,5.69,5.69,0,0,1,1.05,3.669,5.732,5.732,0,0,1-1.059,3.687,3.566,3.566,0,0,1-2.94,1.314,4.169,4.169,0,0,1-1.718-.347,3.231,3.231,0,0,1-1.305-1.068h-.105L29.716,46H28.67V32.324h1.459v3.322q0,1.116-.07,2h.07A3.463,3.463,0,0,1,33.152,36.209Zm-.211,1.222a2.547,2.547,0,0,0-2.153.857,4.834,4.834,0,0,0-.659,2.887,4.821,4.821,0,0,0,.677,2.9,2.574,2.574,0,0,0,2.171.875,2.25,2.25,0,0,0,2-.98,5.037,5.037,0,0,0,.659-2.817,4.84,4.84,0,0,0-.659-2.8A2.336,2.336,0,0,0,32.941,37.431ZM41.159,46H39.7V36.367h1.459ZM39.577,33.757a.969.969,0,0,1,.246-.734.911.911,0,0,1,1.222,0,.951.951,0,0,1,.255.729.966.966,0,0,1-.255.734.893.893,0,0,1-1.222,0A.987.987,0,0,1,39.577,33.757ZM45.712,46H44.253V32.324h1.459Zm7.163.176a4.426,4.426,0,0,1-3.371-1.3,5.036,5.036,0,0,1-1.235-3.612,5.585,5.585,0,0,1,1.147-3.7A3.81,3.81,0,0,1,52.5,36.191a3.633,3.633,0,0,1,2.865,1.191,4.564,4.564,0,0,1,1.055,3.142v.923H49.781a3.818,3.818,0,0,0,.857,2.575,2.964,2.964,0,0,0,2.29.879A7.759,7.759,0,0,0,56,44.251v1.3a7.721,7.721,0,0,1-1.463.479A8.224,8.224,0,0,1,52.875,46.176Zm-.4-8.763a2.383,2.383,0,0,0-1.85.756,3.484,3.484,0,0,0-.813,2.092h5.036a3.208,3.208,0,0,0-.615-2.114A2.165,2.165,0,0,0,52.479,37.413ZM71.877,46l-1.6-4.087h-5.15L63.545,46H62.033l5.08-12.9H68.37L73.424,46Zm-2.065-5.432-1.494-3.981q-.29-.756-.6-1.854a16.653,16.653,0,0,1-.554,1.854l-1.512,3.981Zm9.642,5.607a4.169,4.169,0,0,1-1.718-.347,3.231,3.231,0,0,1-1.305-1.068h-.105a12.921,12.921,0,0,1,.105,1.6v3.964H74.971V36.367h1.187l.2,1.318h.07a3.388,3.388,0,0,1,1.31-1.143,3.981,3.981,0,0,1,1.714-.352,3.56,3.56,0,0,1,2.958,1.31,5.766,5.766,0,0,1,1.042,3.674,5.732,5.732,0,0,1-1.059,3.687A3.566,3.566,0,0,1,79.453,46.176Zm-.211-8.745a2.585,2.585,0,0,0-2.136.817,4.206,4.206,0,0,0-.677,2.6v.325a4.821,4.821,0,0,0,.677,2.9,2.574,2.574,0,0,0,2.171.875,2.257,2.257,0,0,0,1.956-1.011,4.793,4.793,0,0,0,.708-2.786,4.613,4.613,0,0,0-.708-2.764A2.327,2.327,0,0,0,79.242,37.431Zm11.241,8.745a4.169,4.169,0,0,1-1.718-.347,3.231,3.231,0,0,1-1.305-1.068h-.105a12.921,12.921,0,0,1,.105,1.6v3.964H86V36.367h1.187l.2,1.318h.07a3.388,3.388,0,0,1,1.31-1.143,3.981,3.981,0,0,1,1.714-.352,3.56,3.56,0,0,1,2.958,1.31,5.766,5.766,0,0,1,1.042,3.674,5.732,5.732,0,0,1-1.059,3.687A3.566,3.566,0,0,1,90.483,46.176Zm-.211-8.745a2.585,2.585,0,0,0-2.136.817,4.206,4.206,0,0,0-.677,2.6v.325a4.821,4.821,0,0,0,.677,2.9,2.574,2.574,0,0,0,2.171.875,2.257,2.257,0,0,0,1.956-1.011,4.793,4.793,0,0,0,.708-2.786,4.613,4.613,0,0,0-.708-2.764A2.327,2.327,0,0,0,90.272,37.431ZM100.9,41.843V40.507h4.315v1.336ZM112.395,46V33.15h1.494V46Zm16.172-6.442a7.074,7.074,0,0,1-1.56,4.852,5.485,5.485,0,0,1-4.337,1.767,5.554,5.554,0,0,1-4.381-1.736,7.132,7.132,0,0,1-1.542-4.9,7.042,7.042,0,0,1,1.547-4.865,5.593,5.593,0,0,1,4.395-1.727,5.474,5.474,0,0,1,4.324,1.758A7.067,7.067,0,0,1,128.566,39.558Zm-10.239,0a6.1,6.1,0,0,0,1.112,3.959,4.541,4.541,0,0,0,6.456,0,6.183,6.183,0,0,0,1.09-3.964,6.134,6.134,0,0,0-1.085-3.933,3.89,3.89,0,0,0-3.212-1.34,3.966,3.966,0,0,0-3.248,1.349A6.036,6.036,0,0,0,118.327,39.558Zm20.355,3.023a3.152,3.152,0,0,1-1.23,2.646,5.335,5.335,0,0,1-3.34.949,8.365,8.365,0,0,1-3.516-.589V44.146a9.256,9.256,0,0,0,1.723.527,9.063,9.063,0,0,0,1.846.193,3.724,3.724,0,0,0,2.25-.567,1.86,1.86,0,0,0,.756-1.578,2.025,2.025,0,0,0-.268-1.094,2.49,2.49,0,0,0-.9-.787,12.542,12.542,0,0,0-1.912-.817,6.1,6.1,0,0,1-2.562-1.521,3.357,3.357,0,0,1-.769-2.294,2.853,2.853,0,0,1,1.116-2.364,4.639,4.639,0,0,1,2.953-.879,8.7,8.7,0,0,1,3.524.7l-.466,1.3A7.965,7.965,0,0,0,134.8,34.3a2.994,2.994,0,0,0-1.854.51,1.68,1.68,0,0,0-.668,1.415,2.169,2.169,0,0,0,.246,1.094,2.317,2.317,0,0,0,.831.782,10.32,10.32,0,0,0,1.789.787,7.081,7.081,0,0,1,2.782,1.547A3.042,3.042,0,0,1,138.683,42.581Zm15.451-5.687a3.6,3.6,0,0,1-1.332,3,6.032,6.032,0,0,1-3.81,1.05H147.48V46h-1.494V33.15h3.331Q154.134,33.15,154.134,36.895Zm-6.653,2.769h1.345a5,5,0,0,0,2.874-.642,2.365,2.365,0,0,0,.888-2.057,2.217,2.217,0,0,0-.835-1.9,4.362,4.362,0,0,0-2.6-.624h-1.67ZM158.063,46H156.6V32.324h1.459Zm9.018,0-.29-1.371h-.07a4.053,4.053,0,0,1-1.437,1.226,4.38,4.38,0,0,1-1.789.321,3.217,3.217,0,0,1-2.246-.738,2.693,2.693,0,0,1-.813-2.1q0-2.918,4.667-3.059l1.635-.053v-.6a2.442,2.442,0,0,0-.488-1.674,2.006,2.006,0,0,0-1.56-.541,6.357,6.357,0,0,0-2.725.738l-.448-1.116a6.856,6.856,0,0,1,1.56-.606,6.757,6.757,0,0,1,1.7-.22,3.669,3.669,0,0,1,2.553.765,3.192,3.192,0,0,1,.831,2.452V46Zm-3.3-1.028a2.961,2.961,0,0,0,2.14-.747,2.764,2.764,0,0,0,.778-2.092v-.87l-1.459.062a5.307,5.307,0,0,0-2.509.541,1.63,1.63,0,0,0-.769,1.49,1.5,1.5,0,0,0,.479,1.2A1.988,1.988,0,0,0,163.784,44.972Zm10.494,0a4.766,4.766,0,0,0,.747-.057,4.836,4.836,0,0,0,.571-.119v1.116a2.667,2.667,0,0,1-.7.189,5.247,5.247,0,0,1-.831.075q-2.795,0-2.795-2.944V37.5h-1.38v-.7l1.38-.606.615-2.057h.844v2.232h2.795V37.5h-2.795V43.17a1.95,1.95,0,0,0,.413,1.336A1.438,1.438,0,0,0,174.278,44.972Zm7.585-7.471h-2.452V46h-1.459V37.5h-1.723v-.659l1.723-.527v-.536q0-3.551,3.1-3.551a6.384,6.384,0,0,1,1.793.308L182.47,33.7a4.826,4.826,0,0,0-1.441-.272,1.4,1.4,0,0,0-1.222.549,3.066,3.066,0,0,0-.4,1.762v.624h2.452Zm10.072,3.674a5.314,5.314,0,0,1-1.187,3.678,4.179,4.179,0,0,1-3.278,1.323,4.342,4.342,0,0,1-2.294-.606,4,4,0,0,1-1.547-1.74,6.065,6.065,0,0,1-.545-2.654,5.306,5.306,0,0,1,1.178-3.669,4.165,4.165,0,0,1,3.27-1.314,4.075,4.075,0,0,1,3.212,1.345A5.291,5.291,0,0,1,191.936,41.175Zm-7.339,0a4.572,4.572,0,0,0,.738,2.813,2.93,2.93,0,0,0,4.346,0,4.549,4.549,0,0,0,.743-2.817,4.476,4.476,0,0,0-.743-2.791,2.609,2.609,0,0,0-2.193-.954,2.568,2.568,0,0,0-2.162.94A4.526,4.526,0,0,0,184.6,41.175Zm14.291-4.983a5.709,5.709,0,0,1,1.151.105l-.2,1.354a4.97,4.97,0,0,0-1.055-.132,2.567,2.567,0,0,0-2,.949,3.461,3.461,0,0,0-.831,2.364V46h-1.459V36.367h1.2l.167,1.784h.07a4.234,4.234,0,0,1,1.292-1.45A2.908,2.908,0,0,1,198.888,36.191ZM214.119,46V39.733a2.6,2.6,0,0,0-.492-1.727,1.9,1.9,0,0,0-1.529-.576,2.469,2.469,0,0,0-2.013.782,3.718,3.718,0,0,0-.65,2.408V46h-1.459V39.733a2.6,2.6,0,0,0-.492-1.727,1.915,1.915,0,0,0-1.538-.576,2.382,2.382,0,0,0-2.008.822,4.447,4.447,0,0,0-.637,2.694V46h-1.459V36.367h1.187l.237,1.318h.07a2.867,2.867,0,0,1,1.165-1.1,3.558,3.558,0,0,1,1.683-.4,2.862,2.862,0,0,1,2.953,1.635h.07a3.072,3.072,0,0,1,1.248-1.2,3.873,3.873,0,0,1,1.863-.439,3.262,3.262,0,0,1,2.448.839,3.755,3.755,0,0,1,.813,2.685V46ZM12.92,66.558a7.074,7.074,0,0,1-1.56,4.852,5.485,5.485,0,0,1-4.337,1.767A5.554,5.554,0,0,1,2.641,71.44,7.132,7.132,0,0,1,1.1,66.54a7.042,7.042,0,0,1,1.547-4.865A5.593,5.593,0,0,1,7.04,59.948a5.474,5.474,0,0,1,4.324,1.758A7.067,7.067,0,0,1,12.92,66.558Zm-10.239,0a6.1,6.1,0,0,0,1.112,3.959,3.945,3.945,0,0,0,3.23,1.349,3.907,3.907,0,0,0,3.226-1.345,6.183,6.183,0,0,0,1.09-3.964,6.134,6.134,0,0,0-1.085-3.933,3.89,3.89,0,0,0-3.212-1.34,3.966,3.966,0,0,0-3.248,1.349A6.036,6.036,0,0,0,2.681,66.558Zm16.734,6.618a4.111,4.111,0,0,1-3.239-1.288,5.3,5.3,0,0,1-1.147-3.643,5.46,5.46,0,0,1,1.165-3.735,4.193,4.193,0,0,1,3.318-1.318,6.584,6.584,0,0,1,1.389.149,4.575,4.575,0,0,1,1.09.352l-.448,1.239a6.86,6.86,0,0,0-1.055-.321,4.709,4.709,0,0,0-1.011-.127q-2.936,0-2.936,3.744a4.458,4.458,0,0,0,.716,2.725,2.492,2.492,0,0,0,2.123.949,6.49,6.49,0,0,0,2.47-.519v1.292A5.264,5.264,0,0,1,19.415,73.176Zm7.831-1.2a4.766,4.766,0,0,0,.747-.057,4.836,4.836,0,0,0,.571-.119v1.116a2.667,2.667,0,0,1-.7.189,5.247,5.247,0,0,1-.831.075q-2.795,0-2.795-2.944V64.5H22.86v-.7l1.38-.606.615-2.057H25.7v2.232h2.795V64.5H25.7V70.17a1.95,1.95,0,0,0,.413,1.336A1.438,1.438,0,0,0,27.246,71.972Zm11.558-3.8a5.314,5.314,0,0,1-1.187,3.678,4.179,4.179,0,0,1-3.278,1.323,4.342,4.342,0,0,1-2.294-.606,4,4,0,0,1-1.547-1.74,6.065,6.065,0,0,1-.545-2.654,5.306,5.306,0,0,1,1.178-3.669,4.165,4.165,0,0,1,3.27-1.314,4.075,4.075,0,0,1,3.212,1.345A5.291,5.291,0,0,1,38.8,68.175Zm-7.339,0a4.572,4.572,0,0,0,.738,2.813,2.93,2.93,0,0,0,4.346,0,4.549,4.549,0,0,0,.743-2.817,4.476,4.476,0,0,0-.743-2.791,2.609,2.609,0,0,0-2.193-.954,2.568,2.568,0,0,0-2.162.94A4.526,4.526,0,0,0,31.465,68.175Zm14.379-4.966a3.581,3.581,0,0,1,2.949,1.3,5.69,5.69,0,0,1,1.05,3.669,5.732,5.732,0,0,1-1.059,3.687,3.566,3.566,0,0,1-2.94,1.314,4.169,4.169,0,0,1-1.718-.347,3.231,3.231,0,0,1-1.305-1.068h-.105L42.407,73H41.361V59.324H42.82v3.322q0,1.116-.07,2h.07A3.463,3.463,0,0,1,45.844,63.209Zm-.211,1.222a2.547,2.547,0,0,0-2.153.857,4.834,4.834,0,0,0-.659,2.887,4.821,4.821,0,0,0,.677,2.9,2.574,2.574,0,0,0,2.171.875,2.25,2.25,0,0,0,2-.98,5.037,5.037,0,0,0,.659-2.817,4.84,4.84,0,0,0-.659-2.8A2.336,2.336,0,0,0,45.633,64.431Zm10.828,8.745a4.426,4.426,0,0,1-3.371-1.3,5.036,5.036,0,0,1-1.235-3.612A5.585,5.585,0,0,1,53,64.563a3.81,3.81,0,0,1,3.081-1.371,3.633,3.633,0,0,1,2.865,1.191A4.564,4.564,0,0,1,60,67.524v.923H53.367a3.818,3.818,0,0,0,.857,2.575,2.964,2.964,0,0,0,2.29.879,7.759,7.759,0,0,0,3.076-.65v1.3a7.721,7.721,0,0,1-1.463.479A8.224,8.224,0,0,1,56.461,73.176Zm-.4-8.763a2.383,2.383,0,0,0-1.85.756,3.484,3.484,0,0,0-.813,2.092h5.036a3.208,3.208,0,0,0-.615-2.114A2.165,2.165,0,0,0,56.065,64.413Zm10.819-1.222a5.709,5.709,0,0,1,1.151.105l-.2,1.354a4.97,4.97,0,0,0-1.055-.132,2.567,2.567,0,0,0-2,.949,3.461,3.461,0,0,0-.831,2.364V73H62.49V63.367h1.2l.167,1.784h.07a4.234,4.234,0,0,1,1.292-1.45A2.908,2.908,0,0,1,66.885,63.191ZM82.292,73H73.846V71.743l3.384-3.4a24.918,24.918,0,0,0,2.039-2.232,5.7,5.7,0,0,0,.738-1.3,3.726,3.726,0,0,0,.246-1.362,2.16,2.16,0,0,0-.624-1.63,2.39,2.39,0,0,0-1.731-.6,4.354,4.354,0,0,0-1.516.264,6.043,6.043,0,0,0-1.6.958l-.773-.993a5.924,5.924,0,0,1,3.867-1.477,4.086,4.086,0,0,1,2.839.927,3.189,3.189,0,0,1,1.028,2.492,4.812,4.812,0,0,1-.686,2.417A15.345,15.345,0,0,1,78.5,68.825l-2.812,2.751v.07h6.609Zm10.362-6.442a9.384,9.384,0,0,1-1.05,4.975,3.879,3.879,0,0,1-6.368-.04,9.2,9.2,0,0,1-1.081-4.935A9.381,9.381,0,0,1,85.2,61.574a3.882,3.882,0,0,1,6.368.07A9.158,9.158,0,0,1,92.654,66.558Zm-7.022,0a9.411,9.411,0,0,0,.659,4.083,2.368,2.368,0,0,0,4.214-.018,9.483,9.483,0,0,0,.655-4.065,9.42,9.42,0,0,0-.655-4.056,2.376,2.376,0,0,0-4.214-.018A9.348,9.348,0,0,0,85.632,66.558ZM102.876,73H94.43V71.743l3.384-3.4a24.918,24.918,0,0,0,2.039-2.232,5.7,5.7,0,0,0,.738-1.3,3.726,3.726,0,0,0,.246-1.362,2.16,2.16,0,0,0-.624-1.63,2.39,2.39,0,0,0-1.731-.6,4.354,4.354,0,0,0-1.516.264,6.043,6.043,0,0,0-1.6.958l-.773-.993a5.924,5.924,0,0,1,3.867-1.477,4.086,4.086,0,0,1,2.839.927,3.189,3.189,0,0,1,1.028,2.492,4.812,4.812,0,0,1-.686,2.417,15.345,15.345,0,0,1-2.566,3.023l-2.812,2.751v.07h6.609Zm10.362-6.442a9.384,9.384,0,0,1-1.05,4.975,3.879,3.879,0,0,1-6.368-.04,9.2,9.2,0,0,1-1.081-4.935,9.381,9.381,0,0,1,1.046-4.983,3.882,3.882,0,0,1,6.368.07A9.158,9.158,0,0,1,113.238,66.558Zm-7.022,0a9.411,9.411,0,0,0,.659,4.083,2.368,2.368,0,0,0,4.214-.018,9.483,9.483,0,0,0,.655-4.065,9.42,9.42,0,0,0-.655-4.056,2.376,2.376,0,0,0-4.214-.018A9.348,9.348,0,0,0,106.216,66.558ZM8.842,90.174a2.93,2.93,0,0,1-.69,2.013A3.454,3.454,0,0,1,6.2,93.232v.07a3.678,3.678,0,0,1,2.294.984,2.9,2.9,0,0,1,.747,2.074,3.365,3.365,0,0,1-1.274,2.826,5.8,5.8,0,0,1-3.621.989,10.5,10.5,0,0,1-1.868-.154,6.392,6.392,0,0,1-1.648-.541V98.093a8.013,8.013,0,0,0,1.78.628,8.06,8.06,0,0,0,1.789.215q3.331,0,3.331-2.61,0-2.338-3.674-2.338H2.786V92.731H4.069a3.864,3.864,0,0,0,2.382-.664,2.177,2.177,0,0,0,.879-1.841,1.815,1.815,0,0,0-.646-1.477,2.662,2.662,0,0,0-1.753-.536,5.41,5.41,0,0,0-1.591.229,7.119,7.119,0,0,0-1.705.844L.9,88.3a6.155,6.155,0,0,1,1.824-.98A6.628,6.628,0,0,1,4.9,86.966a4.445,4.445,0,0,1,2.909.857A2.886,2.886,0,0,1,8.842,90.174ZM27.949,100H26.473L23.88,91.4q-.185-.571-.413-1.441a8.407,8.407,0,0,1-.237-1.046,20.015,20.015,0,0,1-.615,2.54L20.1,100H18.624L15.205,87.15h1.582l2.03,7.937a29.517,29.517,0,0,1,.615,3.023,21.835,21.835,0,0,1,.7-3.146l2.3-7.813h1.582l2.417,7.884a23.966,23.966,0,0,1,.712,3.076,26.352,26.352,0,0,1,.633-3.041L29.8,87.15h1.582Zm8.938.176a4.426,4.426,0,0,1-3.371-1.3,5.036,5.036,0,0,1-1.235-3.612,5.585,5.585,0,0,1,1.147-3.7,3.81,3.81,0,0,1,3.081-1.371,3.633,3.633,0,0,1,2.865,1.191,4.564,4.564,0,0,1,1.055,3.142v.923H33.794a3.818,3.818,0,0,0,.857,2.575,2.964,2.964,0,0,0,2.29.879,7.759,7.759,0,0,0,3.076-.65v1.3a7.721,7.721,0,0,1-1.463.479A8.224,8.224,0,0,1,36.888,100.176Zm-.4-8.763a2.383,2.383,0,0,0-1.85.756,3.484,3.484,0,0,0-.813,2.092h5.036a3.208,3.208,0,0,0-.615-2.114A2.165,2.165,0,0,0,36.492,91.413Zm10.494,8.763a4.426,4.426,0,0,1-3.371-1.3,5.036,5.036,0,0,1-1.235-3.612,5.585,5.585,0,0,1,1.147-3.7,3.81,3.81,0,0,1,3.081-1.371,3.633,3.633,0,0,1,2.865,1.191,4.564,4.564,0,0,1,1.055,3.142v.923H43.893a3.818,3.818,0,0,0,.857,2.575,2.964,2.964,0,0,0,2.29.879,7.759,7.759,0,0,0,3.076-.65v1.3a7.721,7.721,0,0,1-1.463.479A8.224,8.224,0,0,1,46.986,100.176Zm-.4-8.763a2.383,2.383,0,0,0-1.85.756,3.484,3.484,0,0,0-.813,2.092h5.036a3.208,3.208,0,0,0-.615-2.114A2.165,2.165,0,0,0,46.591,91.413Zm7.866,3.656a17.157,17.157,0,0,1,1.151-1.406l3.111-3.3h1.731l-3.9,4.1L60.724,100H58.957l-3.4-4.553-1.1.949V100H53.016V86.324h1.441v7.251q0,.483-.07,1.494Zm21.05-4.175a3.6,3.6,0,0,1-1.332,3,6.032,6.032,0,0,1-3.81,1.05H68.854V100H67.359V87.15H70.69Q75.507,87.15,75.507,90.895Zm-6.653,2.769H70.2a5,5,0,0,0,2.874-.642,2.365,2.365,0,0,0,.888-2.057,2.217,2.217,0,0,0-.835-1.9,4.362,4.362,0,0,0-2.6-.624h-1.67Zm13.518-3.472a5.709,5.709,0,0,1,1.151.105l-.2,1.354a4.97,4.97,0,0,0-1.055-.132,2.567,2.567,0,0,0-2,.949,3.461,3.461,0,0,0-.831,2.364V100H77.977V90.367h1.2l.167,1.784h.07A4.234,4.234,0,0,1,80.71,90.7,2.908,2.908,0,0,1,82.371,90.191Zm10.907,4.983a5.314,5.314,0,0,1-1.187,3.678,4.179,4.179,0,0,1-3.278,1.323,4.342,4.342,0,0,1-2.294-.606,4,4,0,0,1-1.547-1.74,6.065,6.065,0,0,1-.545-2.654,5.306,5.306,0,0,1,1.178-3.669,4.165,4.165,0,0,1,3.27-1.314,4.075,4.075,0,0,1,3.212,1.345A5.291,5.291,0,0,1,93.278,95.175Zm-7.339,0a4.572,4.572,0,0,0,.738,2.813,2.93,2.93,0,0,0,4.346,0,4.549,4.549,0,0,0,.743-2.817,4.476,4.476,0,0,0-.743-2.791,2.609,2.609,0,0,0-2.193-.954,2.568,2.568,0,0,0-2.162.94A4.526,4.526,0,0,0,85.939,95.175Zm8.728,9.149a3.512,3.512,0,0,1-1.354-.22v-1.187a4.279,4.279,0,0,0,1.2.176,1.257,1.257,0,0,0,1.006-.374,1.713,1.713,0,0,0,.321-1.138V90.367h1.459v11.109Q97.295,104.324,94.667,104.324Zm1.046-16.567a.969.969,0,0,1,.246-.734.911.911,0,0,1,1.222,0,.951.951,0,0,1,.255.729.966.966,0,0,1-.255.734.893.893,0,0,1-1.222,0A.987.987,0,0,1,95.713,87.757Zm8.745,12.419a4.426,4.426,0,0,1-3.371-1.3,5.036,5.036,0,0,1-1.235-3.612,5.585,5.585,0,0,1,1.147-3.7,3.81,3.81,0,0,1,3.081-1.371,3.633,3.633,0,0,1,2.865,1.191A4.564,4.564,0,0,1,108,94.524v.923h-6.636a3.818,3.818,0,0,0,.857,2.575,2.964,2.964,0,0,0,2.29.879,7.759,7.759,0,0,0,3.076-.65v1.3a7.721,7.721,0,0,1-1.463.479A8.224,8.224,0,0,1,104.458,100.176Zm-.4-8.763a2.383,2.383,0,0,0-1.85.756,3.484,3.484,0,0,0-.813,2.092h5.036a3.208,3.208,0,0,0-.615-2.114A2.165,2.165,0,0,0,104.063,91.413Zm10.274,8.763a4.111,4.111,0,0,1-3.239-1.288,5.3,5.3,0,0,1-1.147-3.643,5.46,5.46,0,0,1,1.165-3.735,4.193,4.193,0,0,1,3.318-1.318,6.584,6.584,0,0,1,1.389.149,4.575,4.575,0,0,1,1.09.352l-.448,1.239a6.86,6.86,0,0,0-1.055-.321,4.709,4.709,0,0,0-1.011-.127q-2.936,0-2.936,3.744a4.458,4.458,0,0,0,.716,2.725,2.492,2.492,0,0,0,2.123.949,6.49,6.49,0,0,0,2.47-.519v1.292A5.264,5.264,0,0,1,114.337,100.176Zm7.831-1.2a4.766,4.766,0,0,0,.747-.057,4.836,4.836,0,0,0,.571-.119v1.116a2.667,2.667,0,0,1-.7.189,5.247,5.247,0,0,1-.831.075q-2.795,0-2.795-2.944V91.5h-1.38v-.7l1.38-.606.615-2.057h.844v2.232h2.795V91.5h-2.795V97.17a1.95,1.95,0,0,0,.413,1.336A1.438,1.438,0,0,0,122.168,98.972ZM-.105,130.384a2.947,2.947,0,0,1-1.3-.237v-1.274a4.775,4.775,0,0,0,1.3.176,1.647,1.647,0,0,0,1.323-.527A2.271,2.271,0,0,0,1.67,127V114.15H3.164v12.727a3.686,3.686,0,0,1-.844,2.588A3.129,3.129,0,0,1-.105,130.384Zm7.831-13.017v6.249a2.514,2.514,0,0,0,.536,1.758,2.184,2.184,0,0,0,1.679.58,2.739,2.739,0,0,0,2.21-.826,4.168,4.168,0,0,0,.7-2.7v-5.062h1.459V127H13.1l-.211-1.292h-.079a2.908,2.908,0,0,1-1.244,1.09,4.18,4.18,0,0,1-1.815.378,3.682,3.682,0,0,1-2.632-.835,3.554,3.554,0,0,1-.875-2.672v-6.3Zm15.891,7a2.413,2.413,0,0,1-1,2.074,4.71,4.71,0,0,1-2.812.729,6.116,6.116,0,0,1-2.988-.606v-1.354a7.227,7.227,0,0,0,1.49.554,6.221,6.221,0,0,0,1.534.2,3.478,3.478,0,0,0,1.758-.365,1.256,1.256,0,0,0,.127-2.074,7.673,7.673,0,0,0-1.9-.945,10.318,10.318,0,0,1-1.912-.875,2.611,2.611,0,0,1-.844-.848,2.212,2.212,0,0,1-.277-1.134,2.161,2.161,0,0,1,.958-1.859,4.464,4.464,0,0,1,2.628-.681,7.689,7.689,0,0,1,3.041.633l-.519,1.187a6.98,6.98,0,0,0-2.628-.6,3.023,3.023,0,0,0-1.564.325,1.006,1.006,0,0,0-.527.9,1.092,1.092,0,0,0,.2.659,1.952,1.952,0,0,0,.637.519,14.24,14.24,0,0,0,1.688.712,6.3,6.3,0,0,1,2.316,1.257A2.216,2.216,0,0,1,23.616,124.372Zm5.484,1.6a4.766,4.766,0,0,0,.747-.057,4.836,4.836,0,0,0,.571-.119v1.116a2.667,2.667,0,0,1-.7.189,5.247,5.247,0,0,1-.831.075q-2.795,0-2.795-2.944V118.5h-1.38v-.7l1.38-.606.615-2.057h.844v2.232h2.795V118.5H27.554v5.669a1.95,1.95,0,0,0,.413,1.336A1.438,1.438,0,0,0,29.1,125.972ZM33.8,127H32.344v-9.633H33.8Zm-1.582-12.243a.969.969,0,0,1,.246-.734.911.911,0,0,1,1.222,0,.951.951,0,0,1,.255.729.966.966,0,0,1-.255.734.893.893,0,0,1-1.222,0A.987.987,0,0,1,32.221,114.757ZM43.488,127v-6.231a2.514,2.514,0,0,0-.536-1.758,2.184,2.184,0,0,0-1.679-.58,2.769,2.769,0,0,0-2.215.817,4.127,4.127,0,0,0-.7,2.7V127H36.9v-9.633h1.187l.237,1.318h.07a2.979,2.979,0,0,1,1.257-1.1,4.084,4.084,0,0,1,1.8-.391,3.659,3.659,0,0,1,2.619.839,3.572,3.572,0,0,1,.879,2.685V127Zm8.525.176a4.426,4.426,0,0,1-3.371-1.3,5.036,5.036,0,0,1-1.235-3.612,5.585,5.585,0,0,1,1.147-3.7,3.81,3.81,0,0,1,3.081-1.371,3.633,3.633,0,0,1,2.865,1.191,4.564,4.564,0,0,1,1.055,3.142v.923H48.92a3.818,3.818,0,0,0,.857,2.575,2.964,2.964,0,0,0,2.29.879,7.759,7.759,0,0,0,3.076-.65v1.3a7.721,7.721,0,0,1-1.463.479A8.224,8.224,0,0,1,52.014,127.176Zm-.4-8.763a2.383,2.383,0,0,0-1.85.756,3.484,3.484,0,0,0-.813,2.092h5.036a3.208,3.208,0,0,0-.615-2.114A2.165,2.165,0,0,0,51.618,118.413ZM68.44,115.3a4.2,4.2,0,0,0-3.344,1.411,5.69,5.69,0,0,0-1.226,3.863,5.8,5.8,0,0,0,1.182,3.9,4.2,4.2,0,0,0,3.371,1.375,11.508,11.508,0,0,0,3.067-.483v1.31a9.446,9.446,0,0,1-3.3.5,5.576,5.576,0,0,1-4.381-1.723,7.094,7.094,0,0,1-1.542-4.9,7.727,7.727,0,0,1,.743-3.48,5.332,5.332,0,0,1,2.145-2.3,6.491,6.491,0,0,1,3.3-.809,7.963,7.963,0,0,1,3.533.738l-.633,1.283A6.81,6.81,0,0,0,68.44,115.3ZM80,127l-.29-1.371h-.07a4.053,4.053,0,0,1-1.437,1.226,4.38,4.38,0,0,1-1.789.321,3.217,3.217,0,0,1-2.246-.738,2.693,2.693,0,0,1-.813-2.1q0-2.918,4.667-3.059l1.635-.053v-.6a2.442,2.442,0,0,0-.488-1.674,2.006,2.006,0,0,0-1.56-.541,6.357,6.357,0,0,0-2.725.738l-.448-1.116a6.856,6.856,0,0,1,1.56-.606,6.757,6.757,0,0,1,1.7-.22,3.669,3.669,0,0,1,2.553.765,3.192,3.192,0,0,1,.831,2.452V127Zm-3.3-1.028a2.961,2.961,0,0,0,2.14-.747,2.764,2.764,0,0,0,.778-2.092v-.87l-1.459.062a5.307,5.307,0,0,0-2.509.541,1.63,1.63,0,0,0-.769,1.49,1.5,1.5,0,0,0,.479,1.2A1.988,1.988,0,0,0,76.7,125.972Zm11.777-8.78a5.709,5.709,0,0,1,1.151.105l-.2,1.354a4.97,4.97,0,0,0-1.055-.132,2.567,2.567,0,0,0-2,.949,3.461,3.461,0,0,0-.831,2.364V127H84.085v-9.633h1.2l.167,1.784h.07a4.234,4.234,0,0,1,1.292-1.45A2.908,2.908,0,0,1,88.479,117.191Zm7.348,0a5.709,5.709,0,0,1,1.151.105l-.2,1.354a4.97,4.97,0,0,0-1.055-.132,2.567,2.567,0,0,0-2,.949,3.461,3.461,0,0,0-.831,2.364V127H91.433v-9.633h1.2l.167,1.784h.07a4.234,4.234,0,0,1,1.292-1.45A2.908,2.908,0,0,1,95.827,117.191Zm4.482,7.717.132.2q-.229.879-.659,2.043t-.9,2.167h-1.1q.237-.914.523-2.259t.4-2.153ZM112.043,127h-1.494V115.478h-4.069V114.15h9.633v1.327h-4.069Zm12.841-4.825a5.314,5.314,0,0,1-1.187,3.678,4.179,4.179,0,0,1-3.278,1.323,4.342,4.342,0,0,1-2.294-.606,4,4,0,0,1-1.547-1.74,6.065,6.065,0,0,1-.545-2.654,5.306,5.306,0,0,1,1.178-3.669,4.165,4.165,0,0,1,3.27-1.314,4.075,4.075,0,0,1,3.212,1.345A5.291,5.291,0,0,1,124.884,122.175Zm-7.339,0a4.572,4.572,0,0,0,.738,2.813,2.93,2.93,0,0,0,4.346,0,4.549,4.549,0,0,0,.743-2.817,4.476,4.476,0,0,0-.743-2.791,2.609,2.609,0,0,0-2.193-.954,2.568,2.568,0,0,0-2.162.94A4.526,4.526,0,0,0,117.545,122.175Zm14.291-4.983a5.709,5.709,0,0,1,1.151.105l-.2,1.354a4.97,4.97,0,0,0-1.055-.132,2.567,2.567,0,0,0-2,.949,3.461,3.461,0,0,0-.831,2.364V127h-1.459v-9.633h1.2l.167,1.784h.07a4.234,4.234,0,0,1,1.292-1.45A2.908,2.908,0,0,1,131.836,117.191Zm6.662,9.984a4.426,4.426,0,0,1-3.371-1.3,5.036,5.036,0,0,1-1.235-3.612,5.585,5.585,0,0,1,1.147-3.7,3.81,3.81,0,0,1,3.081-1.371,3.633,3.633,0,0,1,2.865,1.191,4.564,4.564,0,0,1,1.055,3.142v.923H135.4a3.818,3.818,0,0,0,.857,2.575,2.964,2.964,0,0,0,2.29.879,7.759,7.759,0,0,0,3.076-.65v1.3a7.721,7.721,0,0,1-1.463.479A8.224,8.224,0,0,1,138.5,127.176Zm-.4-8.763a2.383,2.383,0,0,0-1.85.756,3.484,3.484,0,0,0-.813,2.092h5.036a3.208,3.208,0,0,0-.615-2.114A2.165,2.165,0,0,0,138.1,118.413ZM145.986,127h-1.459v-9.633h1.459ZM144.4,114.757a.969.969,0,0,1,.246-.734.911.911,0,0,1,1.222,0,.951.951,0,0,1,.255.729.966.966,0,0,1-.255.734.893.893,0,0,1-1.222,0A.987.987,0,0,1,144.4,114.757Zm12.56,2.61v.923l-1.784.211a3.133,3.133,0,0,1,.633,1.925,2.848,2.848,0,0,1-.967,2.259,3.9,3.9,0,0,1-2.654.844,4.42,4.42,0,0,1-.809-.07,1.436,1.436,0,0,0-.932,1.239.63.63,0,0,0,.325.584,2.376,2.376,0,0,0,1.116.189H153.6a3.818,3.818,0,0,1,2.4.659,2.29,2.29,0,0,1,.839,1.916,2.735,2.735,0,0,1-1.283,2.439,6.868,6.868,0,0,1-3.744.839,5.115,5.115,0,0,1-2.914-.7,2.27,2.27,0,0,1-1.024-1.986,2.231,2.231,0,0,1,.563-1.521,2.864,2.864,0,0,1,1.582-.87,1.526,1.526,0,0,1-.62-.519,1.372,1.372,0,0,1-.25-.817,1.551,1.551,0,0,1,.281-.923,2.957,2.957,0,0,1,.888-.765,2.6,2.6,0,0,1-1.217-1.046,3.073,3.073,0,0,1-.47-1.687,3.117,3.117,0,0,1,.949-2.439,3.875,3.875,0,0,1,2.689-.857,4.891,4.891,0,0,1,1.362.176Zm-7.682,11.25a1.307,1.307,0,0,0,.659,1.187,3.638,3.638,0,0,0,1.89.4,5.273,5.273,0,0,0,2.72-.549,1.682,1.682,0,0,0,.883-1.49,1.179,1.179,0,0,0-.483-1.085,3.754,3.754,0,0,0-1.819-.3h-1.749a2.3,2.3,0,0,0-1.547.475A1.7,1.7,0,0,0,149.282,128.617Zm.791-8.165a1.961,1.961,0,0,0,.571,1.529,2.281,2.281,0,0,0,1.591.519,1.861,1.861,0,0,0,2.136-2.074,1.915,1.915,0,0,0-2.162-2.171,2.141,2.141,0,0,0-1.582.554A2.23,2.23,0,0,0,150.073,120.452ZM165.533,127v-6.231a2.514,2.514,0,0,0-.536-1.758,2.184,2.184,0,0,0-1.679-.58,2.751,2.751,0,0,0-2.219.826,4.184,4.184,0,0,0-.7,2.707V127h-1.459V113.324H160.4v4.14a9.02,9.02,0,0,1-.07,1.239h.088a2.976,2.976,0,0,1,1.226-1.094,3.986,3.986,0,0,1,1.815-.4,3.717,3.717,0,0,1,2.65.839,3.535,3.535,0,0,1,.883,2.667V127Zm13.307,0h-1.494V115.478h-4.069V114.15h9.633v1.327H178.84Zm7.242,0h-1.459v-9.633h1.459ZM184.5,114.757a.969.969,0,0,1,.246-.734.911.911,0,0,1,1.222,0,.951.951,0,0,1,.255.729.966.966,0,0,1-.255.734.893.893,0,0,1-1.222,0A.987.987,0,0,1,184.5,114.757ZM190.635,127h-1.459V113.324h1.459Zm4.553,0h-1.459V113.324h1.459Zm7.163.176a4.426,4.426,0,0,1-3.371-1.3,5.036,5.036,0,0,1-1.235-3.612,5.585,5.585,0,0,1,1.147-3.7,3.81,3.81,0,0,1,3.081-1.371,3.633,3.633,0,0,1,2.865,1.191,4.564,4.564,0,0,1,1.055,3.142v.923h-6.636a3.818,3.818,0,0,0,.857,2.575,2.964,2.964,0,0,0,2.29.879,7.759,7.759,0,0,0,3.076-.65v1.3a7.721,7.721,0,0,1-1.463.479A8.224,8.224,0,0,1,202.351,127.176Zm-.4-8.763a2.383,2.383,0,0,0-1.85.756,3.484,3.484,0,0,0-.813,2.092h5.036a3.208,3.208,0,0,0-.615-2.114A2.165,2.165,0,0,0,201.955,118.413Zm10.819-1.222a5.709,5.709,0,0,1,1.151.105l-.2,1.354a4.97,4.97,0,0,0-1.055-.132,2.567,2.567,0,0,0-2,.949,3.461,3.461,0,0,0-.831,2.364V127H208.38v-9.633h1.2l.167,1.784h.07a4.234,4.234,0,0,1,1.292-1.45A2.908,2.908,0,0,1,212.774,117.191ZM3.639,143.708a2.281,2.281,0,0,0,.316,1.156,7.009,7.009,0,0,0,1.081,1.323,5.724,5.724,0,0,0,1.578-1.217,2.01,2.01,0,0,0,.444-1.288,1.447,1.447,0,0,0-.453-1.1,1.691,1.691,0,0,0-1.208-.426,1.872,1.872,0,0,0-1.27.422A1.423,1.423,0,0,0,3.639,143.708ZM5,152.866a4.85,4.85,0,0,0,3.516-1.354l-3.841-3.727a8.5,8.5,0,0,0-1.38.989,2.612,2.612,0,0,0-.6.839,2.551,2.551,0,0,0-.193,1.02,2.066,2.066,0,0,0,.681,1.63A2.641,2.641,0,0,0,5,152.866Zm-4.008-2.2a3.455,3.455,0,0,1,.611-2.021A6.617,6.617,0,0,1,3.8,146.872a10.529,10.529,0,0,1-1.015-1.266,4.324,4.324,0,0,1-.426-.9,2.986,2.986,0,0,1-.158-.967,2.563,2.563,0,0,1,.861-2.057,3.572,3.572,0,0,1,2.4-.738,3.233,3.233,0,0,1,2.241.734,2.605,2.605,0,0,1,.817,2.043,2.828,2.828,0,0,1-.6,1.736,6.781,6.781,0,0,1-1.978,1.613l3.577,3.437a4.246,4.246,0,0,0,.787-1.279,10.981,10.981,0,0,0,.5-1.6h1.477a8.4,8.4,0,0,1-1.8,3.814L13.1,154H11.092l-1.626-1.564a6.754,6.754,0,0,1-2.109,1.336,6.732,6.732,0,0,1-2.391.4,4.247,4.247,0,0,1-2.931-.932A3.278,3.278,0,0,1,.993,150.669ZM25.084,142.3a4.2,4.2,0,0,0-3.344,1.411,5.69,5.69,0,0,0-1.226,3.863,5.8,5.8,0,0,0,1.182,3.9,4.2,4.2,0,0,0,3.371,1.375,11.508,11.508,0,0,0,3.067-.483v1.31a9.446,9.446,0,0,1-3.3.5,5.576,5.576,0,0,1-4.381-1.723,7.094,7.094,0,0,1-1.542-4.9,7.727,7.727,0,0,1,.743-3.48,5.332,5.332,0,0,1,2.145-2.3,6.491,6.491,0,0,1,3.3-.809,7.963,7.963,0,0,1,3.533.738L28,142.987A6.81,6.81,0,0,0,25.084,142.3Zm13.948,6.873a5.314,5.314,0,0,1-1.187,3.678,4.179,4.179,0,0,1-3.278,1.323,4.342,4.342,0,0,1-2.294-.606,4,4,0,0,1-1.547-1.74,6.065,6.065,0,0,1-.545-2.654,5.306,5.306,0,0,1,1.178-3.669,4.165,4.165,0,0,1,3.27-1.314,4.075,4.075,0,0,1,3.212,1.345A5.291,5.291,0,0,1,39.032,149.175Zm-7.339,0a4.572,4.572,0,0,0,.738,2.813,2.93,2.93,0,0,0,4.346,0,4.549,4.549,0,0,0,.743-2.817,4.476,4.476,0,0,0-.743-2.791,2.609,2.609,0,0,0-2.193-.954,2.568,2.568,0,0,0-2.162.94A4.526,4.526,0,0,0,31.693,149.175ZM43.049,154H41.59V140.324h1.459Zm4.553,0H46.143v-9.633H47.6ZM46.02,141.757a.969.969,0,0,1,.246-.734.911.911,0,0,1,1.222,0,.951.951,0,0,1,.255.729.966.966,0,0,1-.255.734.893.893,0,0,1-1.222,0A.987.987,0,0,1,46.02,141.757ZM57.287,154v-6.231a2.514,2.514,0,0,0-.536-1.758,2.184,2.184,0,0,0-1.679-.58,2.769,2.769,0,0,0-2.215.817,4.127,4.127,0,0,0-.7,2.7V154H50.7v-9.633h1.187l.237,1.318h.07a2.979,2.979,0,0,1,1.257-1.1,4.084,4.084,0,0,1,1.8-.391,3.659,3.659,0,0,1,2.619.839,3.572,3.572,0,0,1,.879,2.685V154Zm9.352,0V141.15h1.494v11.5H73.8V154Zm17.438-4.825a5.314,5.314,0,0,1-1.187,3.678,4.179,4.179,0,0,1-3.278,1.323,4.342,4.342,0,0,1-2.294-.606,4,4,0,0,1-1.547-1.74,6.065,6.065,0,0,1-.545-2.654,5.306,5.306,0,0,1,1.178-3.669,4.165,4.165,0,0,1,3.27-1.314,4.075,4.075,0,0,1,3.212,1.345A5.291,5.291,0,0,1,84.076,149.175Zm-7.339,0a4.572,4.572,0,0,0,.738,2.813,2.93,2.93,0,0,0,4.346,0,4.549,4.549,0,0,0,.743-2.817,4.476,4.476,0,0,0-.743-2.791,2.609,2.609,0,0,0-2.193-.954,2.568,2.568,0,0,0-2.162.94A4.526,4.526,0,0,0,76.737,149.175ZM90.976,145.5H88.523V154H87.064v-8.5H85.342v-.659l1.723-.527v-.536q0-3.551,3.1-3.551a6.384,6.384,0,0,1,1.793.308l-.378,1.169a4.826,4.826,0,0,0-1.441-.272,1.4,1.4,0,0,0-1.222.549,3.066,3.066,0,0,0-.4,1.762v.624h2.452Zm4.869,7.471a4.766,4.766,0,0,0,.747-.057,4.836,4.836,0,0,0,.571-.119v1.116a2.667,2.667,0,0,1-.7.189,5.247,5.247,0,0,1-.831.075q-2.795,0-2.795-2.944V145.5h-1.38v-.7l1.38-.606.615-2.057H94.3v2.232h2.795V145.5H94.3v5.669a1.95,1.95,0,0,0,.413,1.336A1.438,1.438,0,0,0,95.845,152.972Zm4.614-8.6v6.249a2.514,2.514,0,0,0,.536,1.758,2.184,2.184,0,0,0,1.679.58,2.739,2.739,0,0,0,2.21-.826,4.168,4.168,0,0,0,.7-2.7v-5.062h1.459V154h-1.2l-.211-1.292h-.079a2.908,2.908,0,0,1-1.244,1.09,4.18,4.18,0,0,1-1.815.378,3.682,3.682,0,0,1-2.632-.835,3.554,3.554,0,0,1-.875-2.672v-6.3Zm15.891,7a2.413,2.413,0,0,1-1,2.074,4.71,4.71,0,0,1-2.812.729,6.116,6.116,0,0,1-2.988-.606v-1.354a7.227,7.227,0,0,0,1.49.554,6.221,6.221,0,0,0,1.534.2,3.478,3.478,0,0,0,1.758-.365,1.256,1.256,0,0,0,.127-2.074,7.673,7.673,0,0,0-1.9-.945,10.318,10.318,0,0,1-1.912-.875,2.611,2.611,0,0,1-.844-.848,2.212,2.212,0,0,1-.277-1.134,2.161,2.161,0,0,1,.958-1.859,4.464,4.464,0,0,1,2.628-.681,7.689,7.689,0,0,1,3.041.633l-.519,1.187a6.98,6.98,0,0,0-2.628-.6,3.023,3.023,0,0,0-1.564.325,1.006,1.006,0,0,0-.527.9,1.092,1.092,0,0,0,.2.659,1.952,1.952,0,0,0,.637.519,14.24,14.24,0,0,0,1.688.712,6.3,6.3,0,0,1,2.316,1.257A2.216,2.216,0,0,1,116.35,151.372ZM11.47,168.15v8.314a4.529,4.529,0,0,1-1.327,3.454A5.09,5.09,0,0,1,6.5,181.176,4.865,4.865,0,0,1,2.9,179.91a4.694,4.694,0,0,1-1.27-3.48V168.15H3.129v8.385A3.3,3.3,0,0,0,4.008,179a3.547,3.547,0,0,0,2.584.861A3.419,3.419,0,0,0,9.1,179a3.33,3.33,0,0,0,.879-2.483V168.15ZM23.423,181h-1.7l-3.454-5.651L14.757,181H13.175l4.271-6.715-3.981-6.135h1.652l3.19,5.089,3.217-5.089h1.591l-3.981,6.082Zm11.171-12.85L29.8,181H28.345l4.79-12.85Zm16.33,0v8.314a4.529,4.529,0,0,1-1.327,3.454,5.09,5.09,0,0,1-3.647,1.257,4.865,4.865,0,0,1-3.59-1.266,4.694,4.694,0,0,1-1.27-3.48V168.15h1.494v8.385a3.3,3.3,0,0,0,.879,2.47,3.547,3.547,0,0,0,2.584.861,3.419,3.419,0,0,0,2.5-.866,3.33,3.33,0,0,0,.879-2.483V168.15Zm3.4,12.85V168.15h1.494V181Zm19.951-6.548a6.487,6.487,0,0,1-1.727,4.865A6.833,6.833,0,0,1,67.579,181H64.02V168.15h3.938a5.768,5.768,0,0,1,6.319,6.3Zm-1.582.053a5.173,5.173,0,0,0-1.261-3.788,5.054,5.054,0,0,0-3.749-1.274H65.514v10.266h1.819a5.532,5.532,0,0,0,4.017-1.314A5.2,5.2,0,0,0,72.694,174.5Zm8.3,6.671a4.426,4.426,0,0,1-3.371-1.3,5.036,5.036,0,0,1-1.235-3.612,5.585,5.585,0,0,1,1.147-3.7,3.81,3.81,0,0,1,3.081-1.371,3.633,3.633,0,0,1,2.865,1.191,4.564,4.564,0,0,1,1.055,3.142v.923H77.9a3.818,3.818,0,0,0,.857,2.575,2.964,2.964,0,0,0,2.29.879,7.759,7.759,0,0,0,3.076-.65v1.3a7.721,7.721,0,0,1-1.463.479A8.224,8.224,0,0,1,80.991,181.176Zm-.4-8.763a2.383,2.383,0,0,0-1.85.756,3.484,3.484,0,0,0-.813,2.092h5.036a3.208,3.208,0,0,0-.615-2.114A2.165,2.165,0,0,0,80.6,172.413Zm12.639,5.959a2.413,2.413,0,0,1-1,2.074,4.71,4.71,0,0,1-2.812.729,6.116,6.116,0,0,1-2.988-.606v-1.354a7.227,7.227,0,0,0,1.49.554,6.221,6.221,0,0,0,1.534.2,3.478,3.478,0,0,0,1.758-.365,1.256,1.256,0,0,0,.127-2.074,7.673,7.673,0,0,0-1.9-.945,10.318,10.318,0,0,1-1.912-.875,2.611,2.611,0,0,1-.844-.848,2.212,2.212,0,0,1-.277-1.134,2.161,2.161,0,0,1,.958-1.859,4.464,4.464,0,0,1,2.628-.681,7.689,7.689,0,0,1,3.041.633l-.519,1.187a6.98,6.98,0,0,0-2.628-.6,3.023,3.023,0,0,0-1.564.325,1.006,1.006,0,0,0-.527.9,1.092,1.092,0,0,0,.2.659,1.952,1.952,0,0,0,.637.519,14.24,14.24,0,0,0,1.688.712,6.3,6.3,0,0,1,2.316,1.257A2.216,2.216,0,0,1,93.234,178.372ZM97.066,181H95.607v-9.633h1.459Zm-1.582-12.243a.969.969,0,0,1,.246-.734.911.911,0,0,1,1.222,0,.951.951,0,0,1,.255.729.966.966,0,0,1-.255.734.893.893,0,0,1-1.222,0A.987.987,0,0,1,95.484,168.757Zm12.56,2.61v.923l-1.784.211a3.133,3.133,0,0,1,.633,1.925,2.848,2.848,0,0,1-.967,2.259,3.9,3.9,0,0,1-2.654.844,4.42,4.42,0,0,1-.809-.07,1.436,1.436,0,0,0-.932,1.239.63.63,0,0,0,.325.584,2.376,2.376,0,0,0,1.116.189h1.705a3.818,3.818,0,0,1,2.4.659,2.29,2.29,0,0,1,.839,1.916,2.735,2.735,0,0,1-1.283,2.439,6.868,6.868,0,0,1-3.744.839,5.115,5.115,0,0,1-2.914-.7,2.27,2.27,0,0,1-1.024-1.986,2.231,2.231,0,0,1,.563-1.521,2.864,2.864,0,0,1,1.582-.87,1.526,1.526,0,0,1-.62-.519,1.372,1.372,0,0,1-.25-.817,1.551,1.551,0,0,1,.281-.923,2.957,2.957,0,0,1,.888-.765,2.6,2.6,0,0,1-1.217-1.046,3.073,3.073,0,0,1-.47-1.687,3.117,3.117,0,0,1,.949-2.439,3.875,3.875,0,0,1,2.689-.857,4.891,4.891,0,0,1,1.362.176Zm-7.682,11.25a1.307,1.307,0,0,0,.659,1.187,3.638,3.638,0,0,0,1.89.4,5.273,5.273,0,0,0,2.72-.549,1.682,1.682,0,0,0,.883-1.49,1.179,1.179,0,0,0-.483-1.085,3.754,3.754,0,0,0-1.819-.3h-1.749a2.3,2.3,0,0,0-1.547.475A1.7,1.7,0,0,0,100.362,182.617Zm.791-8.165a1.961,1.961,0,0,0,.571,1.529,2.281,2.281,0,0,0,1.591.519,1.861,1.861,0,0,0,2.136-2.074,1.915,1.915,0,0,0-2.162-2.171,2.141,2.141,0,0,0-1.582.554A2.23,2.23,0,0,0,101.153,174.452ZM116.613,181v-6.231a2.514,2.514,0,0,0-.536-1.758,2.184,2.184,0,0,0-1.679-.58,2.769,2.769,0,0,0-2.215.817,4.127,4.127,0,0,0-.7,2.7V181h-1.459v-9.633h1.187l.237,1.318h.07a2.979,2.979,0,0,1,1.257-1.1,4.084,4.084,0,0,1,1.8-.391,3.659,3.659,0,0,1,2.619.839,3.572,3.572,0,0,1,.879,2.685V181Zm8.525.176a4.426,4.426,0,0,1-3.371-1.3,5.036,5.036,0,0,1-1.235-3.612,5.585,5.585,0,0,1,1.147-3.7,3.81,3.81,0,0,1,3.081-1.371,3.633,3.633,0,0,1,2.865,1.191,4.564,4.564,0,0,1,1.055,3.142v.923h-6.636a3.818,3.818,0,0,0,.857,2.575,2.964,2.964,0,0,0,2.29.879,7.759,7.759,0,0,0,3.076-.65v1.3a7.721,7.721,0,0,1-1.463.479A8.224,8.224,0,0,1,125.139,181.176Zm-.4-8.763a2.383,2.383,0,0,0-1.85.756,3.484,3.484,0,0,0-.813,2.092h5.036a3.208,3.208,0,0,0-.615-2.114A2.165,2.165,0,0,0,124.743,172.413Zm10.819-1.222a5.709,5.709,0,0,1,1.151.105l-.2,1.354a4.97,4.97,0,0,0-1.055-.132,2.567,2.567,0,0,0-2,.949,3.461,3.461,0,0,0-.831,2.364V181h-1.459v-9.633h1.2l.167,1.784h.07a4.234,4.234,0,0,1,1.292-1.45A2.908,2.908,0,0,1,135.563,171.191Zm9.167,7.181a2.413,2.413,0,0,1-1,2.074,4.71,4.71,0,0,1-2.812.729,6.116,6.116,0,0,1-2.988-.606v-1.354a7.227,7.227,0,0,0,1.49.554,6.221,6.221,0,0,0,1.534.2,3.478,3.478,0,0,0,1.758-.365,1.256,1.256,0,0,0,.127-2.074,7.673,7.673,0,0,0-1.9-.945,10.318,10.318,0,0,1-1.912-.875,2.611,2.611,0,0,1-.844-.848,2.212,2.212,0,0,1-.277-1.134,2.161,2.161,0,0,1,.958-1.859,4.464,4.464,0,0,1,2.628-.681,7.689,7.689,0,0,1,3.041.633l-.519,1.187a6.98,6.98,0,0,0-2.628-.6,3.023,3.023,0,0,0-1.564.325,1.006,1.006,0,0,0-.527.9,1.092,1.092,0,0,0,.2.659,1.952,1.952,0,0,0,.637.519,14.24,14.24,0,0,0,1.688.712,6.3,6.3,0,0,1,2.316,1.257A2.216,2.216,0,0,1,144.729,178.372ZM7.453,208,3.094,196.609h-.07q.123,1.354.123,3.217V208H1.767V195.15h2.25l4.069,10.6h.07l4.1-10.6h2.232V208H13v-8.279q0-1.424.123-3.094h-.07L8.657,208Zm11.8,0H17.8v-9.633h1.459Zm-1.582-12.243a.969.969,0,0,1,.246-.734.911.911,0,0,1,1.222,0,.951.951,0,0,1,.255.729.966.966,0,0,1-.255.734.893.893,0,0,1-1.222,0A.987.987,0,0,1,17.675,195.757Zm9.07,2.435a5.709,5.709,0,0,1,1.151.105l-.2,1.354a4.97,4.97,0,0,0-1.055-.132,2.567,2.567,0,0,0-2,.949,3.461,3.461,0,0,0-.831,2.364V208H22.351v-9.633h1.2l.167,1.784h.07a4.234,4.234,0,0,1,1.292-1.45A2.908,2.908,0,0,1,26.745,198.191Zm10.907,4.983a5.314,5.314,0,0,1-1.187,3.678,4.179,4.179,0,0,1-3.278,1.323,4.342,4.342,0,0,1-2.294-.606,4,4,0,0,1-1.547-1.74,6.065,6.065,0,0,1-.545-2.654,5.306,5.306,0,0,1,1.178-3.669,4.165,4.165,0,0,1,3.27-1.314,4.075,4.075,0,0,1,3.212,1.345A5.291,5.291,0,0,1,37.652,203.175Zm-7.339,0a4.572,4.572,0,0,0,.738,2.813,2.93,2.93,0,0,0,4.346,0,4.549,4.549,0,0,0,.743-2.817,4.476,4.476,0,0,0-.743-2.791,2.609,2.609,0,0,0-2.193-.954,2.568,2.568,0,0,0-2.162.94A4.526,4.526,0,0,0,30.313,203.175Zm11.426,2.733.132.2q-.229.879-.659,2.043t-.9,2.167h-1.1q.237-.914.523-2.259t.4-2.153ZM57.595,208,56,203.913h-5.15L49.263,208H47.751l5.08-12.9h1.257L59.142,208Zm-2.065-5.432-1.494-3.981q-.29-.756-.6-1.854a16.653,16.653,0,0,1-.554,1.854l-1.512,3.981Zm11.716,4.14h-.079a3.428,3.428,0,0,1-3.023,1.468,3.577,3.577,0,0,1-2.94-1.292,5.687,5.687,0,0,1-1.05-3.674,5.783,5.783,0,0,1,1.055-3.7,3.549,3.549,0,0,1,2.936-1.318,3.5,3.5,0,0,1,3.006,1.424h.114l-.062-.694-.035-.677v-3.92h1.459V208H67.438Zm-2.918.246a2.656,2.656,0,0,0,2.167-.813,4.108,4.108,0,0,0,.672-2.624v-.308a4.834,4.834,0,0,0-.681-2.922,2.587,2.587,0,0,0-2.175-.875,2.233,2.233,0,0,0-1.964,1,4.96,4.96,0,0,0-.681,2.817,4.755,4.755,0,0,0,.677,2.786A2.292,2.292,0,0,0,64.327,206.954Zm15.706-3.779a5.314,5.314,0,0,1-1.187,3.678,4.179,4.179,0,0,1-3.278,1.323,4.342,4.342,0,0,1-2.294-.606,4,4,0,0,1-1.547-1.74,6.065,6.065,0,0,1-.545-2.654,5.306,5.306,0,0,1,1.178-3.669,4.165,4.165,0,0,1,3.27-1.314,4.075,4.075,0,0,1,3.212,1.345A5.291,5.291,0,0,1,80.033,203.175Zm-7.339,0a4.572,4.572,0,0,0,.738,2.813,2.93,2.93,0,0,0,4.346,0,4.549,4.549,0,0,0,.743-2.817,4.476,4.476,0,0,0-.743-2.791,2.609,2.609,0,0,0-2.193-.954,2.568,2.568,0,0,0-2.162.94A4.526,4.526,0,0,0,72.694,203.175Zm14.379-4.966a3.581,3.581,0,0,1,2.949,1.3,6.941,6.941,0,0,1-.009,7.356,3.566,3.566,0,0,1-2.94,1.314,4.169,4.169,0,0,1-1.718-.347,3.231,3.231,0,0,1-1.305-1.068h-.105L83.637,208H82.591V194.324H84.05v3.322q0,1.116-.07,2h.07A3.463,3.463,0,0,1,87.073,198.209Zm-.211,1.222a2.547,2.547,0,0,0-2.153.857,6.612,6.612,0,0,0,.018,5.792,2.574,2.574,0,0,0,2.171.875,2.25,2.25,0,0,0,2-.98,5.037,5.037,0,0,0,.659-2.817,4.84,4.84,0,0,0-.659-2.8A2.336,2.336,0,0,0,86.862,199.431Zm10.828,8.745a4.426,4.426,0,0,1-3.371-1.3,5.036,5.036,0,0,1-1.235-3.612,5.585,5.585,0,0,1,1.147-3.7,3.81,3.81,0,0,1,3.081-1.371,3.633,3.633,0,0,1,2.865,1.191,4.564,4.564,0,0,1,1.055,3.142v.923H94.6a3.818,3.818,0,0,0,.857,2.575,2.964,2.964,0,0,0,2.29.879,7.759,7.759,0,0,0,3.076-.65v1.3a7.721,7.721,0,0,1-1.463.479A8.224,8.224,0,0,1,97.69,208.176Zm-.4-8.763a2.383,2.383,0,0,0-1.85.756,3.484,3.484,0,0,0-.813,2.092h5.036a3.208,3.208,0,0,0-.615-2.114A2.165,2.165,0,0,0,97.295,199.413Zm16.822-3.111a4.2,4.2,0,0,0-3.344,1.411,5.69,5.69,0,0,0-1.226,3.863,5.8,5.8,0,0,0,1.182,3.9,4.2,4.2,0,0,0,3.371,1.375,11.508,11.508,0,0,0,3.067-.483v1.31a9.446,9.446,0,0,1-3.3.5,5.576,5.576,0,0,1-4.381-1.723,7.094,7.094,0,0,1-1.542-4.9,7.727,7.727,0,0,1,.743-3.48,5.332,5.332,0,0,1,2.145-2.3,6.491,6.491,0,0,1,3.3-.809,7.963,7.963,0,0,1,3.533.738l-.633,1.283A6.81,6.81,0,0,0,114.117,196.3Zm11,0a4.2,4.2,0,0,0-3.344,1.411,5.69,5.69,0,0,0-1.226,3.863,5.8,5.8,0,0,0,1.182,3.9,4.2,4.2,0,0,0,3.371,1.375,11.508,11.508,0,0,0,3.067-.483v1.31a9.446,9.446,0,0,1-3.3.5,5.576,5.576,0,0,1-4.381-1.723,7.094,7.094,0,0,1-1.542-4.9,7.727,7.727,0,0,1,.743-3.48,5.332,5.332,0,0,1,2.145-2.3,6.491,6.491,0,0,1,3.3-.809,7.963,7.963,0,0,1,3.533.738l-.633,1.283A6.81,6.81,0,0,0,125.112,196.3Zm7.163,9.606.132.2q-.229.879-.659,2.043t-.9,2.167h-1.1q.237-.914.523-2.259t.4-2.153ZM148.131,208l-1.6-4.087h-5.15L139.8,208h-1.512l5.08-12.9h1.257l5.054,12.9Zm-2.065-5.432-1.494-3.981q-.29-.756-.6-1.854a16.653,16.653,0,0,1-.554,1.854l-1.512,3.981Zm11.716,4.14H157.7a3.428,3.428,0,0,1-3.023,1.468,3.577,3.577,0,0,1-2.94-1.292,5.687,5.687,0,0,1-1.05-3.674,5.783,5.783,0,0,1,1.055-3.7,3.549,3.549,0,0,1,2.936-1.318,3.5,3.5,0,0,1,3.006,1.424h.114l-.062-.694-.035-.677v-3.92h1.459V208h-1.187Zm-2.918.246a2.656,2.656,0,0,0,2.167-.813,4.108,4.108,0,0,0,.672-2.624v-.308a4.834,4.834,0,0,0-.681-2.922,2.587,2.587,0,0,0-2.175-.875,2.233,2.233,0,0,0-1.964,1,4.96,4.96,0,0,0-.681,2.817,4.755,4.755,0,0,0,.677,2.786A2.292,2.292,0,0,0,154.863,206.954Zm15.706-3.779a5.314,5.314,0,0,1-1.187,3.678,4.179,4.179,0,0,1-3.278,1.323,4.342,4.342,0,0,1-2.294-.606,4,4,0,0,1-1.547-1.74,6.065,6.065,0,0,1-.545-2.654,5.306,5.306,0,0,1,1.178-3.669,4.165,4.165,0,0,1,3.27-1.314,4.075,4.075,0,0,1,3.212,1.345A5.291,5.291,0,0,1,170.569,203.175Zm-7.339,0a4.572,4.572,0,0,0,.738,2.813,2.93,2.93,0,0,0,4.346,0,4.549,4.549,0,0,0,.743-2.817,4.476,4.476,0,0,0-.743-2.791,2.609,2.609,0,0,0-2.193-.954,2.568,2.568,0,0,0-2.162.94A4.526,4.526,0,0,0,163.23,203.175Zm14.379-4.966a3.581,3.581,0,0,1,2.949,1.3,6.941,6.941,0,0,1-.009,7.356,3.566,3.566,0,0,1-2.94,1.314,4.169,4.169,0,0,1-1.718-.347,3.231,3.231,0,0,1-1.305-1.068h-.105L174.173,208h-1.046V194.324h1.459v3.322q0,1.116-.07,2h.07A3.463,3.463,0,0,1,177.609,198.209Zm-.211,1.222a2.547,2.547,0,0,0-2.153.857,6.612,6.612,0,0,0,.018,5.792,2.574,2.574,0,0,0,2.171.875,2.25,2.25,0,0,0,2-.98,5.037,5.037,0,0,0,.659-2.817,4.84,4.84,0,0,0-.659-2.8A2.336,2.336,0,0,0,177.4,199.431Zm10.828,8.745a4.426,4.426,0,0,1-3.371-1.3,5.036,5.036,0,0,1-1.235-3.612,5.585,5.585,0,0,1,1.147-3.7,3.81,3.81,0,0,1,3.081-1.371,3.633,3.633,0,0,1,2.865,1.191,4.564,4.564,0,0,1,1.055,3.142v.923h-6.636a3.818,3.818,0,0,0,.857,2.575,2.964,2.964,0,0,0,2.29.879,7.759,7.759,0,0,0,3.076-.65v1.3a7.721,7.721,0,0,1-1.463.479A8.224,8.224,0,0,1,188.227,208.176Zm-.4-8.763a2.383,2.383,0,0,0-1.85.756,3.484,3.484,0,0,0-.813,2.092H190.2a3.208,3.208,0,0,0-.615-2.114A2.165,2.165,0,0,0,187.831,199.413ZM207.7,208h-1.7l-3.454-5.651L199.037,208h-1.582l4.271-6.715-3.981-6.135H199.4l3.19,5.089,3.217-5.089H207.4l-3.981,6.082Zm12.094-6.548a6.487,6.487,0,0,1-1.727,4.865A6.833,6.833,0,0,1,213.1,208h-3.56V195.15h3.938a5.768,5.768,0,0,1,6.319,6.3Zm-1.582.053a5.173,5.173,0,0,0-1.261-3.788,5.054,5.054,0,0,0-3.749-1.274h-2.171v10.266h1.819a5.532,5.532,0,0,0,4.017-1.314A5.2,5.2,0,0,0,218.215,201.5Z" transform="translate(11283 -1561)"/>
    <path id="Path_528" data-name="Path 528" d="M20.106,10.035a3.747,3.747,0,0,1-1.318,3.085,5.808,5.808,0,0,1-3.753,1.072H13.7V19H11.6V6.15h3.7a5.6,5.6,0,0,1,3.608.984A3.534,3.534,0,0,1,20.106,10.035ZM13.7,12.426h1.116a4,4,0,0,0,2.373-.562,2.047,2.047,0,0,0,.756-1.758,2,2,0,0,0-.677-1.652,3.343,3.343,0,0,0-2.109-.545H13.7Zm11.074-.3h1.459a3.331,3.331,0,0,0,2.127-.545,1.977,1.977,0,0,0,.659-1.617A1.741,1.741,0,0,0,28.307,8.4a3.9,3.9,0,0,0-2.145-.475H24.773Zm0,1.74V19h-2.1V6.15H26.3a5.964,5.964,0,0,1,3.683.932,3.345,3.345,0,0,1,1.2,2.813,3.516,3.516,0,0,1-2.5,3.419L32.314,19H29.924l-3.076-5.133Zm20.813-1.31a7.029,7.029,0,0,1-1.569,4.878,5.674,5.674,0,0,1-4.443,1.74A5.713,5.713,0,0,1,35.1,17.449a7.073,7.073,0,0,1-1.56-4.909,6.963,6.963,0,0,1,1.569-4.887,5.781,5.781,0,0,1,4.478-1.705,5.664,5.664,0,0,1,4.43,1.731A7.022,7.022,0,0,1,45.586,12.558Zm-9.809,0a5.762,5.762,0,0,0,.958,3.6,3.382,3.382,0,0,0,2.839,1.226A3.376,3.376,0,0,0,42.4,16.17a5.772,5.772,0,0,0,.954-3.612,5.784,5.784,0,0,0-.945-3.586A3.34,3.34,0,0,0,39.592,7.75,3.41,3.41,0,0,0,36.74,8.972,5.706,5.706,0,0,0,35.777,12.558ZM46.72,22.586a4.1,4.1,0,0,1-1.441-.22V20.6a5.4,5.4,0,0,0,1.283.185q1.723,0,1.723-2.18V6.15h2.109V18.534a4.359,4.359,0,0,1-.936,3.01A3.491,3.491,0,0,1,46.72,22.586ZM60.993,19H53.725V6.15h7.269V7.926H55.825v3.5h4.843v1.758H55.825v4.034h5.168ZM69.237,7.768A3.462,3.462,0,0,0,66.39,9.051a5.485,5.485,0,0,0-1.037,3.542,5.522,5.522,0,0,0,1,3.577,3.523,3.523,0,0,0,2.887,1.213,7.586,7.586,0,0,0,1.582-.163q.765-.163,1.591-.417v1.8a9.645,9.645,0,0,1-3.428.571,5.479,5.479,0,0,1-4.333-1.709,7.151,7.151,0,0,1-1.512-4.891,7.9,7.9,0,0,1,.734-3.507,5.238,5.238,0,0,1,2.123-2.3,6.42,6.42,0,0,1,3.261-.8,8.092,8.092,0,0,1,3.639.826l-.756,1.749A11.285,11.285,0,0,0,70.762,8,4.956,4.956,0,0,0,69.237,7.768ZM79.617,19h-2.1V7.952H73.737V6.15H83.4v1.8H79.617Zm21.129,0H98.171L91.852,8.761h-.07l.044.571q.123,1.635.123,2.988V19H90.041V6.15H92.59l6.3,10.187h.053q-.018-.2-.07-1.472t-.053-1.982V6.15h1.925Zm11.364,0-1.283-3.568h-4.913L104.657,19h-2.215L107.25,6.1h2.285L114.343,19Zm-1.837-5.379-1.2-3.5q-.132-.352-.365-1.107t-.321-1.107a19.7,19.7,0,0,1-.694,2.364l-1.16,3.349ZM121.594,19,117.867,8.269h-.07q.149,2.391.149,4.482V19h-1.907V6.15H119l3.568,10.222h.053L126.3,6.15h2.971V19h-2.021V12.646q0-.958.048-2.5t.083-1.863h-.07L123.448,19Zm18.325,0H132.65V6.15h7.269V7.926h-5.168v3.5h4.843v1.758h-4.843v4.034h5.168ZM57.68,37.035a3.747,3.747,0,0,1-1.318,3.085,5.808,5.808,0,0,1-3.753,1.072H51.272V46h-2.1V33.15h3.7a5.6,5.6,0,0,1,3.608.984A3.534,3.534,0,0,1,57.68,37.035Zm-6.407,2.391h1.116a4,4,0,0,0,2.373-.562,2.047,2.047,0,0,0,.756-1.758,2,2,0,0,0-.677-1.652,3.343,3.343,0,0,0-2.109-.545H51.272ZM60.246,46V33.15h2.1V44.2h5.44V46Zm17.728,0L76.69,42.432H71.777L70.521,46H68.306l4.808-12.9H75.4L80.206,46Zm-1.837-5.379-1.2-3.5q-.132-.352-.365-1.107t-.321-1.107a19.7,19.7,0,0,1-.694,2.364l-1.16,3.349ZM85.084,46h-2.1V34.952H79.2v-1.8h9.659v1.8H85.084Zm7.831,0H90.832V33.15h7.251v1.775H92.915v4.017h4.843v1.784H92.915Zm18.905-6.442a7.029,7.029,0,0,1-1.569,4.878,6.594,6.594,0,0,1-8.912.013,7.073,7.073,0,0,1-1.56-4.909,6.963,6.963,0,0,1,1.569-4.887,5.781,5.781,0,0,1,4.478-1.705,5.664,5.664,0,0,1,4.43,1.731A7.022,7.022,0,0,1,111.82,39.558Zm-9.809,0a5.762,5.762,0,0,0,.958,3.6,3.9,3.9,0,0,0,5.665.013,5.772,5.772,0,0,0,.954-3.612,5.784,5.784,0,0,0-.945-3.586,3.34,3.34,0,0,0-2.817-1.222,3.41,3.41,0,0,0-2.852,1.222A5.706,5.706,0,0,0,102.012,39.558Zm14.669-.431h1.459a3.331,3.331,0,0,0,2.127-.545,1.977,1.977,0,0,0,.659-1.617,1.741,1.741,0,0,0-.712-1.564,3.9,3.9,0,0,0-2.145-.475h-1.389Zm0,1.74V46h-2.1V33.15h3.63a5.964,5.964,0,0,1,3.683.932,3.345,3.345,0,0,1,1.2,2.813,3.516,3.516,0,0,1-2.5,3.419L124.222,46h-2.391l-3.076-5.133ZM131.64,46l-3.727-10.731h-.07q.149,2.391.149,4.482V46h-1.907V33.15h2.962l3.568,10.222h.053l3.674-10.222h2.971V46h-2.021V39.646q0-.958.048-2.5t.083-1.863h-.07L133.494,46ZM109.421,66.452a6.4,6.4,0,0,1-1.767,4.865A7.1,7.1,0,0,1,102.565,73H98.971V60.15h3.973a6.573,6.573,0,0,1,4.772,1.652A6.174,6.174,0,0,1,109.421,66.452Zm-2.215.07q0-4.614-4.315-4.614h-1.819v9.325h1.494Q107.206,71.233,107.206,66.522ZM119.792,73l-1.283-3.568H113.6L112.339,73h-2.215l4.808-12.9h2.285L122.024,73Zm-1.837-5.379-1.2-3.5q-.132-.352-.365-1.107t-.321-1.107a19.7,19.7,0,0,1-.694,2.364l-1.16,3.349ZM126.9,73h-2.1V61.952h-3.779v-1.8h9.659v1.8H126.9Zm13.017,0H132.65V60.15h7.269v1.775h-5.168v3.5h4.843v1.758h-4.843v4.034h5.168ZM65.405,100H63.3V88.952H59.525v-1.8h9.659v1.8H65.405Zm5.748,0V87.15h2.1V100ZM82.2,100,78.475,89.269H78.4q.149,2.391.149,4.482V100H76.646V87.15h2.962l3.568,10.222h.053L86.9,87.15h2.971V100H87.853V93.646q0-.958.048-2.5t.083-1.863h-.07L84.056,100Zm18.325,0H93.258V87.15h7.269v1.775H95.358v3.5H100.2v1.758H95.358v4.034h5.168Zm2.777,0V87.15h2.1V98.2h5.44V100Zm9.756,0V87.15h2.1V100Zm16.2,0h-2.575l-6.319-10.239h-.07l.044.571q.123,1.635.123,2.988V100h-1.907V87.15H121.1l6.3,10.187h.053q-.018-.2-.07-1.472t-.053-1.982V87.15h1.925Zm10.661,0H132.65V87.15h7.269v1.775h-5.168v3.5h4.843v1.758h-4.843v4.034h5.168ZM98.391,127h-2.1V115.952H92.511v-1.8h9.659v1.8H98.391Zm13.017,0h-7.269V114.15h7.269v1.775h-5.168v3.5h4.843v1.758h-4.843v4.034h5.168Zm10.749,0-1.283-3.568H115.96L114.7,127h-2.215l4.808-12.9h2.285l4.808,12.9Zm-1.837-5.379-1.2-3.5q-.132-.352-.365-1.107t-.321-1.107a19.7,19.7,0,0,1-.694,2.364l-1.16,3.349ZM131.64,127l-3.727-10.731h-.07q.149,2.391.149,4.482V127h-1.907V114.15h2.962l3.568,10.222h.053l3.674-10.222h2.971V127h-2.021v-6.354q0-.958.048-2.5t.083-1.863h-.07L133.494,127ZM99.322,174.127h1.459a3.331,3.331,0,0,0,2.127-.545,1.977,1.977,0,0,0,.659-1.617,1.741,1.741,0,0,0-.712-1.564,3.9,3.9,0,0,0-2.145-.475H99.322Zm0,1.74V181h-2.1V168.15h3.63a5.964,5.964,0,0,1,3.683.932,3.345,3.345,0,0,1,1.2,2.813,3.516,3.516,0,0,1-2.5,3.419l3.63,5.687h-2.391l-3.076-5.133Zm20.813-1.31a7.029,7.029,0,0,1-1.569,4.878,6.594,6.594,0,0,1-8.912.013,7.073,7.073,0,0,1-1.56-4.909,6.963,6.963,0,0,1,1.569-4.887,5.781,5.781,0,0,1,4.478-1.705,5.664,5.664,0,0,1,4.43,1.731A7.022,7.022,0,0,1,120.135,174.558Zm-9.809,0a5.762,5.762,0,0,0,.958,3.6,3.9,3.9,0,0,0,5.665.013,7.3,7.3,0,0,0,.009-7.2,3.34,3.34,0,0,0-2.817-1.222,3.41,3.41,0,0,0-2.852,1.222A5.706,5.706,0,0,0,110.326,174.558ZM122.895,181V168.15H125V179.2h5.44V181Zm17.024,0H132.65V168.15h7.269v1.775h-5.168v3.5h4.843v1.758h-4.843v4.034h5.168Zm-50.6,27h-2.1V196.952H83.44v-1.8H93.1v1.8H89.32Zm16.8-6.442a7.029,7.029,0,0,1-1.569,4.878,6.594,6.594,0,0,1-8.912.013,7.073,7.073,0,0,1-1.56-4.909,6.963,6.963,0,0,1,1.569-4.887,5.781,5.781,0,0,1,4.478-1.705,5.664,5.664,0,0,1,4.43,1.731A7.022,7.022,0,0,1,106.116,201.558Zm-9.809,0a5.762,5.762,0,0,0,.958,3.6,3.9,3.9,0,0,0,5.665.013,7.3,7.3,0,0,0,.009-7.2,3.34,3.34,0,0,0-2.817-1.222,3.41,3.41,0,0,0-2.852,1.222A5.706,5.706,0,0,0,96.308,201.558Zm23.977,0a7.029,7.029,0,0,1-1.569,4.878,6.594,6.594,0,0,1-8.912.013,7.073,7.073,0,0,1-1.56-4.909,6.963,6.963,0,0,1,1.569-4.887,5.781,5.781,0,0,1,4.478-1.705,5.664,5.664,0,0,1,4.43,1.731A7.022,7.022,0,0,1,120.284,201.558Zm-9.809,0a5.762,5.762,0,0,0,.958,3.6,3.9,3.9,0,0,0,5.665.013,7.3,7.3,0,0,0,.009-7.2,3.34,3.34,0,0,0-2.817-1.222,3.41,3.41,0,0,0-2.852,1.222A5.706,5.706,0,0,0,110.476,201.558ZM123.044,208V195.15h2.1V206.2h5.44V208Zm17.165-3.489a3.234,3.234,0,0,1-1.239,2.689,5.393,5.393,0,0,1-3.419.976,8.158,8.158,0,0,1-3.568-.677v-1.986a9.7,9.7,0,0,0,1.868.65,7.919,7.919,0,0,0,1.841.237,2.929,2.929,0,0,0,1.841-.475,1.548,1.548,0,0,0,.593-1.274,1.6,1.6,0,0,0-.545-1.222,8.2,8.2,0,0,0-2.25-1.187,5.952,5.952,0,0,1-2.479-1.626,3.44,3.44,0,0,1-.721-2.2,3.077,3.077,0,0,1,1.143-2.531,4.74,4.74,0,0,1,3.067-.923,9.012,9.012,0,0,1,3.674.809l-.668,1.714a8.027,8.027,0,0,0-3.059-.721,2.347,2.347,0,0,0-1.547.444,1.458,1.458,0,0,0-.527,1.173,1.652,1.652,0,0,0,.211.857,2.155,2.155,0,0,0,.694.672,11.745,11.745,0,0,0,1.74.835,9.522,9.522,0,0,1,2.074,1.1A3.231,3.231,0,0,1,139.9,203,3.463,3.463,0,0,1,140.209,204.511Z" transform="translate(11125 -1561)"/>
    <line id="Line_20" data-name="Line 20" x2="376" transform="translate(11133.5 -1575.5)" fill="none" stroke="#000" stroke-width="1"/>
    <path id="Path_527" data-name="Path 527" d="M15.306,15.553a5.62,5.62,0,0,1-1.978,4.627A8.712,8.712,0,0,1,7.7,21.789h-2V29H2.544V9.726h5.55A8.4,8.4,0,0,1,13.507,11.2,5.3,5.3,0,0,1,15.306,15.553ZM5.7,19.139H7.37a6,6,0,0,0,3.56-.844,3.071,3.071,0,0,0,1.134-2.637,2.992,2.992,0,0,0-1.015-2.479,5.014,5.014,0,0,0-3.164-.817H5.7Zm16.881-.448h2.188a5,5,0,0,0,3.19-.817,2.966,2.966,0,0,0,.989-2.426A2.611,2.611,0,0,0,27.876,13.1a5.855,5.855,0,0,0-3.217-.712H22.577Zm0,2.61V29H19.426V9.726h5.445q3.731,0,5.524,1.4a5.018,5.018,0,0,1,1.793,4.219q0,3.6-3.744,5.128L33.888,29H30.3l-4.614-7.7Zm31.489-1.964q0,4.707-2.353,7.317a8.511,8.511,0,0,1-6.664,2.61,8.57,8.57,0,0,1-6.7-2.591Q36,24.083,36,19.31t2.353-7.33a8.671,8.671,0,0,1,6.717-2.558,8.5,8.5,0,0,1,6.645,2.6Q54.065,14.617,54.065,19.336Zm-14.713,0a8.643,8.643,0,0,0,1.437,5.4,5.074,5.074,0,0,0,4.258,1.839,5.064,5.064,0,0,0,4.239-1.819,8.658,8.658,0,0,0,1.43-5.418A8.677,8.677,0,0,0,49.3,13.958a5.011,5.011,0,0,0-4.225-1.833A5.115,5.115,0,0,0,40.8,13.958,8.559,8.559,0,0,0,39.353,19.336ZM56.036,34.379a6.148,6.148,0,0,1-2.162-.33V31.4a8.1,8.1,0,0,0,1.925.277q2.584,0,2.584-3.27V9.726h3.164V28.3a6.539,6.539,0,0,1-1.4,4.515A5.237,5.237,0,0,1,56.036,34.379ZM77.716,29h-10.9V9.726h10.9v2.663H69.964v5.247h7.264v2.637H69.964v6.051h7.752ZM90.352,12.151a5.194,5.194,0,0,0-4.271,1.925,8.228,8.228,0,0,0-1.556,5.313,8.283,8.283,0,0,0,1.5,5.366,5.285,5.285,0,0,0,4.331,1.819,11.38,11.38,0,0,0,2.373-.244q1.147-.244,2.386-.626v2.7a14.467,14.467,0,0,1-5.142.857,8.218,8.218,0,0,1-6.5-2.564Q81.2,24.135,81.2,19.363a11.855,11.855,0,0,1,1.1-5.26,7.857,7.857,0,0,1,3.184-3.454,9.63,9.63,0,0,1,4.891-1.2,12.138,12.138,0,0,1,5.458,1.239L94.7,13.312A16.928,16.928,0,0,0,92.64,12.5,7.434,7.434,0,0,0,90.352,12.151ZM106.192,29h-3.151V12.428H97.372v-2.7h14.489v2.7h-5.669Zm31.851-9.822q0,4.772-2.65,7.3T127.76,29h-5.392V9.726h5.959a9.859,9.859,0,0,1,7.159,2.479A9.261,9.261,0,0,1,138.043,19.178Zm-3.322.105q0-6.921-6.473-6.921h-2.729V26.35h2.241Q134.721,26.35,134.721,19.284ZM153.356,29h-10.9V9.726h10.9v2.663H145.6v5.247h7.264v2.637H145.6v6.051h7.752Zm11.094,0H161.3V12.428H155.63v-2.7h14.489v2.7H164.45Zm18.964,0-1.925-5.353h-7.37L172.234,29h-3.322l7.211-19.354h3.428L186.762,29Zm-2.755-8.068-1.806-5.247q-.2-.527-.547-1.661t-.481-1.661a29.546,29.546,0,0,1-1.042,3.546l-1.74,5.023ZM189.577,29V9.726h3.151V29Zm8.51,0V9.726h3.151V26.3H209.4V29ZM224.1,23.766a4.851,4.851,0,0,1-1.859,4.034,8.09,8.09,0,0,1-5.128,1.463,12.236,12.236,0,0,1-5.353-1.015V25.269a14.548,14.548,0,0,0,2.8.976,11.878,11.878,0,0,0,2.762.356,4.394,4.394,0,0,0,2.762-.712,2.321,2.321,0,0,0,.89-1.912,2.4,2.4,0,0,0-.817-1.833,12.305,12.305,0,0,0-3.375-1.78,8.928,8.928,0,0,1-3.718-2.439,5.161,5.161,0,0,1-1.081-3.3,4.616,4.616,0,0,1,1.714-3.8,7.109,7.109,0,0,1,4.6-1.384,13.519,13.519,0,0,1,5.511,1.213l-1,2.571a12.04,12.04,0,0,0-4.588-1.081,3.521,3.521,0,0,0-2.32.666,2.187,2.187,0,0,0-.791,1.76,2.478,2.478,0,0,0,.316,1.285,3.232,3.232,0,0,0,1.042,1.009,17.617,17.617,0,0,0,2.61,1.252,14.283,14.283,0,0,1,3.111,1.648,4.847,4.847,0,0,1,1.45,1.727A5.2,5.2,0,0,1,224.1,23.766Z" transform="translate(11141.5 -1637.5)"/>
  </g>
</svg>
