<svg xmlns="http://www.w3.org/2000/svg" width="1653.309" height="686.786" viewBox="0 0 1653.309 686.786">
  <g id="UserFlow" transform="translate(-5835.296 -8315.602)">
    <path id="Path_839" data-name="Path 839" d="M5971.314,8474.041v107.082h256.7" transform="translate(0 282.194)" fill="none" stroke="#cbc7c7" stroke-width="3.5"/>
    <path id="Path_838" data-name="Path 838" d="M5971.314,8581.123v-87.016h256.7" fill="none" stroke="#cbc7c7" stroke-width="3.5"/>
    <g id="SS_logo" transform="translate(6202.296 8383.992)">
      <path id="Path_1" data-name="Path 1" d="M64.795,85.569C38.238,116.16,31.855,163.427,51.131,199.11c13.144,24.315,36.436,42.013,61.917,52.682,46.37,19.384,104,15.3,142-17.626,10.759-9.342,19.9-21.016,24.154-34.607,3.891-12.552,3.479-25.875,2.241-38.875-2.9-30.483-10.759-61.684-30.2-85.353C209.841,24.89,104.889,39.253,64.795,85.569Z" transform="translate(-39.96 -43.58)" fill="#2c4441"/>
    </g>
    <g id="SS_logo-2" data-name="SS_logo" transform="translate(6202.296 8752.992)">
      <path id="Path_1-2" data-name="Path 1" d="M64.795,85.569C38.238,116.16,31.855,163.427,51.131,199.11c13.144,24.315,36.436,42.013,61.917,52.682,46.37,19.384,104,15.3,142-17.626,10.759-9.342,19.9-21.016,24.154-34.607,3.891-12.552,3.479-25.875,2.241-38.875-2.9-30.483-10.759-61.684-30.2-85.353C209.841,24.89,104.889,39.253,64.795,85.569Z" transform="translate(-39.96 -43.58)" fill="#2c4441"/>
    </g>
    <g id="SS_logo-3" data-name="SS_logo" transform="translate(6827.36 8550.855) rotate(158)">
      <path id="Path_1-3" data-name="Path 1" d="M64.795,85.569C38.238,116.16,31.855,163.427,51.131,199.11c13.144,24.315,36.436,42.013,61.917,52.682,46.37,19.384,104,15.3,142-17.626,10.759-9.342,19.9-21.016,24.154-34.607,3.891-12.552,3.479-25.875,2.241-38.875-2.9-30.483-10.759-61.684-30.2-85.353C209.841,24.89,104.889,39.253,64.795,85.569Z" transform="translate(-39.96 -43.58)" fill="#2c4441"/>
    </g>
    <g id="SS_logo-4" data-name="SS_logo" transform="translate(6587.649 8724.239) rotate(16)">
      <path id="Path_1-4" data-name="Path 1" d="M64.795,85.569C38.238,116.16,31.855,163.427,51.131,199.11c13.144,24.315,36.436,42.013,61.917,52.682,46.37,19.384,104,15.3,142-17.626,10.759-9.342,19.9-21.016,24.154-34.607,3.891-12.552,3.479-25.875,2.241-38.875-2.9-30.483-10.759-61.684-30.2-85.353C209.841,24.89,104.889,39.253,64.795,85.569Z" transform="translate(-39.96 -43.58)" fill="#2c4441"/>
    </g>
    <g id="SS_logo-5" data-name="SS_logo" transform="translate(6898 8383.992)">
      <path id="Path_1-5" data-name="Path 1" d="M64.795,85.569C38.238,116.16,31.855,163.427,51.131,199.11c13.144,24.315,36.436,42.013,61.917,52.682,46.37,19.384,104,15.3,142-17.626,10.759-9.342,19.9-21.016,24.154-34.607,3.891-12.552,3.479-25.875,2.241-38.875-2.9-30.483-10.759-61.684-30.2-85.353C209.841,24.89,104.889,39.253,64.795,85.569Z" transform="translate(-39.96 -43.58)" fill="#2c4441"/>
    </g>
    <g id="SS_logo-6" data-name="SS_logo" transform="translate(6897.738 8752.992)">
      <path id="Path_1-6" data-name="Path 1" d="M64.795,85.569C38.238,116.16,31.855,163.427,51.131,199.11c13.144,24.315,36.436,42.013,61.917,52.682,46.37,19.384,104,15.3,142-17.626,10.759-9.342,19.9-21.016,24.154-34.607,3.891-12.552,3.479-25.875,2.241-38.875-2.9-30.483-10.759-61.684-30.2-85.353C209.841,24.89,104.889,39.253,64.795,85.569Z" transform="translate(-39.96 -43.58)" fill="#2c4441"/>
    </g>
    <g id="SS_logo-7" data-name="SS_logo" transform="matrix(-1, -0.017, 0.017, -1, 7482.906, 8605.963)">
      <path id="Path_1-7" data-name="Path 1" d="M64.795,85.569C38.238,116.16,31.855,163.427,51.131,199.11c13.144,24.315,36.436,42.013,61.917,52.682,46.37,19.384,104,15.3,142-17.626,10.759-9.342,19.9-21.016,24.154-34.607,3.891-12.552,3.479-25.875,2.241-38.875-2.9-30.483-10.759-61.684-30.2-85.353C209.841,24.89,104.889,39.253,64.795,85.569Z" transform="translate(-39.96 -43.58)" fill="#2c4441"/>
    </g>
    <g id="SS_logo-8" data-name="SS_logo" transform="translate(7238.733 8757.287) rotate(-2)">
      <path id="Path_1-8" data-name="Path 1" d="M64.795,85.569C38.238,116.16,31.855,163.427,51.131,199.11c13.144,24.315,36.436,42.013,61.917,52.682,46.37,19.384,104,15.3,142-17.626,10.759-9.342,19.9-21.016,24.154-34.607,3.891-12.552,3.479-25.875,2.241-38.875-2.9-30.483-10.759-61.684-30.2-85.353C209.841,24.89,104.889,39.253,64.795,85.569Z" transform="translate(-39.96 -43.58)" fill="#2c4441"/>
    </g>
    <path id="Path_843" data-name="Path 843" d="M36.381,30.215a6.288,6.288,0,0,1-2.41,5.229,10.487,10.487,0,0,1-6.648,1.9,15.862,15.862,0,0,1-6.938-1.316V32.164a18.859,18.859,0,0,0,3.632,1.265,15.4,15.4,0,0,0,3.58.461,5.7,5.7,0,0,0,3.58-.923,3.009,3.009,0,0,0,1.154-2.478,3.105,3.105,0,0,0-1.06-2.375A15.951,15.951,0,0,0,26.9,25.806a11.574,11.574,0,0,1-4.819-3.162,6.69,6.69,0,0,1-1.4-4.272A5.984,5.984,0,0,1,22.9,13.45a9.216,9.216,0,0,1,5.964-1.794,17.524,17.524,0,0,1,7.144,1.572l-1.3,3.333a15.607,15.607,0,0,0-5.947-1.4,4.564,4.564,0,0,0-3.008.863A2.835,2.835,0,0,0,24.726,18.3a3.212,3.212,0,0,0,.41,1.666,4.189,4.189,0,0,0,1.35,1.307A22.837,22.837,0,0,0,29.87,22.9,18.515,18.515,0,0,1,33.9,25.037a6.283,6.283,0,0,1,1.88,2.239A6.734,6.734,0,0,1,36.381,30.215Zm12.664,7.126a9.143,9.143,0,0,1-6.9-2.572,9.764,9.764,0,0,1-2.487-7.084,10.712,10.712,0,0,1,2.307-7.28,7.969,7.969,0,0,1,6.34-2.649,7.789,7.789,0,0,1,5.913,2.273,8.685,8.685,0,0,1,2.17,6.255v2.17H43.8a6.208,6.208,0,0,0,1.487,4.23,5.179,5.179,0,0,0,3.948,1.478,14.573,14.573,0,0,0,3.119-.316,16.348,16.348,0,0,0,3.1-1.051V36.06a12.331,12.331,0,0,1-2.974.991A18.234,18.234,0,0,1,49.045,37.342ZM48.31,20.8a4.035,4.035,0,0,0-3.068,1.213,5.783,5.783,0,0,0-1.376,3.538h8.579A5.232,5.232,0,0,0,51.318,22,3.858,3.858,0,0,0,48.31,20.8ZM72.783,37l-.8-2.632h-.137a7.743,7.743,0,0,1-2.751,2.35,8.7,8.7,0,0,1-3.555.624,6.016,6.016,0,0,1-4.349-1.5,5.628,5.628,0,0,1-1.564-4.255,5,5,0,0,1,2.17-4.409q2.17-1.487,6.614-1.624l3.264-.1V24.439a3.822,3.822,0,0,0-.846-2.709,3.45,3.45,0,0,0-2.623-.9,9.071,9.071,0,0,0-2.786.427,21.022,21.022,0,0,0-2.563,1.008l-1.3-2.871a13.978,13.978,0,0,1,3.367-1.222,15.494,15.494,0,0,1,3.452-.419,8.176,8.176,0,0,1,5.443,1.572q1.837,1.572,1.837,4.939V37ZM66.8,34.266a4.975,4.975,0,0,0,3.512-1.222,4.43,4.43,0,0,0,1.324-3.427V27.977l-2.427.1a8.3,8.3,0,0,0-4.127.948,2.882,2.882,0,0,0-1.29,2.589,2.526,2.526,0,0,0,.752,1.957A3.231,3.231,0,0,0,66.8,34.266ZM90.847,17.757a9.668,9.668,0,0,1,2,.171l-.393,3.743a7.59,7.59,0,0,0-1.777-.205,5.143,5.143,0,0,0-3.905,1.572,5.683,5.683,0,0,0-1.5,4.084V37H81.259V18.1H84.4l.53,3.333h.205a7.489,7.489,0,0,1,2.452-2.683A5.829,5.829,0,0,1,90.847,17.757Zm12.424,19.585q-4.29,0-6.52-2.5t-2.23-7.186q0-4.768,2.333-7.332t6.742-2.563a12.635,12.635,0,0,1,5.383,1.111l-1.213,3.23a12.163,12.163,0,0,0-4.2-.991q-4.9,0-4.9,6.511a7.8,7.8,0,0,0,1.222,4.777,4.23,4.23,0,0,0,3.58,1.6,10.272,10.272,0,0,0,5.076-1.333v3.5a7.931,7.931,0,0,1-2.3.906A13.793,13.793,0,0,1,103.271,37.342ZM129.606,37h-4.033V25.379a5.086,5.086,0,0,0-.88-3.264,3.4,3.4,0,0,0-2.794-1.077,4.435,4.435,0,0,0-3.717,1.512q-1.188,1.512-1.188,5.067V37h-4.016V10.408h4.016v6.75a31.5,31.5,0,0,1-.205,3.469h.256a5.577,5.577,0,0,1,2.281-2.119,7.353,7.353,0,0,1,3.409-.752q6.87,0,6.87,6.921ZM25.931,66.568a7.285,7.285,0,0,1-2.563,6q-2.563,2.085-7.3,2.085h-2.6V84H9.388V59.015h7.195q4.683,0,7.015,1.914A6.871,6.871,0,0,1,25.931,66.568ZM13.472,71.217h2.17a7.777,7.777,0,0,0,4.614-1.094,3.981,3.981,0,0,0,1.47-3.418,3.878,3.878,0,0,0-1.316-3.213,6.5,6.5,0,0,0-4.1-1.06H13.472Zm26.609-6.46a9.668,9.668,0,0,1,2,.171l-.393,3.743a7.59,7.59,0,0,0-1.777-.205,5.143,5.143,0,0,0-3.905,1.572,5.683,5.683,0,0,0-1.5,4.084V84H30.494V65.1h3.145l.53,3.333h.205a7.489,7.489,0,0,1,2.452-2.683A5.829,5.829,0,0,1,40.081,64.757Zm21.567,9.758a10.316,10.316,0,0,1-2.375,7.229,8.511,8.511,0,0,1-6.614,2.6,9.062,9.062,0,0,1-4.683-1.2,7.9,7.9,0,0,1-3.127-3.435,11.7,11.7,0,0,1-1.094-5.2,10.247,10.247,0,0,1,2.358-7.178,8.551,8.551,0,0,1,6.648-2.581,8.327,8.327,0,0,1,6.494,2.64A10.2,10.2,0,0,1,61.649,74.515Zm-13.757,0q0,6.545,4.836,6.545,4.785,0,4.785-6.545,0-6.477-4.819-6.477a4.109,4.109,0,0,0-3.666,1.675A8.523,8.523,0,0,0,47.891,74.515Zm24.746,9.827a6.583,6.583,0,0,1-5.52-2.563q-1.982-2.563-1.982-7.195,0-4.648,2.008-7.238a6.646,6.646,0,0,1,5.563-2.589,6.516,6.516,0,0,1,5.674,2.751h.205a24.074,24.074,0,0,1-.291-3.213V57.408h4.033V84H79.183l-.7-2.478h-.188A6.421,6.421,0,0,1,72.637,84.342Zm1.077-3.247A4.371,4.371,0,0,0,77.32,79.7a7.333,7.333,0,0,0,1.162-4.52v-.564q0-3.572-1.162-5.076a4.311,4.311,0,0,0-3.64-1.5,3.693,3.693,0,0,0-3.264,1.718,8.8,8.8,0,0,0-1.145,4.9,8.582,8.582,0,0,0,1.111,4.794A3.75,3.75,0,0,0,73.714,81.095ZM101.4,84l-.564-2.478h-.205a5.7,5.7,0,0,1-2.384,2.068,7.971,7.971,0,0,1-3.529.752,6.928,6.928,0,0,1-5.127-1.709A7.085,7.085,0,0,1,87.9,77.455V65.1h4.05V76.754a5.056,5.056,0,0,0,.889,3.256,3.393,3.393,0,0,0,2.786,1.085,4.435,4.435,0,0,0,3.717-1.512q1.188-1.512,1.188-5.067V65.1h4.033V84Zm16.509.342q-4.29,0-6.52-2.5t-2.23-7.186q0-4.768,2.333-7.332t6.742-2.563a12.635,12.635,0,0,1,5.383,1.111L122.4,69.1a12.163,12.163,0,0,0-4.2-.991q-4.9,0-4.9,6.511a7.8,7.8,0,0,0,1.222,4.777,4.23,4.23,0,0,0,3.58,1.6,10.272,10.272,0,0,0,5.076-1.333v3.5a7.931,7.931,0,0,1-2.3.906A13.793,13.793,0,0,1,117.908,84.342Zm17.961,0a9.143,9.143,0,0,1-6.9-2.572,9.764,9.764,0,0,1-2.487-7.084,10.712,10.712,0,0,1,2.307-7.28,7.969,7.969,0,0,1,6.34-2.649,7.789,7.789,0,0,1,5.913,2.273,8.685,8.685,0,0,1,2.17,6.255v2.17h-12.6a6.208,6.208,0,0,0,1.487,4.23,5.179,5.179,0,0,0,3.948,1.478,14.573,14.573,0,0,0,3.119-.316,16.349,16.349,0,0,0,3.1-1.051V83.06a12.331,12.331,0,0,1-2.974.991A18.234,18.234,0,0,1,135.87,84.342ZM135.135,67.8a4.035,4.035,0,0,0-3.068,1.213,5.783,5.783,0,0,0-1.376,3.538h8.579A5.232,5.232,0,0,0,138.143,69,3.858,3.858,0,0,0,135.135,67.8Z" transform="translate(6248.296 8446)" fill="#fff"/>
    <path id="Path_849" data-name="Path 849" d="M58.487,19.568a7.285,7.285,0,0,1-2.563,6q-2.563,2.085-7.3,2.085h-2.6V37H41.944V12.015h7.195q4.683,0,7.015,1.914A6.871,6.871,0,0,1,58.487,19.568ZM46.029,24.217H48.2a7.777,7.777,0,0,0,4.614-1.094,3.981,3.981,0,0,0,1.47-3.418,3.878,3.878,0,0,0-1.316-3.213,6.5,6.5,0,0,0-4.1-1.06H46.029Zm33.787,3.3a10.316,10.316,0,0,1-2.375,7.229,8.511,8.511,0,0,1-6.614,2.6,9.062,9.062,0,0,1-4.683-1.2,7.9,7.9,0,0,1-3.127-3.435,11.7,11.7,0,0,1-1.094-5.2,10.247,10.247,0,0,1,2.358-7.178,8.551,8.551,0,0,1,6.648-2.581,8.327,8.327,0,0,1,6.494,2.64A10.2,10.2,0,0,1,79.815,27.515Zm-13.757,0q0,6.545,4.836,6.545,4.785,0,4.785-6.545,0-6.477-4.819-6.477a4.109,4.109,0,0,0-3.666,1.675A8.523,8.523,0,0,0,66.058,27.515Zm31.069,4.1a4.946,4.946,0,0,1-2.017,4.247,9.656,9.656,0,0,1-5.776,1.478A13.644,13.644,0,0,1,83.267,36.2V32.728a14.9,14.9,0,0,0,6.2,1.538q3.708,0,3.708-2.239a1.774,1.774,0,0,0-.41-1.2,4.854,4.854,0,0,0-1.35-.991A23.233,23.233,0,0,0,88.8,28.677a12.1,12.1,0,0,1-4.418-2.529,4.68,4.68,0,0,1-1.154-3.281A4.31,4.31,0,0,1,85.19,19.1a9.286,9.286,0,0,1,5.323-1.342,15.078,15.078,0,0,1,6.306,1.35l-1.3,3.025a14.026,14.026,0,0,0-5.144-1.265q-3.179,0-3.179,1.812a1.823,1.823,0,0,0,.829,1.5,18.228,18.228,0,0,0,3.615,1.692,16.522,16.522,0,0,1,3.4,1.658,4.954,4.954,0,0,1,1.572,1.735A5.02,5.02,0,0,1,97.127,31.617Zm11.382,2.478a9.766,9.766,0,0,0,2.939-.461v3.025a8.107,8.107,0,0,1-1.718.487,11.833,11.833,0,0,1-2.179.2q-5.708,0-5.708-6.016V21.141H99.263V19.363l2.769-1.47,1.367-4h2.478v4.2h5.383v3.042h-5.383V31.258A2.838,2.838,0,0,0,106.6,33.4,2.648,2.648,0,0,0,108.509,34.095ZM25.931,66.568a7.285,7.285,0,0,1-2.563,6q-2.563,2.085-7.3,2.085h-2.6V84H9.388V59.015h7.195q4.683,0,7.015,1.914A6.871,6.871,0,0,1,25.931,66.568ZM13.472,71.217h2.17a7.777,7.777,0,0,0,4.614-1.094,3.981,3.981,0,0,0,1.47-3.418,3.878,3.878,0,0,0-1.316-3.213,6.5,6.5,0,0,0-4.1-1.06H13.472Zm26.609-6.46a9.668,9.668,0,0,1,2,.171l-.393,3.743a7.59,7.59,0,0,0-1.777-.205,5.143,5.143,0,0,0-3.905,1.572,5.683,5.683,0,0,0-1.5,4.084V84H30.494V65.1h3.145l.53,3.333h.205a7.489,7.489,0,0,1,2.452-2.683A5.829,5.829,0,0,1,40.081,64.757Zm21.567,9.758a10.316,10.316,0,0,1-2.375,7.229,8.511,8.511,0,0,1-6.614,2.6,9.062,9.062,0,0,1-4.683-1.2,7.9,7.9,0,0,1-3.127-3.435,11.7,11.7,0,0,1-1.094-5.2,10.247,10.247,0,0,1,2.358-7.178,8.551,8.551,0,0,1,6.648-2.581,8.327,8.327,0,0,1,6.494,2.64A10.2,10.2,0,0,1,61.649,74.515Zm-13.757,0q0,6.545,4.836,6.545,4.785,0,4.785-6.545,0-6.477-4.819-6.477a4.109,4.109,0,0,0-3.666,1.675A8.523,8.523,0,0,0,47.891,74.515Zm24.746,9.827a6.583,6.583,0,0,1-5.52-2.563q-1.982-2.563-1.982-7.195,0-4.648,2.008-7.238a6.646,6.646,0,0,1,5.563-2.589,6.516,6.516,0,0,1,5.674,2.751h.205a24.074,24.074,0,0,1-.291-3.213V57.408h4.033V84H79.183l-.7-2.478h-.188A6.421,6.421,0,0,1,72.637,84.342Zm1.077-3.247A4.371,4.371,0,0,0,77.32,79.7a7.333,7.333,0,0,0,1.162-4.52v-.564q0-3.572-1.162-5.076a4.311,4.311,0,0,0-3.64-1.5,3.693,3.693,0,0,0-3.264,1.718,8.8,8.8,0,0,0-1.145,4.9,8.582,8.582,0,0,0,1.111,4.794A3.75,3.75,0,0,0,73.714,81.095ZM101.4,84l-.564-2.478h-.205a5.7,5.7,0,0,1-2.384,2.068,7.971,7.971,0,0,1-3.529.752,6.928,6.928,0,0,1-5.127-1.709A7.085,7.085,0,0,1,87.9,77.455V65.1h4.05V76.754a5.056,5.056,0,0,0,.889,3.256,3.393,3.393,0,0,0,2.786,1.085,4.435,4.435,0,0,0,3.717-1.512q1.188-1.512,1.188-5.067V65.1h4.033V84Zm16.509.342q-4.29,0-6.52-2.5t-2.23-7.186q0-4.768,2.333-7.332t6.742-2.563a12.635,12.635,0,0,1,5.383,1.111L122.4,69.1a12.163,12.163,0,0,0-4.2-.991q-4.9,0-4.9,6.511a7.8,7.8,0,0,0,1.222,4.777,4.23,4.23,0,0,0,3.58,1.6,10.272,10.272,0,0,0,5.076-1.333v3.5a7.931,7.931,0,0,1-2.3.906A13.793,13.793,0,0,1,117.908,84.342Zm17.961,0a9.143,9.143,0,0,1-6.9-2.572,9.764,9.764,0,0,1-2.487-7.084,10.712,10.712,0,0,1,2.307-7.28,7.969,7.969,0,0,1,6.34-2.649,7.789,7.789,0,0,1,5.913,2.273,8.685,8.685,0,0,1,2.17,6.255v2.17h-12.6a6.208,6.208,0,0,0,1.487,4.23,5.179,5.179,0,0,0,3.948,1.478,14.573,14.573,0,0,0,3.119-.316,16.349,16.349,0,0,0,3.1-1.051V83.06a12.331,12.331,0,0,1-2.974.991A18.234,18.234,0,0,1,135.87,84.342ZM135.135,67.8a4.035,4.035,0,0,0-3.068,1.213,5.783,5.783,0,0,0-1.376,3.538h8.579A5.232,5.232,0,0,0,138.143,69,3.858,3.858,0,0,0,135.135,67.8Z" transform="translate(6248.296 8815)" fill="#fff"/>
    <path id="Path_845" data-name="Path 845" d="M27.379,24.268q0,6.187-3.435,9.459T14.049,37H7.06V12.015h7.725q5.964,0,9.28,3.213T27.379,24.268Zm-4.307.137q0-8.972-8.391-8.972H11.144V33.565h2.905Q23.073,33.565,23.073,24.4ZM36.334,37H32.318V18.1h4.016ZM32.079,13.091a2.224,2.224,0,0,1,.59-1.658,2.3,2.3,0,0,1,1.683-.581A2.249,2.249,0,0,1,36,11.434a2.224,2.224,0,0,1,.59,1.658A2.182,2.182,0,0,1,36,14.706a2.229,2.229,0,0,1-1.649.59,2.278,2.278,0,0,1-1.683-.59A2.182,2.182,0,0,1,32.079,13.091Zm22.7,18.525a4.946,4.946,0,0,1-2.017,4.247,9.656,9.656,0,0,1-5.776,1.478A13.644,13.644,0,0,1,40.915,36.2V32.728a14.9,14.9,0,0,0,6.2,1.538q3.708,0,3.708-2.239a1.774,1.774,0,0,0-.41-1.2,4.854,4.854,0,0,0-1.35-.991,23.234,23.234,0,0,0-2.615-1.162,12.1,12.1,0,0,1-4.418-2.529,4.68,4.68,0,0,1-1.154-3.281A4.31,4.31,0,0,1,42.837,19.1a9.286,9.286,0,0,1,5.323-1.342,15.078,15.078,0,0,1,6.306,1.35l-1.3,3.025a14.026,14.026,0,0,0-5.144-1.265q-3.179,0-3.179,1.812a1.823,1.823,0,0,0,.829,1.5,18.228,18.228,0,0,0,3.615,1.692,16.522,16.522,0,0,1,3.4,1.658,4.954,4.954,0,0,1,1.572,1.735A5.02,5.02,0,0,1,54.774,31.617Zm11.963,5.725q-4.29,0-6.52-2.5t-2.23-7.186q0-4.768,2.333-7.332t6.742-2.563a12.635,12.635,0,0,1,5.383,1.111L71.232,22.1a12.163,12.163,0,0,0-4.2-.991q-4.9,0-4.9,6.511a7.8,7.8,0,0,0,1.222,4.777,4.23,4.23,0,0,0,3.58,1.6A10.272,10.272,0,0,0,72,32.659v3.5a7.931,7.931,0,0,1-2.3.906A13.793,13.793,0,0,1,66.737,37.342Zm26.472-9.827a10.316,10.316,0,0,1-2.375,7.229,8.511,8.511,0,0,1-6.614,2.6,9.062,9.062,0,0,1-4.683-1.2A7.9,7.9,0,0,1,76.41,32.71a11.7,11.7,0,0,1-1.094-5.2,10.247,10.247,0,0,1,2.358-7.178,8.551,8.551,0,0,1,6.648-2.581,8.327,8.327,0,0,1,6.494,2.64A10.2,10.2,0,0,1,93.209,27.515Zm-13.757,0q0,6.545,4.836,6.545,4.785,0,4.785-6.545,0-6.477-4.819-6.477a4.109,4.109,0,0,0-3.666,1.675A8.523,8.523,0,0,0,79.452,27.515ZM101.43,37,94.252,18.1H98.49l3.845,10.989a21.775,21.775,0,0,1,1.2,4.478h.137a30.066,30.066,0,0,1,1.2-4.478L108.71,18.1h4.272L105.771,37Zm22.678.342a9.143,9.143,0,0,1-6.9-2.572,9.764,9.764,0,0,1-2.487-7.084,10.712,10.712,0,0,1,2.307-7.28,7.969,7.969,0,0,1,6.34-2.649,7.789,7.789,0,0,1,5.913,2.273,8.685,8.685,0,0,1,2.17,6.255v2.17h-12.6a6.208,6.208,0,0,0,1.487,4.23,5.179,5.179,0,0,0,3.948,1.478,14.573,14.573,0,0,0,3.119-.316,16.349,16.349,0,0,0,3.1-1.051V36.06a12.331,12.331,0,0,1-2.974.991A18.234,18.234,0,0,1,124.108,37.342ZM123.373,20.8a4.035,4.035,0,0,0-3.068,1.213,5.783,5.783,0,0,0-1.376,3.538h8.579A5.232,5.232,0,0,0,126.381,22,3.858,3.858,0,0,0,123.373,20.8Zm22.234-3.042a9.668,9.668,0,0,1,2,.171l-.393,3.743a7.59,7.59,0,0,0-1.777-.205,5.143,5.143,0,0,0-3.905,1.572,5.683,5.683,0,0,0-1.5,4.084V37H136.02V18.1h3.145l.53,3.333h.205a7.489,7.489,0,0,1,2.452-2.683A5.829,5.829,0,0,1,145.607,17.757ZM26.431,66.568a7.285,7.285,0,0,1-2.563,6q-2.563,2.085-7.3,2.085h-2.6V84H9.888V59.015h7.195q4.683,0,7.015,1.914A6.871,6.871,0,0,1,26.431,66.568ZM13.972,71.217h2.17a7.777,7.777,0,0,0,4.614-1.094,3.981,3.981,0,0,0,1.47-3.418,3.878,3.878,0,0,0-1.316-3.213,6.5,6.5,0,0,0-4.1-1.06H13.972Zm26.609-6.46a9.668,9.668,0,0,1,2,.171l-.393,3.743a7.59,7.59,0,0,0-1.777-.205,5.143,5.143,0,0,0-3.905,1.572,5.683,5.683,0,0,0-1.5,4.084V84H30.994V65.1h3.145l.53,3.333h.205a7.489,7.489,0,0,1,2.452-2.683A5.829,5.829,0,0,1,40.581,64.757Zm21.567,9.758a10.316,10.316,0,0,1-2.375,7.229,8.511,8.511,0,0,1-6.614,2.6,9.062,9.062,0,0,1-4.683-1.2,7.9,7.9,0,0,1-3.127-3.435,11.7,11.7,0,0,1-1.094-5.2,10.247,10.247,0,0,1,2.358-7.178,8.551,8.551,0,0,1,6.648-2.581,8.327,8.327,0,0,1,6.494,2.64A10.2,10.2,0,0,1,62.149,74.515Zm-13.757,0q0,6.545,4.836,6.545,4.785,0,4.785-6.545,0-6.477-4.819-6.477a4.109,4.109,0,0,0-3.666,1.675A8.523,8.523,0,0,0,48.391,74.515Zm24.746,9.827a6.583,6.583,0,0,1-5.52-2.563q-1.982-2.563-1.982-7.195,0-4.648,2.008-7.238a6.646,6.646,0,0,1,5.563-2.589,6.516,6.516,0,0,1,5.674,2.751h.205a24.074,24.074,0,0,1-.291-3.213V57.408h4.033V84H79.683l-.7-2.478h-.188A6.421,6.421,0,0,1,73.137,84.342Zm1.077-3.247A4.371,4.371,0,0,0,77.82,79.7a7.333,7.333,0,0,0,1.162-4.52v-.564q0-3.572-1.162-5.076a4.311,4.311,0,0,0-3.64-1.5,3.693,3.693,0,0,0-3.264,1.718,8.8,8.8,0,0,0-1.145,4.9,8.582,8.582,0,0,0,1.111,4.794A3.75,3.75,0,0,0,74.214,81.095ZM101.9,84l-.564-2.478h-.205a5.7,5.7,0,0,1-2.384,2.068,7.971,7.971,0,0,1-3.529.752,6.928,6.928,0,0,1-5.127-1.709A7.085,7.085,0,0,1,88.4,77.455V65.1h4.05V76.754a5.056,5.056,0,0,0,.889,3.256,3.393,3.393,0,0,0,2.786,1.085,4.435,4.435,0,0,0,3.717-1.512q1.188-1.512,1.188-5.067V65.1h4.033V84Zm16.509.342q-4.29,0-6.52-2.5t-2.23-7.186q0-4.768,2.333-7.332t6.742-2.563a12.635,12.635,0,0,1,5.383,1.111L122.9,69.1a12.163,12.163,0,0,0-4.2-.991q-4.9,0-4.9,6.511a7.8,7.8,0,0,0,1.222,4.777,4.23,4.23,0,0,0,3.58,1.6,10.272,10.272,0,0,0,5.076-1.333v3.5a7.931,7.931,0,0,1-2.3.906A13.793,13.793,0,0,1,118.408,84.342Zm17.961,0a9.143,9.143,0,0,1-6.9-2.572,9.764,9.764,0,0,1-2.487-7.084,10.712,10.712,0,0,1,2.307-7.28,7.969,7.969,0,0,1,6.34-2.649,7.789,7.789,0,0,1,5.913,2.273,8.685,8.685,0,0,1,2.17,6.255v2.17h-12.6a6.208,6.208,0,0,0,1.487,4.23,5.179,5.179,0,0,0,3.948,1.478,14.573,14.573,0,0,0,3.119-.316,16.349,16.349,0,0,0,3.1-1.051V83.06a12.331,12.331,0,0,1-2.974.991A18.234,18.234,0,0,1,136.37,84.342ZM135.635,67.8a4.035,4.035,0,0,0-3.068,1.213,5.783,5.783,0,0,0-1.376,3.538h8.579A5.232,5.232,0,0,0,138.643,69,3.858,3.858,0,0,0,135.635,67.8Z" transform="translate(6597.654 8441)" fill="#fff"/>
    <path id="Path_844" data-name="Path 844" d="M14.525,51V49.1a13.266,13.266,0,0,1,2.025-.95,8.336,8.336,0,0,1,2.075-.5V19.35a16.648,16.648,0,0,1-2.1-.575,12.253,12.253,0,0,1-2-.875V16h8.05q1.9,0,3.6-.15t3.9-.15a30.218,30.218,0,0,1,4.65.35,13.093,13.093,0,0,1,4,1.25,7.183,7.183,0,0,1,2.8,2.525A7.565,7.565,0,0,1,42.575,24,7.613,7.613,0,0,1,40.4,29.4,9.08,9.08,0,0,1,38,31.15a10.979,10.979,0,0,1-2.975,1v.2a16.389,16.389,0,0,1,3.225.75,9.421,9.421,0,0,1,2.925,1.6A8.238,8.238,0,0,1,43.3,37.325a7.925,7.925,0,0,1,.825,3.725,8.7,8.7,0,0,1-1.2,4.65A9.707,9.707,0,0,1,39.7,48.9a14.826,14.826,0,0,1-4.625,1.825,24.938,24.938,0,0,1-5.4.575q-1.05,0-2.3-.05l-2.5-.1q-1.25-.05-2.425-.1T20.475,51Zm15.1-2.95a6.538,6.538,0,0,0,4.95-1.875,6.882,6.882,0,0,0,1.8-4.975,7.1,7.1,0,0,0-.6-3.125,4.977,4.977,0,0,0-1.65-1.95,6.462,6.462,0,0,0-2.5-1,16.921,16.921,0,0,0-3.15-.275h-2.65V47.7q.7.15,1.475.25A19.789,19.789,0,0,0,29.625,48.05Zm-2.2-16.45q.85,0,1.7-.075t1.6-.175a7.113,7.113,0,0,0,3.15-2.475,6.4,6.4,0,0,0,1.2-3.825,5.9,5.9,0,0,0-1.65-4.625,6.137,6.137,0,0,0-4.25-1.475q-1.1,0-1.9.05t-1.45.15V31.6Zm22.1,9.5q0-3.15.15-5.85t.15-5.7l-3.3-.4V27.2a19.409,19.409,0,0,1,1.975-.6q1.175-.3,2.425-.525t2.425-.4q1.175-.175,1.975-.275h1.7q0,3.75-.15,7.375t-.15,7.125a15.263,15.263,0,0,0,.825,5.9,3.072,3.072,0,0,0,3.075,1.8A4.254,4.254,0,0,0,63.5,46.425a8.485,8.485,0,0,0,2.175-3.775V29.55l-3.25-.4V27.2a16.83,16.83,0,0,1,1.875-.6q1.125-.3,2.35-.525t2.425-.4q1.2-.175,2.1-.275h1.7V47.45l3.3.4V49.6a14.969,14.969,0,0,1-1.75.6q-1.05.3-2.2.575t-2.275.45q-1.125.175-2.025.275h-1.7l-.35-5.95h-.2a7.46,7.46,0,0,1-.9,2.125,8.015,8.015,0,0,1-1.675,1.95A8.425,8.425,0,0,1,57.575,51.6a11,11,0,0,1-3.375-.475,5.576,5.576,0,0,1-2.525-1.675,8.017,8.017,0,0,1-1.6-3.225A19.971,19.971,0,0,1,49.525,41.1Zm29.45-11.95a7.841,7.841,0,0,1-1.375-.5,13.989,13.989,0,0,1-1.275-.7V26h13.15v1.9a10.985,10.985,0,0,1-2.85,1.25l5.05,12.55.85,3.2h.1l.8-3.25,3.9-12.5a7.007,7.007,0,0,1-2.75-1.2V26h9.65v1.95a10.02,10.02,0,0,1-2.85,1.2L93.225,51a33.477,33.477,0,0,1-2.4,5.225,16.356,16.356,0,0,1-2.4,3.225,7.243,7.243,0,0,1-2.4,1.675,9.815,9.815,0,0,1-2.4.625,4.767,4.767,0,0,1-.9-1.125,9.722,9.722,0,0,1-.7-1.45,13.286,13.286,0,0,1-.5-1.575,8.794,8.794,0,0,1-.25-1.5l.65-1.2h6.1a9.1,9.1,0,0,0,.775-1.5,24.451,24.451,0,0,0,.775-2.4Z" transform="translate(6265.296 8299.901)"/>
    <path id="Path_846" data-name="Path 846" d="M28.375,46.85a5.55,5.55,0,0,0,1.55,1.025,6.232,6.232,0,0,0,2.65.475,7.208,7.208,0,0,0,4.575-1.425,4.758,4.758,0,0,0,1.825-3.975,4.353,4.353,0,0,0-1.175-3.1,13.117,13.117,0,0,0-2.975-2.3q-1.8-1.05-3.85-2.075a23.032,23.032,0,0,1-3.85-2.425,12.3,12.3,0,0,1-2.975-3.325,9.014,9.014,0,0,1-1.175-4.775,9.4,9.4,0,0,1,.9-4.25,8.266,8.266,0,0,1,2.475-2.975,10.841,10.841,0,0,1,3.725-1.75,17.95,17.95,0,0,1,4.65-.575,35.561,35.561,0,0,1,5.675.425,20.143,20.143,0,0,1,4.725,1.325q-.05,1-.175,2.3t-.325,2.575q-.2,1.275-.425,2.4T43.775,26.3h-2.05l-2.3-6.85a7.787,7.787,0,0,0-1.775-.55,11.622,11.622,0,0,0-2.425-.25,5.7,5.7,0,0,0-3.55,1.1,3.771,3.771,0,0,0-1.45,3.2,4.632,4.632,0,0,0,1.2,3.225,13.52,13.52,0,0,0,3,2.425q1.8,1.1,3.925,2.175a24.07,24.07,0,0,1,3.925,2.475,13.017,13.017,0,0,1,3,3.275,8.411,8.411,0,0,1,1.2,4.625A9.361,9.361,0,0,1,43.1,48.875Q39.725,51.6,33.175,51.6a26.38,26.38,0,0,1-3.225-.2,27.346,27.346,0,0,1-3.075-.55A25.833,25.833,0,0,1,24.3,50.1a5.729,5.729,0,0,1-1.675-.85,23.484,23.484,0,0,1,.25-2.475q.2-1.325.425-2.65t.475-2.525q.25-1.2.5-2.1h2.05Zm44.35-.05a6.282,6.282,0,0,1-1.275,1.725,8.9,8.9,0,0,1-2.15,1.55,13.271,13.271,0,0,1-2.95,1.1,14.71,14.71,0,0,1-3.625.425,15.219,15.219,0,0,1-5.5-.925,10.515,10.515,0,0,1-4-2.65A11.455,11.455,0,0,1,50.8,43.9a16.549,16.549,0,0,1-.825-5.4q0-6.4,3.35-9.75t9.3-3.35a15.827,15.827,0,0,1,4.775.7,8.321,8.321,0,0,1,3.7,2.3,8.886,8.886,0,0,1,2.05,4.2,16.66,16.66,0,0,1-.075,6.35H57.725a9.675,9.675,0,0,0,2.025,6.3,7.179,7.179,0,0,0,5.825,2.35A12.616,12.616,0,0,0,69,47.1a7.827,7.827,0,0,0,2.775-1.3Zm-10.3-18.55a4.271,4.271,0,0,0-1.775.35,3.16,3.16,0,0,0-1.35,1.275,8.113,8.113,0,0,0-.925,2.5,26.4,26.4,0,0,0-.5,3.975h8.05a14.008,14.008,0,0,0-.45-6A3.006,3.006,0,0,0,62.425,28.25ZM90.625,51h-13.8V49.05a16.441,16.441,0,0,1,3.3-1.2V17.55l-3.8-.4V15.2a11.226,11.226,0,0,1,1.8-.6q1.15-.3,2.475-.525t2.65-.4q1.325-.175,2.375-.275h1.7V47.85a16.441,16.441,0,0,1,3.3,1.2Zm16.6,0h-13.8V49.05a16.441,16.441,0,0,1,3.3-1.2V17.55l-3.8-.4V15.2a11.226,11.226,0,0,1,1.8-.6q1.15-.3,2.475-.525t2.65-.4q1.325-.175,2.375-.275h1.7V47.85a16.441,16.441,0,0,1,3.3,1.2Z" transform="translate(6259.296 8675.5)"/>
    <path id="Path_850" data-name="Path 850" d="M19.04,23.636h2.837a6.478,6.478,0,0,0,4.136-1.06,3.844,3.844,0,0,0,1.282-3.145A3.384,3.384,0,0,0,25.91,16.39a7.59,7.59,0,0,0-4.17-.923h-2.7Zm0,3.384V37H14.955V12.015h7.058q4.836,0,7.161,1.812A6.5,6.5,0,0,1,31.5,19.295q0,4.666-4.854,6.648L33.7,37H29.054l-5.981-9.98ZM45.153,37.342a9.143,9.143,0,0,1-6.9-2.572,9.764,9.764,0,0,1-2.487-7.084,10.712,10.712,0,0,1,2.307-7.28,7.969,7.969,0,0,1,6.34-2.649,7.789,7.789,0,0,1,5.913,2.273,8.685,8.685,0,0,1,2.17,6.255v2.17h-12.6a6.208,6.208,0,0,0,1.487,4.23,5.179,5.179,0,0,0,3.948,1.478,14.573,14.573,0,0,0,3.119-.316,16.348,16.348,0,0,0,3.1-1.051V36.06a12.331,12.331,0,0,1-2.974.991A18.234,18.234,0,0,1,45.153,37.342ZM44.418,20.8a4.035,4.035,0,0,0-3.068,1.213,5.783,5.783,0,0,0-1.376,3.538h8.579A5.232,5.232,0,0,0,47.426,22,3.858,3.858,0,0,0,44.418,20.8ZM64.687,37.342q-4.29,0-6.52-2.5t-2.23-7.186q0-4.768,2.333-7.332t6.742-2.563a12.635,12.635,0,0,1,5.383,1.111L69.181,22.1a12.163,12.163,0,0,0-4.2-.991q-4.9,0-4.9,6.511a7.8,7.8,0,0,0,1.222,4.777,4.23,4.23,0,0,0,3.58,1.6,10.272,10.272,0,0,0,5.076-1.333v3.5a7.931,7.931,0,0,1-2.3.906A13.793,13.793,0,0,1,64.687,37.342Zm17.961,0a9.143,9.143,0,0,1-6.9-2.572,9.764,9.764,0,0,1-2.487-7.084,10.712,10.712,0,0,1,2.307-7.28,7.969,7.969,0,0,1,6.34-2.649,7.789,7.789,0,0,1,5.913,2.273A8.685,8.685,0,0,1,90,26.285v2.17H77.4a6.208,6.208,0,0,0,1.487,4.23,5.179,5.179,0,0,0,3.948,1.478,14.573,14.573,0,0,0,3.119-.316,16.348,16.348,0,0,0,3.1-1.051V36.06a12.331,12.331,0,0,1-2.974.991A18.234,18.234,0,0,1,82.648,37.342ZM81.913,20.8a4.035,4.035,0,0,0-3.068,1.213A5.783,5.783,0,0,0,77.47,25.55h8.579A5.232,5.232,0,0,0,84.921,22,3.858,3.858,0,0,0,81.913,20.8ZM98.576,37H94.56V18.1h4.016ZM94.32,13.091a2.224,2.224,0,0,1,.59-1.658,2.3,2.3,0,0,1,1.683-.581,2.249,2.249,0,0,1,1.649.581,2.224,2.224,0,0,1,.59,1.658,2.182,2.182,0,0,1-.59,1.615,2.229,2.229,0,0,1-1.649.59,2.278,2.278,0,0,1-1.683-.59A2.182,2.182,0,0,1,94.32,13.091ZM108.625,37l-7.178-18.9h4.238l3.845,10.989a21.775,21.775,0,0,1,1.2,4.478h.137a30.066,30.066,0,0,1,1.2-4.478L115.9,18.1h4.272L112.965,37Zm22.678.342a9.143,9.143,0,0,1-6.9-2.572,9.764,9.764,0,0,1-2.487-7.084,10.712,10.712,0,0,1,2.307-7.28,7.969,7.969,0,0,1,6.34-2.649,7.789,7.789,0,0,1,5.913,2.273,8.685,8.685,0,0,1,2.17,6.255v2.17h-12.6a6.208,6.208,0,0,0,1.487,4.23,5.179,5.179,0,0,0,3.948,1.478,14.573,14.573,0,0,0,3.119-.316,16.349,16.349,0,0,0,3.1-1.051V36.06a12.331,12.331,0,0,1-2.974.991A18.234,18.234,0,0,1,131.3,37.342ZM130.568,20.8a4.035,4.035,0,0,0-3.068,1.213,5.783,5.783,0,0,0-1.376,3.538H134.7A5.232,5.232,0,0,0,133.576,22,3.858,3.858,0,0,0,130.568,20.8ZM16.861,84,9.615,63.133H9.478q.291,4.648.291,8.716V84H6.06V59.015h5.759L18.758,78.89h.1L26,59.015H31.78V84H27.849V71.644q0-1.863.094-4.854t.162-3.623h-.137L20.467,84Zm29.326.342a9.143,9.143,0,0,1-6.9-2.572A9.764,9.764,0,0,1,36.8,74.686a10.712,10.712,0,0,1,2.307-7.28,7.969,7.969,0,0,1,6.34-2.649,7.789,7.789,0,0,1,5.913,2.273,8.685,8.685,0,0,1,2.17,6.255v2.17H40.94a6.208,6.208,0,0,0,1.487,4.23,5.179,5.179,0,0,0,3.948,1.478,14.573,14.573,0,0,0,3.119-.316A16.349,16.349,0,0,0,52.6,79.8V83.06a12.331,12.331,0,0,1-2.974.991A18.234,18.234,0,0,1,46.187,84.342ZM45.452,67.8a4.035,4.035,0,0,0-3.068,1.213,5.783,5.783,0,0,0-1.376,3.538h8.579A5.232,5.232,0,0,0,48.46,69,3.858,3.858,0,0,0,45.452,67.8ZM70.8,78.617a4.946,4.946,0,0,1-2.017,4.247A9.656,9.656,0,0,1,63,84.342,13.645,13.645,0,0,1,56.936,83.2V79.728a14.9,14.9,0,0,0,6.2,1.538q3.708,0,3.708-2.239a1.774,1.774,0,0,0-.41-1.2,4.854,4.854,0,0,0-1.35-.991,23.234,23.234,0,0,0-2.615-1.162,12.1,12.1,0,0,1-4.418-2.529A4.68,4.68,0,0,1,56.9,69.867,4.31,4.31,0,0,1,58.859,66.1a9.286,9.286,0,0,1,5.323-1.342,15.078,15.078,0,0,1,6.306,1.35l-1.3,3.025a14.026,14.026,0,0,0-5.144-1.265q-3.179,0-3.179,1.812a1.823,1.823,0,0,0,.829,1.5,18.228,18.228,0,0,0,3.615,1.692,16.522,16.522,0,0,1,3.4,1.658,4.954,4.954,0,0,1,1.572,1.735A5.02,5.02,0,0,1,70.8,78.617Zm17.039,0a4.946,4.946,0,0,1-2.017,4.247,9.656,9.656,0,0,1-5.776,1.478A13.645,13.645,0,0,1,73.975,83.2V79.728a14.9,14.9,0,0,0,6.2,1.538q3.708,0,3.708-2.239a1.774,1.774,0,0,0-.41-1.2,4.854,4.854,0,0,0-1.35-.991,23.234,23.234,0,0,0-2.615-1.162,12.1,12.1,0,0,1-4.418-2.529,4.68,4.68,0,0,1-1.154-3.281A4.31,4.31,0,0,1,75.9,66.1a9.286,9.286,0,0,1,5.323-1.342,15.078,15.078,0,0,1,6.306,1.35l-1.3,3.025a14.026,14.026,0,0,0-5.144-1.265q-3.179,0-3.179,1.812a1.823,1.823,0,0,0,.829,1.5,18.228,18.228,0,0,0,3.615,1.692,16.522,16.522,0,0,1,3.4,1.658,4.954,4.954,0,0,1,1.572,1.735A5.02,5.02,0,0,1,87.835,78.617ZM104,84l-.8-2.632h-.137a7.743,7.743,0,0,1-2.751,2.35,8.7,8.7,0,0,1-3.555.624,6.016,6.016,0,0,1-4.349-1.5,5.627,5.627,0,0,1-1.564-4.255,5,5,0,0,1,2.17-4.409q2.17-1.487,6.614-1.624l3.264-.1V71.439a3.822,3.822,0,0,0-.846-2.709,3.45,3.45,0,0,0-2.623-.9,9.071,9.071,0,0,0-2.786.427,21.022,21.022,0,0,0-2.563,1.008l-1.3-2.871a13.978,13.978,0,0,1,3.367-1.222,15.493,15.493,0,0,1,3.452-.419,8.176,8.176,0,0,1,5.443,1.572q1.837,1.572,1.837,4.939V84ZM98.02,81.266a4.975,4.975,0,0,0,3.512-1.222,4.43,4.43,0,0,0,1.324-3.427V74.977l-2.427.1a8.3,8.3,0,0,0-4.127.948,2.882,2.882,0,0,0-1.29,2.589,2.526,2.526,0,0,0,.752,1.957A3.231,3.231,0,0,0,98.02,81.266ZM128.44,65.1v2.2l-3.23.6a5.213,5.213,0,0,1,.735,1.47,5.8,5.8,0,0,1,.291,1.846,5.655,5.655,0,0,1-2.017,4.6,8.439,8.439,0,0,1-5.554,1.675,9.006,9.006,0,0,1-1.641-.137,2.262,2.262,0,0,0-1.3,1.88,1.045,1.045,0,0,0,.607.974,5.247,5.247,0,0,0,2.23.325h3.3a7.334,7.334,0,0,1,4.751,1.333,4.69,4.69,0,0,1,1.624,3.845,5.591,5.591,0,0,1-2.649,4.956q-2.649,1.743-7.656,1.743a10.566,10.566,0,0,1-5.9-1.367,4.419,4.419,0,0,1-2.034-3.9,4.147,4.147,0,0,1,1.1-2.931,5.907,5.907,0,0,1,3.085-1.649,3.018,3.018,0,0,1-1.324-1.1,2.783,2.783,0,0,1-.521-1.6,2.751,2.751,0,0,1,.6-1.794,6.9,6.9,0,0,1,1.777-1.453,5.264,5.264,0,0,1-2.384-2.059,6.057,6.057,0,0,1-.914-3.341,5.99,5.99,0,0,1,1.94-4.768,8.155,8.155,0,0,1,5.529-1.692,13.457,13.457,0,0,1,1.683.111,10.6,10.6,0,0,1,1.324.231ZM113.589,86.939a2.209,2.209,0,0,0,1.171,2,6.434,6.434,0,0,0,3.29.7,9.939,9.939,0,0,0,4.888-.94,2.818,2.818,0,0,0,1.606-2.5,1.872,1.872,0,0,0-.88-1.752,7.068,7.068,0,0,0-3.273-.521h-3.042a4.274,4.274,0,0,0-2.743.812A2.662,2.662,0,0,0,113.589,86.939Zm1.726-15.723a3.8,3.8,0,0,0,.914,2.734,3.458,3.458,0,0,0,2.623.957q3.486,0,3.486-3.726a4.226,4.226,0,0,0-.863-2.845,3.279,3.279,0,0,0-2.623-1,3.381,3.381,0,0,0-2.64.991A4.167,4.167,0,0,0,115.315,71.217ZM140.2,84.342a9.143,9.143,0,0,1-6.9-2.572,9.764,9.764,0,0,1-2.487-7.084,10.712,10.712,0,0,1,2.307-7.28,7.969,7.969,0,0,1,6.34-2.649,7.789,7.789,0,0,1,5.913,2.273,8.685,8.685,0,0,1,2.17,6.255v2.17h-12.6a6.208,6.208,0,0,0,1.487,4.23,5.179,5.179,0,0,0,3.948,1.478,14.573,14.573,0,0,0,3.119-.316,16.349,16.349,0,0,0,3.1-1.051V83.06a12.331,12.331,0,0,1-2.974.991A18.234,18.234,0,0,1,140.2,84.342ZM139.463,67.8a4.035,4.035,0,0,0-3.068,1.213,5.783,5.783,0,0,0-1.376,3.538H143.6A5.232,5.232,0,0,0,142.471,69,3.858,3.858,0,0,0,139.463,67.8Z" transform="translate(6597.654 8810)" fill="#fff"/>
    <g id="arrow_forward-24px" transform="translate(6473.738 8467.442)">
      <path id="Path_836" data-name="Path 836" d="M0,0H53.749V53.749H0Z" transform="translate(11.156)" fill="none"/>
      <path id="Path_837" data-name="Path 837" d="M38.031,4,34.873,7.158l12.5,12.519H-9v4.479H47.37l-12.5,12.519,3.158,3.158L55.947,21.916Z" transform="translate(0 4.958)" fill="#cbc7c7"/>
    </g>
    <g id="arrow_forward-24px-2" data-name="arrow_forward-24px" transform="translate(6473.738 8836.442)">
      <path id="Path_836-2" data-name="Path 836" d="M0,0H53.749V53.749H0Z" transform="translate(11.156)" fill="none"/>
      <path id="Path_837-2" data-name="Path 837" d="M38.031,4,34.873,7.158l12.5,12.519H-9v4.479H47.37l-12.5,12.519,3.158,3.158L55.947,21.916Z" transform="translate(0 4.958)" fill="#cbc7c7"/>
    </g>
    <g id="arrow_forward-24px-3" data-name="arrow_forward-24px" transform="translate(6824.095 8467.442)">
      <path id="Path_836-3" data-name="Path 836" d="M0,0H53.749V53.749H0Z" transform="translate(11.156)" fill="none"/>
      <path id="Path_837-3" data-name="Path 837" d="M38.031,4,34.873,7.158l12.5,12.519H-9v4.479H47.37l-12.5,12.519,3.158,3.158L55.947,21.916Z" transform="translate(0 4.958)" fill="#cbc7c7"/>
    </g>
    <g id="arrow_forward-24px-4" data-name="arrow_forward-24px" transform="translate(6824.095 8836.442)">
      <path id="Path_836-4" data-name="Path 836" d="M0,0H53.749V53.749H0Z" transform="translate(11.156)" fill="none"/>
      <path id="Path_837-4" data-name="Path 837" d="M38.031,4,34.873,7.158l12.5,12.519H-9v4.479H47.37l-12.5,12.519,3.158,3.158L55.947,21.916Z" transform="translate(0 4.958)" fill="#cbc7c7"/>
    </g>
    <g id="arrow_forward-24px-5" data-name="arrow_forward-24px" transform="translate(7168.853 8468)">
      <path id="Path_836-5" data-name="Path 836" d="M0,0H53.749V53.749H0Z" transform="translate(11.156)" fill="none"/>
      <path id="Path_837-5" data-name="Path 837" d="M38.031,4,34.873,7.158l12.5,12.519H-9v4.479H47.37l-12.5,12.519,3.158,3.158L55.947,21.916Z" transform="translate(0 4.958)" fill="#cbc7c7"/>
    </g>
    <g id="arrow_forward-24px-6" data-name="arrow_forward-24px" transform="translate(7168.853 8837)">
      <path id="Path_836-6" data-name="Path 836" d="M0,0H53.749V53.749H0Z" transform="translate(11.156)" fill="none"/>
      <path id="Path_837-6" data-name="Path 837" d="M38.031,4,34.873,7.158l12.5,12.519H-9v4.479H47.37l-12.5,12.519,3.158,3.158L55.947,21.916Z" transform="translate(0 4.958)" fill="#cbc7c7"/>
    </g>
    <path id="Path_847" data-name="Path 847" d="M16.361,37,9.115,16.133H8.978q.291,4.648.291,8.716V37H5.56V12.015h5.759L18.258,31.89h.1L25.5,12.015H31.28V37H27.349V24.644q0-1.863.094-4.854t.162-3.623h-.137L19.967,37Zm29.326.342a9.143,9.143,0,0,1-6.9-2.572A9.764,9.764,0,0,1,36.3,27.686a10.712,10.712,0,0,1,2.307-7.28,7.969,7.969,0,0,1,6.34-2.649,7.789,7.789,0,0,1,5.913,2.273,8.685,8.685,0,0,1,2.17,6.255v2.17H40.44a6.208,6.208,0,0,0,1.487,4.23,5.179,5.179,0,0,0,3.948,1.478,14.573,14.573,0,0,0,3.119-.316A16.348,16.348,0,0,0,52.1,32.8V36.06a12.331,12.331,0,0,1-2.974.991A18.234,18.234,0,0,1,45.687,37.342ZM44.952,20.8a4.035,4.035,0,0,0-3.068,1.213,5.783,5.783,0,0,0-1.376,3.538h8.579A5.232,5.232,0,0,0,47.96,22,3.858,3.858,0,0,0,44.952,20.8ZM70.3,31.617a4.946,4.946,0,0,1-2.017,4.247A9.656,9.656,0,0,1,62.5,37.342,13.644,13.644,0,0,1,56.436,36.2V32.728a14.9,14.9,0,0,0,6.2,1.538q3.708,0,3.708-2.239a1.774,1.774,0,0,0-.41-1.2,4.854,4.854,0,0,0-1.35-.991,23.234,23.234,0,0,0-2.615-1.162,12.1,12.1,0,0,1-4.418-2.529A4.68,4.68,0,0,1,56.4,22.867,4.31,4.31,0,0,1,58.359,19.1a9.286,9.286,0,0,1,5.323-1.342,15.078,15.078,0,0,1,6.306,1.35l-1.3,3.025a14.026,14.026,0,0,0-5.144-1.265q-3.179,0-3.179,1.812a1.823,1.823,0,0,0,.829,1.5,18.228,18.228,0,0,0,3.615,1.692,16.522,16.522,0,0,1,3.4,1.658,4.954,4.954,0,0,1,1.572,1.735A5.02,5.02,0,0,1,70.3,31.617Zm17.039,0a4.946,4.946,0,0,1-2.017,4.247,9.656,9.656,0,0,1-5.776,1.478A13.644,13.644,0,0,1,73.475,36.2V32.728a14.9,14.9,0,0,0,6.2,1.538q3.708,0,3.708-2.239a1.774,1.774,0,0,0-.41-1.2,4.854,4.854,0,0,0-1.35-.991,23.233,23.233,0,0,0-2.615-1.162,12.1,12.1,0,0,1-4.418-2.529,4.68,4.68,0,0,1-1.154-3.281A4.31,4.31,0,0,1,75.4,19.1a9.286,9.286,0,0,1,5.323-1.342,15.078,15.078,0,0,1,6.306,1.35l-1.3,3.025a14.026,14.026,0,0,0-5.144-1.265q-3.179,0-3.179,1.812a1.823,1.823,0,0,0,.829,1.5,18.228,18.228,0,0,0,3.615,1.692,16.522,16.522,0,0,1,3.4,1.658,4.954,4.954,0,0,1,1.572,1.735A5.02,5.02,0,0,1,87.335,31.617ZM103.5,37l-.8-2.632h-.137a7.743,7.743,0,0,1-2.751,2.35,8.7,8.7,0,0,1-3.555.624,6.016,6.016,0,0,1-4.349-1.5,5.628,5.628,0,0,1-1.564-4.255,5,5,0,0,1,2.17-4.409q2.17-1.487,6.614-1.624l3.264-.1V24.439a3.822,3.822,0,0,0-.846-2.709,3.45,3.45,0,0,0-2.623-.9,9.071,9.071,0,0,0-2.786.427,21.022,21.022,0,0,0-2.563,1.008l-1.3-2.871a13.978,13.978,0,0,1,3.367-1.222,15.494,15.494,0,0,1,3.452-.419,8.176,8.176,0,0,1,5.443,1.572q1.837,1.572,1.837,4.939V37ZM97.52,34.266a4.975,4.975,0,0,0,3.512-1.222,4.43,4.43,0,0,0,1.324-3.427V27.977l-2.427.1a8.3,8.3,0,0,0-4.127.948,2.882,2.882,0,0,0-1.29,2.589,2.526,2.526,0,0,0,.752,1.957A3.231,3.231,0,0,0,97.52,34.266ZM127.94,18.1v2.2l-3.23.6a5.213,5.213,0,0,1,.735,1.47,5.8,5.8,0,0,1,.291,1.846,5.655,5.655,0,0,1-2.017,4.6,8.439,8.439,0,0,1-5.554,1.675,9.006,9.006,0,0,1-1.641-.137,2.262,2.262,0,0,0-1.3,1.88,1.045,1.045,0,0,0,.607.974,5.247,5.247,0,0,0,2.23.325h3.3a7.334,7.334,0,0,1,4.751,1.333,4.69,4.69,0,0,1,1.624,3.845,5.591,5.591,0,0,1-2.649,4.956q-2.649,1.743-7.656,1.743a10.566,10.566,0,0,1-5.9-1.367,4.419,4.419,0,0,1-2.034-3.9,4.147,4.147,0,0,1,1.1-2.931,5.907,5.907,0,0,1,3.085-1.649,3.018,3.018,0,0,1-1.324-1.1,2.783,2.783,0,0,1-.521-1.6,2.751,2.751,0,0,1,.6-1.794,6.9,6.9,0,0,1,1.777-1.453,5.264,5.264,0,0,1-2.384-2.059,6.057,6.057,0,0,1-.914-3.341,5.99,5.99,0,0,1,1.94-4.768,8.155,8.155,0,0,1,5.529-1.692,13.457,13.457,0,0,1,1.683.111,10.6,10.6,0,0,1,1.324.231ZM113.089,39.939a2.209,2.209,0,0,0,1.171,2,6.434,6.434,0,0,0,3.29.7,9.939,9.939,0,0,0,4.888-.94,2.818,2.818,0,0,0,1.606-2.5,1.872,1.872,0,0,0-.88-1.752,7.068,7.068,0,0,0-3.273-.521h-3.042a4.274,4.274,0,0,0-2.743.812A2.662,2.662,0,0,0,113.089,39.939Zm1.726-15.723a3.8,3.8,0,0,0,.914,2.734,3.458,3.458,0,0,0,2.623.957q3.486,0,3.486-3.726a4.226,4.226,0,0,0-.863-2.845,3.279,3.279,0,0,0-2.623-1,3.381,3.381,0,0,0-2.64.991A4.167,4.167,0,0,0,114.815,24.217ZM139.7,37.342a9.143,9.143,0,0,1-6.9-2.572,9.764,9.764,0,0,1-2.487-7.084,10.712,10.712,0,0,1,2.307-7.28,7.969,7.969,0,0,1,6.34-2.649,7.789,7.789,0,0,1,5.913,2.273,8.685,8.685,0,0,1,2.17,6.255v2.17h-12.6a6.208,6.208,0,0,0,1.487,4.23,5.179,5.179,0,0,0,3.948,1.478A14.573,14.573,0,0,0,143,33.847a16.349,16.349,0,0,0,3.1-1.051V36.06a12.331,12.331,0,0,1-2.974.991A18.234,18.234,0,0,1,139.7,37.342ZM138.963,20.8a4.035,4.035,0,0,0-3.068,1.213,5.783,5.783,0,0,0-1.376,3.538H143.1A5.232,5.232,0,0,0,141.971,22,3.858,3.858,0,0,0,138.963,20.8ZM46.114,77.215a6.288,6.288,0,0,1-2.41,5.229,10.487,10.487,0,0,1-6.648,1.9,15.862,15.862,0,0,1-6.938-1.316V79.164a18.859,18.859,0,0,0,3.632,1.265,15.4,15.4,0,0,0,3.58.461,5.7,5.7,0,0,0,3.58-.923,3.009,3.009,0,0,0,1.154-2.478A3.105,3.105,0,0,0,41,75.113a15.951,15.951,0,0,0-4.375-2.307,11.574,11.574,0,0,1-4.819-3.162,6.69,6.69,0,0,1-1.4-4.272A5.984,5.984,0,0,1,32.63,60.45a9.216,9.216,0,0,1,5.964-1.794,17.524,17.524,0,0,1,7.144,1.572l-1.3,3.333a15.607,15.607,0,0,0-5.947-1.4,4.564,4.564,0,0,0-3.008.863A2.835,2.835,0,0,0,34.459,65.3a3.212,3.212,0,0,0,.41,1.666,4.189,4.189,0,0,0,1.35,1.307A22.837,22.837,0,0,0,39.6,69.9a18.515,18.515,0,0,1,4.033,2.136,6.283,6.283,0,0,1,1.88,2.239A6.734,6.734,0,0,1,46.114,77.215Zm12.664,7.126a9.143,9.143,0,0,1-6.9-2.572A9.764,9.764,0,0,1,49.4,74.686a10.712,10.712,0,0,1,2.307-7.28,7.969,7.969,0,0,1,6.34-2.649,7.789,7.789,0,0,1,5.913,2.273,8.685,8.685,0,0,1,2.17,6.255v2.17h-12.6a6.208,6.208,0,0,0,1.487,4.23,5.179,5.179,0,0,0,3.948,1.478,14.573,14.573,0,0,0,3.119-.316,16.349,16.349,0,0,0,3.1-1.051V83.06a12.331,12.331,0,0,1-2.974.991A18.234,18.234,0,0,1,58.778,84.342ZM58.043,67.8a4.035,4.035,0,0,0-3.068,1.213A5.783,5.783,0,0,0,53.6,72.55h8.579A5.232,5.232,0,0,0,61.051,69,3.858,3.858,0,0,0,58.043,67.8ZM74.705,84H70.689V57.408h4.016Zm9.758,0H80.448V57.408h4.016Zm14,.342a9.143,9.143,0,0,1-6.9-2.572,9.764,9.764,0,0,1-2.487-7.084,10.712,10.712,0,0,1,2.307-7.28,7.969,7.969,0,0,1,6.34-2.649,7.789,7.789,0,0,1,5.913,2.273,8.685,8.685,0,0,1,2.17,6.255v2.17h-12.6a6.208,6.208,0,0,0,1.487,4.23,5.179,5.179,0,0,0,3.948,1.478,14.573,14.573,0,0,0,3.119-.316,16.349,16.349,0,0,0,3.1-1.051V83.06a12.331,12.331,0,0,1-2.974.991A18.234,18.234,0,0,1,98.46,84.342ZM97.725,67.8a4.035,4.035,0,0,0-3.068,1.213,5.783,5.783,0,0,0-1.376,3.538h8.579A5.232,5.232,0,0,0,100.733,69,3.858,3.858,0,0,0,97.725,67.8Zm22.234-3.042a9.668,9.668,0,0,1,2,.171l-.393,3.743a7.59,7.59,0,0,0-1.777-.205,5.143,5.143,0,0,0-3.905,1.572,5.683,5.683,0,0,0-1.5,4.084V84h-4.016V65.1h3.145l.53,3.333h.205a7.489,7.489,0,0,1,2.452-2.683A5.829,5.829,0,0,1,119.959,64.757Z" transform="translate(6943 8446)" fill="#fff"/>
    <path id="Path_848" data-name="Path 848" d="M43.358,24.473q0,6.1-3.051,9.485t-8.639,3.384q-5.657,0-8.69-3.358t-3.033-9.545q0-6.187,3.051-9.5T31.7,11.622q5.571,0,8.613,3.367T43.358,24.473Zm-19.072,0q0,4.614,1.863,7a6.577,6.577,0,0,0,5.52,2.384A6.564,6.564,0,0,0,37.163,31.5q1.854-2.358,1.854-7.024,0-4.6-1.837-6.973A6.5,6.5,0,0,0,31.7,15.125,6.631,6.631,0,0,0,26.157,17.5Q24.286,19.876,24.286,24.473Zm33.6-6.716a9.668,9.668,0,0,1,2,.171l-.393,3.743a7.59,7.59,0,0,0-1.777-.205,5.143,5.143,0,0,0-3.905,1.572,5.683,5.683,0,0,0-1.5,4.084V37H48.3V18.1h3.145l.53,3.333h.205a7.489,7.489,0,0,1,2.452-2.683A5.829,5.829,0,0,1,57.885,17.757Zm21.123.342v2.2l-3.23.6a5.213,5.213,0,0,1,.735,1.47,5.8,5.8,0,0,1,.291,1.846,5.655,5.655,0,0,1-2.017,4.6,8.439,8.439,0,0,1-5.554,1.675,9.006,9.006,0,0,1-1.641-.137,2.262,2.262,0,0,0-1.3,1.88,1.045,1.045,0,0,0,.607.974,5.247,5.247,0,0,0,2.23.325h3.3a7.334,7.334,0,0,1,4.751,1.333A4.69,4.69,0,0,1,78.8,38.709a5.591,5.591,0,0,1-2.649,4.956Q73.5,45.408,68.5,45.408a10.566,10.566,0,0,1-5.9-1.367,4.419,4.419,0,0,1-2.034-3.9,4.147,4.147,0,0,1,1.1-2.931,5.907,5.907,0,0,1,3.085-1.649,3.018,3.018,0,0,1-1.324-1.1,2.783,2.783,0,0,1-.521-1.6,2.751,2.751,0,0,1,.6-1.794,6.9,6.9,0,0,1,1.777-1.453A5.264,5.264,0,0,1,62.9,27.558a6.057,6.057,0,0,1-.914-3.341,5.99,5.99,0,0,1,1.94-4.768,8.155,8.155,0,0,1,5.529-1.692,13.457,13.457,0,0,1,1.683.111,10.6,10.6,0,0,1,1.324.231ZM64.157,39.939a2.209,2.209,0,0,0,1.171,2,6.434,6.434,0,0,0,3.29.7A9.939,9.939,0,0,0,73.5,41.7a2.818,2.818,0,0,0,1.606-2.5,1.872,1.872,0,0,0-.88-1.752,7.068,7.068,0,0,0-3.273-.521H67.917a4.274,4.274,0,0,0-2.743.812A2.662,2.662,0,0,0,64.157,39.939Zm1.726-15.723a3.8,3.8,0,0,0,.914,2.734,3.458,3.458,0,0,0,2.623.957q3.486,0,3.486-3.726a4.226,4.226,0,0,0-.863-2.845,3.279,3.279,0,0,0-2.623-1,3.381,3.381,0,0,0-2.64.991A4.167,4.167,0,0,0,65.883,24.217ZM94.337,37l-.8-2.632H93.4a7.743,7.743,0,0,1-2.751,2.35,8.7,8.7,0,0,1-3.555.624,6.016,6.016,0,0,1-4.349-1.5,5.628,5.628,0,0,1-1.564-4.255,5,5,0,0,1,2.17-4.409q2.17-1.487,6.614-1.624l3.264-.1V24.439a3.822,3.822,0,0,0-.846-2.709,3.45,3.45,0,0,0-2.623-.9,9.071,9.071,0,0,0-2.786.427,21.022,21.022,0,0,0-2.563,1.008l-1.3-2.871a13.978,13.978,0,0,1,3.367-1.222,15.494,15.494,0,0,1,3.452-.419,8.176,8.176,0,0,1,5.443,1.572q1.837,1.572,1.837,4.939V37Zm-5.981-2.734a4.975,4.975,0,0,0,3.512-1.222,4.43,4.43,0,0,0,1.324-3.427V27.977l-2.427.1a8.3,8.3,0,0,0-4.127.948,2.882,2.882,0,0,0-1.29,2.589,2.526,2.526,0,0,0,.752,1.957A3.231,3.231,0,0,0,88.356,34.266ZM119.442,37h-4.033V25.379a5.086,5.086,0,0,0-.88-3.264,3.4,3.4,0,0,0-2.794-1.077,4.443,4.443,0,0,0-3.726,1.5q-1.179,1.5-1.179,5.042V37h-4.016V18.1h3.145l.564,2.478h.205a5.592,5.592,0,0,1,2.427-2.085,8.133,8.133,0,0,1,3.486-.735q6.8,0,6.8,6.921Zm9.6,0h-4.016V18.1h4.016Zm-4.255-23.909a2.224,2.224,0,0,1,.59-1.658,2.3,2.3,0,0,1,1.683-.581,2.249,2.249,0,0,1,1.649.581,2.224,2.224,0,0,1,.59,1.658,2.182,2.182,0,0,1-.59,1.615,2.229,2.229,0,0,1-1.649.59,2.278,2.278,0,0,1-1.683-.59A2.182,2.182,0,0,1,124.792,13.091Zm22.7,18.525a4.946,4.946,0,0,1-2.017,4.247,9.656,9.656,0,0,1-5.776,1.478,13.644,13.644,0,0,1-6.067-1.145V32.728a14.9,14.9,0,0,0,6.2,1.538q3.709,0,3.708-2.239a1.774,1.774,0,0,0-.41-1.2,4.854,4.854,0,0,0-1.35-.991,23.234,23.234,0,0,0-2.615-1.162,12.1,12.1,0,0,1-4.418-2.529,4.68,4.68,0,0,1-1.154-3.281A4.31,4.31,0,0,1,135.55,19.1a9.286,9.286,0,0,1,5.323-1.342,15.078,15.078,0,0,1,6.306,1.35l-1.3,3.025a14.026,14.026,0,0,0-5.144-1.265q-3.179,0-3.179,1.812a1.823,1.823,0,0,0,.829,1.5A18.227,18.227,0,0,0,142,25.875a16.522,16.522,0,0,1,3.4,1.658,4.954,4.954,0,0,1,1.572,1.735A5.02,5.02,0,0,1,147.487,31.617Zm12.6,5.725a9.143,9.143,0,0,1-6.9-2.572,9.764,9.764,0,0,1-2.487-7.084,10.712,10.712,0,0,1,2.307-7.28,7.969,7.969,0,0,1,6.34-2.649,7.789,7.789,0,0,1,5.913,2.273,8.685,8.685,0,0,1,2.17,6.255v2.17h-12.6a6.208,6.208,0,0,0,1.487,4.23,5.179,5.179,0,0,0,3.948,1.478,14.573,14.573,0,0,0,3.119-.316,16.349,16.349,0,0,0,3.1-1.051V36.06a12.331,12.331,0,0,1-2.974.991A18.234,18.234,0,0,1,160.082,37.342ZM159.347,20.8a4.035,4.035,0,0,0-3.068,1.213A5.783,5.783,0,0,0,154.9,25.55h8.579A5.232,5.232,0,0,0,162.355,22,3.858,3.858,0,0,0,159.347,20.8ZM19.655,84H5.521V59.015H19.655v3.452H9.606v6.8h9.417v3.418H9.606v7.844H19.655Zm9.177-9.656L22.492,65.1h4.58l4.307,6.614L35.719,65.1h4.546l-6.357,9.246L40.59,84H36.044l-4.666-7.075L26.73,84H22.184Zm21.995,10q-4.29,0-6.52-2.5t-2.23-7.186q0-4.768,2.333-7.332t6.742-2.563a12.635,12.635,0,0,1,5.383,1.111L55.321,69.1a12.163,12.163,0,0,0-4.2-.991q-4.9,0-4.9,6.511a7.8,7.8,0,0,0,1.222,4.777,4.23,4.23,0,0,0,3.58,1.6,10.272,10.272,0,0,0,5.076-1.333v3.5a7.931,7.931,0,0,1-2.3.906A13.793,13.793,0,0,1,50.827,84.342ZM77.162,84H73.129V72.379a5.086,5.086,0,0,0-.88-3.264,3.4,3.4,0,0,0-2.794-1.077,4.435,4.435,0,0,0-3.717,1.512q-1.188,1.512-1.188,5.067V84H60.534V57.408H64.55v6.75a31.5,31.5,0,0,1-.205,3.469H64.6a5.577,5.577,0,0,1,2.281-2.119,7.353,7.353,0,0,1,3.409-.752q6.87,0,6.87,6.921Zm17.415,0-.8-2.632h-.137a7.743,7.743,0,0,1-2.751,2.35,8.7,8.7,0,0,1-3.555.624,6.016,6.016,0,0,1-4.349-1.5,5.627,5.627,0,0,1-1.564-4.255,5,5,0,0,1,2.17-4.409q2.17-1.487,6.614-1.624l3.264-.1V71.439a3.822,3.822,0,0,0-.846-2.709,3.45,3.45,0,0,0-2.623-.9,9.071,9.071,0,0,0-2.786.427,21.022,21.022,0,0,0-2.563,1.008l-1.3-2.871a13.978,13.978,0,0,1,3.367-1.222,15.493,15.493,0,0,1,3.452-.419,8.176,8.176,0,0,1,5.443,1.572q1.837,1.572,1.837,4.939V84ZM88.6,81.266a4.975,4.975,0,0,0,3.512-1.222,4.43,4.43,0,0,0,1.324-3.427V74.977l-2.427.1a8.3,8.3,0,0,0-4.127.948,2.882,2.882,0,0,0-1.29,2.589,2.526,2.526,0,0,0,.752,1.957A3.231,3.231,0,0,0,88.6,81.266ZM119.682,84h-4.033V72.379a5.086,5.086,0,0,0-.88-3.264,3.4,3.4,0,0,0-2.794-1.077,4.443,4.443,0,0,0-3.726,1.5q-1.179,1.5-1.179,5.042V84h-4.016V65.1H106.2l.564,2.478h.205a5.592,5.592,0,0,1,2.427-2.085,8.133,8.133,0,0,1,3.486-.735q6.8,0,6.8,6.921Zm21.55-18.9v2.2l-3.23.6a5.213,5.213,0,0,1,.735,1.47,5.8,5.8,0,0,1,.291,1.846,5.655,5.655,0,0,1-2.017,4.6,8.439,8.439,0,0,1-5.554,1.675,9.006,9.006,0,0,1-1.641-.137,2.262,2.262,0,0,0-1.3,1.88,1.045,1.045,0,0,0,.607.974,5.247,5.247,0,0,0,2.23.325h3.3a7.334,7.334,0,0,1,4.751,1.333,4.69,4.69,0,0,1,1.624,3.845,5.591,5.591,0,0,1-2.649,4.956q-2.649,1.743-7.656,1.743a10.566,10.566,0,0,1-5.9-1.367,4.419,4.419,0,0,1-2.034-3.9,4.147,4.147,0,0,1,1.1-2.931,5.907,5.907,0,0,1,3.085-1.649,3.018,3.018,0,0,1-1.324-1.1,2.783,2.783,0,0,1-.521-1.6,2.751,2.751,0,0,1,.6-1.794,6.9,6.9,0,0,1,1.777-1.453,5.264,5.264,0,0,1-2.384-2.059,6.057,6.057,0,0,1-.914-3.341,5.99,5.99,0,0,1,1.94-4.768,8.155,8.155,0,0,1,5.529-1.692,13.457,13.457,0,0,1,1.683.111,10.6,10.6,0,0,1,1.324.231ZM126.381,86.939a2.209,2.209,0,0,0,1.171,2,6.434,6.434,0,0,0,3.29.7,9.939,9.939,0,0,0,4.888-.94,2.818,2.818,0,0,0,1.606-2.5,1.872,1.872,0,0,0-.88-1.752,7.068,7.068,0,0,0-3.273-.521h-3.042a4.274,4.274,0,0,0-2.743.812A2.662,2.662,0,0,0,126.381,86.939Zm1.726-15.723a3.8,3.8,0,0,0,.914,2.734,3.458,3.458,0,0,0,2.623.957q3.486,0,3.486-3.726a4.226,4.226,0,0,0-.863-2.845,3.279,3.279,0,0,0-2.623-1,3.381,3.381,0,0,0-2.64.991A4.167,4.167,0,0,0,128.107,71.217ZM152.99,84.342a9.143,9.143,0,0,1-6.9-2.572,9.764,9.764,0,0,1-2.487-7.084,10.712,10.712,0,0,1,2.307-7.28,7.969,7.969,0,0,1,6.34-2.649,7.789,7.789,0,0,1,5.913,2.273,8.685,8.685,0,0,1,2.17,6.255v2.17h-12.6a6.208,6.208,0,0,0,1.487,4.23,5.179,5.179,0,0,0,3.948,1.478,14.573,14.573,0,0,0,3.119-.316,16.349,16.349,0,0,0,3.1-1.051V83.06a12.331,12.331,0,0,1-2.974.991A18.234,18.234,0,0,1,152.99,84.342ZM152.255,67.8a4.035,4.035,0,0,0-3.068,1.213,5.783,5.783,0,0,0-1.376,3.538h8.579A5.232,5.232,0,0,0,155.263,69,3.858,3.858,0,0,0,152.255,67.8Zm32.231-8.784L175.189,84H171.4l9.314-24.985ZM76.47,124.215a6.288,6.288,0,0,1-2.41,5.229,10.487,10.487,0,0,1-6.648,1.9,15.862,15.862,0,0,1-6.938-1.316v-3.862a18.859,18.859,0,0,0,3.632,1.265,15.4,15.4,0,0,0,3.58.461,5.7,5.7,0,0,0,3.58-.923,3.009,3.009,0,0,0,1.154-2.478,3.105,3.105,0,0,0-1.06-2.375,15.951,15.951,0,0,0-4.375-2.307,11.574,11.574,0,0,1-4.819-3.162,6.69,6.69,0,0,1-1.4-4.272,5.984,5.984,0,0,1,2.222-4.922,9.216,9.216,0,0,1,5.964-1.794,17.524,17.524,0,0,1,7.144,1.572l-1.3,3.333a15.607,15.607,0,0,0-5.947-1.4,4.564,4.564,0,0,0-3.008.863,2.835,2.835,0,0,0-1.025,2.281,3.212,3.212,0,0,0,.41,1.666,4.189,4.189,0,0,0,1.35,1.307,22.837,22.837,0,0,0,3.384,1.624,18.515,18.515,0,0,1,4.033,2.136,6.283,6.283,0,0,1,1.88,2.239A6.734,6.734,0,0,1,76.47,124.215ZM92.705,131l-.8-2.632h-.137a7.743,7.743,0,0,1-2.751,2.35,8.7,8.7,0,0,1-3.555.624,6.016,6.016,0,0,1-4.349-1.5,5.628,5.628,0,0,1-1.564-4.255,5,5,0,0,1,2.17-4.409q2.17-1.487,6.614-1.624l3.264-.1v-1.008a3.822,3.822,0,0,0-.846-2.709,3.45,3.45,0,0,0-2.623-.9,9.071,9.071,0,0,0-2.786.427,21.022,21.022,0,0,0-2.563,1.008l-1.3-2.871a13.978,13.978,0,0,1,3.367-1.222,15.493,15.493,0,0,1,3.452-.419,8.176,8.176,0,0,1,5.443,1.572q1.837,1.572,1.837,4.939V131Zm-5.981-2.734a4.975,4.975,0,0,0,3.512-1.222,4.43,4.43,0,0,0,1.324-3.427v-1.641l-2.427.1a8.3,8.3,0,0,0-4.127.948,2.882,2.882,0,0,0-1.29,2.589,2.526,2.526,0,0,0,.752,1.957A3.231,3.231,0,0,0,86.724,128.266ZM105.2,131h-4.016V104.408H105.2Zm14,.342a9.143,9.143,0,0,1-6.9-2.572,9.764,9.764,0,0,1-2.487-7.084,10.712,10.712,0,0,1,2.307-7.28,7.969,7.969,0,0,1,6.34-2.649,7.789,7.789,0,0,1,5.913,2.273,8.685,8.685,0,0,1,2.17,6.255v2.17h-12.6a6.208,6.208,0,0,0,1.487,4.23,5.179,5.179,0,0,0,3.948,1.478,14.574,14.574,0,0,0,3.119-.316,16.349,16.349,0,0,0,3.1-1.051v3.264a12.331,12.331,0,0,1-2.974.991A18.235,18.235,0,0,1,119.195,131.342ZM118.46,114.8a4.035,4.035,0,0,0-3.068,1.213,5.783,5.783,0,0,0-1.376,3.538H122.6A5.232,5.232,0,0,0,121.468,116,3.858,3.858,0,0,0,118.46,114.8Z" transform="translate(6928.412 8793.875)" fill="#fff"/>
    <path id="Path_851" data-name="Path 851" d="M31.028,37H16.895V12.015H31.028v3.452H20.979v6.8H30.4v3.418H20.979v7.844H31.028Zm9.177-9.656L33.865,18.1h4.58l4.307,6.614L47.093,18.1h4.546l-6.357,9.246L51.963,37H47.417l-4.666-7.075L38.1,37H33.557Zm21.995,10q-4.29,0-6.52-2.5t-2.23-7.186q0-4.768,2.333-7.332t6.742-2.563a12.635,12.635,0,0,1,5.383,1.111L66.695,22.1a12.163,12.163,0,0,0-4.2-.991q-4.9,0-4.9,6.511a7.8,7.8,0,0,0,1.222,4.777,4.23,4.23,0,0,0,3.58,1.6,10.272,10.272,0,0,0,5.076-1.333v3.5a7.931,7.931,0,0,1-2.3.906A13.793,13.793,0,0,1,62.2,37.342ZM88.535,37H84.5V25.379a5.086,5.086,0,0,0-.88-3.264,3.4,3.4,0,0,0-2.794-1.077,4.435,4.435,0,0,0-3.717,1.512q-1.188,1.512-1.188,5.067V37H71.907V10.408h4.016v6.75a31.5,31.5,0,0,1-.205,3.469h.256a5.577,5.577,0,0,1,2.281-2.119,7.353,7.353,0,0,1,3.409-.752q6.87,0,6.87,6.921Zm17.415,0-.8-2.632h-.137a7.743,7.743,0,0,1-2.751,2.35,8.7,8.7,0,0,1-3.555.624,6.016,6.016,0,0,1-4.349-1.5,5.628,5.628,0,0,1-1.564-4.255,5,5,0,0,1,2.17-4.409q2.17-1.487,6.614-1.624l3.264-.1V24.439a3.822,3.822,0,0,0-.846-2.709,3.45,3.45,0,0,0-2.623-.9,9.071,9.071,0,0,0-2.786.427,21.022,21.022,0,0,0-2.563,1.008l-1.3-2.871a13.978,13.978,0,0,1,3.367-1.222,15.494,15.494,0,0,1,3.452-.419,8.176,8.176,0,0,1,5.443,1.572q1.837,1.572,1.837,4.939V37Zm-5.981-2.734a4.975,4.975,0,0,0,3.512-1.222,4.43,4.43,0,0,0,1.324-3.427V27.977l-2.427.1a8.3,8.3,0,0,0-4.127.948,2.882,2.882,0,0,0-1.29,2.589,2.526,2.526,0,0,0,.752,1.957A3.231,3.231,0,0,0,99.969,34.266ZM131.055,37h-4.033V25.379a5.086,5.086,0,0,0-.88-3.264,3.4,3.4,0,0,0-2.794-1.077,4.443,4.443,0,0,0-3.726,1.5q-1.179,1.5-1.179,5.042V37h-4.016V18.1h3.145l.564,2.478h.205a5.592,5.592,0,0,1,2.427-2.085,8.133,8.133,0,0,1,3.486-.735q6.8,0,6.8,6.921Zm21.55-18.9v2.2l-3.23.6a5.213,5.213,0,0,1,.735,1.47,5.8,5.8,0,0,1,.291,1.846,5.655,5.655,0,0,1-2.017,4.6,8.439,8.439,0,0,1-5.554,1.675,9.006,9.006,0,0,1-1.641-.137,2.262,2.262,0,0,0-1.3,1.88,1.045,1.045,0,0,0,.607.974,5.247,5.247,0,0,0,2.23.325h3.3a7.334,7.334,0,0,1,4.751,1.333,4.69,4.69,0,0,1,1.624,3.845,5.591,5.591,0,0,1-2.649,4.956q-2.649,1.743-7.656,1.743a10.566,10.566,0,0,1-5.9-1.367,4.419,4.419,0,0,1-2.034-3.9,4.147,4.147,0,0,1,1.1-2.931,5.907,5.907,0,0,1,3.085-1.649,3.018,3.018,0,0,1-1.324-1.1,2.783,2.783,0,0,1-.521-1.6,2.751,2.751,0,0,1,.6-1.794,6.9,6.9,0,0,1,1.777-1.453,5.264,5.264,0,0,1-2.384-2.059,6.057,6.057,0,0,1-.914-3.341,5.99,5.99,0,0,1,1.94-4.768,8.155,8.155,0,0,1,5.529-1.692,13.457,13.457,0,0,1,1.683.111,10.6,10.6,0,0,1,1.324.231ZM137.754,39.939a2.209,2.209,0,0,0,1.171,2,6.434,6.434,0,0,0,3.29.7,9.939,9.939,0,0,0,4.888-.94,2.818,2.818,0,0,0,1.606-2.5,1.872,1.872,0,0,0-.88-1.752,7.068,7.068,0,0,0-3.273-.521h-3.042a4.274,4.274,0,0,0-2.743.812A2.662,2.662,0,0,0,137.754,39.939Zm1.726-15.723a3.8,3.8,0,0,0,.914,2.734,3.458,3.458,0,0,0,2.623.957q3.486,0,3.486-3.726a4.226,4.226,0,0,0-.863-2.845,3.279,3.279,0,0,0-2.623-1,3.381,3.381,0,0,0-2.64.991A4.167,4.167,0,0,0,139.48,24.217Zm24.883,13.125a9.143,9.143,0,0,1-6.9-2.572,9.764,9.764,0,0,1-2.487-7.084,10.712,10.712,0,0,1,2.307-7.28,7.969,7.969,0,0,1,6.34-2.649,7.789,7.789,0,0,1,5.913,2.273,8.685,8.685,0,0,1,2.17,6.255v2.17h-12.6a6.208,6.208,0,0,0,1.487,4.23,5.179,5.179,0,0,0,3.948,1.478,14.573,14.573,0,0,0,3.119-.316,16.349,16.349,0,0,0,3.1-1.051V36.06a12.331,12.331,0,0,1-2.974.991A18.234,18.234,0,0,1,164.363,37.342ZM163.628,20.8a4.035,4.035,0,0,0-3.068,1.213,5.783,5.783,0,0,0-1.376,3.538h8.579A5.232,5.232,0,0,0,166.636,22,3.858,3.858,0,0,0,163.628,20.8Zm-119.7,45.77a7.285,7.285,0,0,1-2.563,6q-2.563,2.085-7.3,2.085h-2.6V84H27.388V59.015h7.195q4.683,0,7.015,1.914A6.871,6.871,0,0,1,43.931,66.568ZM31.472,71.217h2.17a7.777,7.777,0,0,0,4.614-1.094,3.981,3.981,0,0,0,1.47-3.418,3.878,3.878,0,0,0-1.316-3.213,6.5,6.5,0,0,0-4.1-1.06H31.472Zm26.609-6.46a9.668,9.668,0,0,1,2,.171l-.393,3.743a7.59,7.59,0,0,0-1.777-.205,5.143,5.143,0,0,0-3.905,1.572,5.683,5.683,0,0,0-1.5,4.084V84H48.494V65.1h3.145l.53,3.333h.205a7.489,7.489,0,0,1,2.452-2.683A5.829,5.829,0,0,1,58.081,64.757Zm21.567,9.758a10.316,10.316,0,0,1-2.375,7.229,8.511,8.511,0,0,1-6.614,2.6,9.062,9.062,0,0,1-4.683-1.2,7.9,7.9,0,0,1-3.127-3.435,11.7,11.7,0,0,1-1.094-5.2,10.247,10.247,0,0,1,2.358-7.178,8.551,8.551,0,0,1,6.648-2.581,8.327,8.327,0,0,1,6.494,2.64A10.2,10.2,0,0,1,79.649,74.515Zm-13.757,0q0,6.545,4.836,6.545,4.785,0,4.785-6.545,0-6.477-4.819-6.477a4.109,4.109,0,0,0-3.666,1.675A8.523,8.523,0,0,0,65.891,74.515Zm24.746,9.827a6.583,6.583,0,0,1-5.52-2.563q-1.982-2.563-1.982-7.195,0-4.648,2.008-7.238a6.646,6.646,0,0,1,5.563-2.589,6.516,6.516,0,0,1,5.674,2.751h.205a24.074,24.074,0,0,1-.291-3.213V57.408h4.033V84H97.183l-.7-2.478h-.188A6.421,6.421,0,0,1,90.637,84.342Zm1.077-3.247A4.371,4.371,0,0,0,95.32,79.7a7.333,7.333,0,0,0,1.162-4.52v-.564q0-3.572-1.162-5.076a4.311,4.311,0,0,0-3.64-1.5,3.693,3.693,0,0,0-3.264,1.718,8.8,8.8,0,0,0-1.145,4.9,8.582,8.582,0,0,0,1.111,4.794A3.75,3.75,0,0,0,91.714,81.095ZM119.4,84l-.564-2.478h-.205a5.7,5.7,0,0,1-2.384,2.068,7.971,7.971,0,0,1-3.529.752,6.928,6.928,0,0,1-5.127-1.709,7.085,7.085,0,0,1-1.692-5.178V65.1h4.05V76.754a5.056,5.056,0,0,0,.889,3.256,3.393,3.393,0,0,0,2.786,1.085,4.435,4.435,0,0,0,3.717-1.512q1.188-1.512,1.188-5.067V65.1h4.033V84Zm16.509.342q-4.29,0-6.52-2.5t-2.23-7.186q0-4.768,2.333-7.332t6.742-2.563a12.635,12.635,0,0,1,5.383,1.111L140.4,69.1a12.163,12.163,0,0,0-4.2-.991q-4.9,0-4.9,6.511a7.8,7.8,0,0,0,1.222,4.777,4.23,4.23,0,0,0,3.58,1.6,10.272,10.272,0,0,0,5.076-1.333v3.5a7.931,7.931,0,0,1-2.3.906A13.793,13.793,0,0,1,135.908,84.342Zm17.961,0a9.143,9.143,0,0,1-6.9-2.572,9.764,9.764,0,0,1-2.487-7.084,10.712,10.712,0,0,1,2.307-7.28,7.969,7.969,0,0,1,6.34-2.649,7.789,7.789,0,0,1,5.913,2.273,8.685,8.685,0,0,1,2.17,6.255v2.17h-12.6a6.208,6.208,0,0,0,1.487,4.23,5.179,5.179,0,0,0,3.948,1.478,14.573,14.573,0,0,0,3.119-.316,16.349,16.349,0,0,0,3.1-1.051V83.06a12.331,12.331,0,0,1-2.974.991A18.234,18.234,0,0,1,153.87,84.342ZM153.135,67.8a4.035,4.035,0,0,0-3.068,1.213,5.783,5.783,0,0,0-1.376,3.538h8.579A5.232,5.232,0,0,0,156.143,69,3.858,3.858,0,0,0,153.135,67.8Z" transform="translate(7270.169 8810)" fill="#fff"/>
    <path id="Path_852" data-name="Path 852" d="M46.755,12.015h7.417q5.161,0,7.46,1.5a5.266,5.266,0,0,1,2.3,4.751A5.757,5.757,0,0,1,62.8,21.91a5.043,5.043,0,0,1-3.247,1.829v.171a6.447,6.447,0,0,1,3.871,1.957,5.919,5.919,0,0,1,1.239,3.956,6.414,6.414,0,0,1-2.35,5.272A10.108,10.108,0,0,1,55.778,37H46.755Zm4.084,10.322H54.77a6.73,6.73,0,0,0,3.743-.812,3.109,3.109,0,0,0,1.179-2.76,2.765,2.765,0,0,0-1.273-2.546,7.952,7.952,0,0,0-4.042-.786H50.839Zm0,3.315v7.913H55.18a6.389,6.389,0,0,0,3.871-.983,3.628,3.628,0,0,0,1.307-3.1,3.294,3.294,0,0,0-1.333-2.888,7.064,7.064,0,0,0-4.05-.94ZM82.763,37,82.2,34.522h-.205A5.7,5.7,0,0,1,79.61,36.59a7.971,7.971,0,0,1-3.529.752,6.928,6.928,0,0,1-5.127-1.709,7.085,7.085,0,0,1-1.692-5.178V18.1h4.05V29.754A5.056,5.056,0,0,0,74.2,33.01a3.393,3.393,0,0,0,2.786,1.085A4.435,4.435,0,0,0,80.7,32.582q1.188-1.512,1.188-5.067V18.1h4.033V37Zm6.016-18.9h4.375L97,28.814a20.332,20.332,0,0,1,1.162,4.307H98.3a17.963,17.963,0,0,1,.564-2.281q.41-1.342,4.341-12.74h4.341L99.46,39.512q-2.2,5.9-7.349,5.9a11.565,11.565,0,0,1-2.6-.291V41.939a9.412,9.412,0,0,0,2.068.205q2.905,0,4.084-3.367l.7-1.777Z" transform="translate(7288.169 8468)" fill="#fff"/>
    <g id="SS_logo-9" data-name="SS_logo" transform="translate(5835.296 8553.992)">
      <path id="Path_1-9" data-name="Path 1" d="M64.795,85.569C38.238,116.16,31.855,163.427,51.131,199.11c13.144,24.315,36.436,42.013,61.917,52.682,46.37,19.384,104,15.3,142-17.626,10.759-9.342,19.9-21.016,24.154-34.607,3.891-12.552,3.479-25.875,2.241-38.875-2.9-30.483-10.759-61.684-30.2-85.353C209.841,24.89,104.889,39.253,64.795,85.569Z" transform="translate(-39.96 -43.58)" fill="#2c4441"/>
    </g>
    <path id="Path_842" data-name="Path 842" d="M47.857,37h-4.1V25.738H32.237V37H28.153V12.015h4.084v10.22H43.756V12.015h4.1Zm22.917-9.485A10.316,10.316,0,0,1,68.4,34.744a8.511,8.511,0,0,1-6.614,2.6,9.062,9.062,0,0,1-4.683-1.2,7.9,7.9,0,0,1-3.127-3.435,11.7,11.7,0,0,1-1.094-5.2,10.247,10.247,0,0,1,2.358-7.178,8.551,8.551,0,0,1,6.648-2.581,8.327,8.327,0,0,1,6.494,2.64A10.2,10.2,0,0,1,70.775,27.515Zm-13.757,0q0,6.545,4.836,6.545,4.785,0,4.785-6.545,0-6.477-4.819-6.477a4.109,4.109,0,0,0-3.666,1.675A8.523,8.523,0,0,0,57.017,27.515ZM91.317,37H87.283V25.345a5.285,5.285,0,0,0-.82-3.239A3.027,3.027,0,0,0,83.9,21.038a3.91,3.91,0,0,0-3.409,1.512q-1.085,1.512-1.085,5.033V37H75.389V18.1h3.145l.564,2.478H79.3a5.236,5.236,0,0,1,2.281-2.085,7.357,7.357,0,0,1,3.29-.735q4.358,0,5.776,2.974h.273a5.762,5.762,0,0,1,2.358-2.187,7.485,7.485,0,0,1,3.486-.786q3.384,0,4.93,1.709a7.569,7.569,0,0,1,1.547,5.212V37H99.229V25.345a5.244,5.244,0,0,0-.829-3.239,3.052,3.052,0,0,0-2.572-1.068A3.986,3.986,0,0,0,92.4,22.5a7.532,7.532,0,0,0-1.085,4.486Zm25.789.342a9.143,9.143,0,0,1-6.9-2.572,9.764,9.764,0,0,1-2.487-7.084,10.712,10.712,0,0,1,2.307-7.28,7.969,7.969,0,0,1,6.34-2.649,7.789,7.789,0,0,1,5.913,2.273,8.685,8.685,0,0,1,2.17,6.255v2.17h-12.6a6.208,6.208,0,0,0,1.487,4.23,5.179,5.179,0,0,0,3.948,1.478,14.573,14.573,0,0,0,3.119-.316,16.348,16.348,0,0,0,3.1-1.051V36.06a12.331,12.331,0,0,1-2.974.991A18.234,18.234,0,0,1,117.105,37.342ZM116.37,20.8a4.035,4.035,0,0,0-3.068,1.213,5.783,5.783,0,0,0-1.376,3.538h8.579A5.232,5.232,0,0,0,119.378,22,3.858,3.858,0,0,0,116.37,20.8ZM36.45,77.215a6.288,6.288,0,0,1-2.41,5.229,10.487,10.487,0,0,1-6.648,1.9,15.862,15.862,0,0,1-6.938-1.316V79.164a18.859,18.859,0,0,0,3.632,1.265,15.4,15.4,0,0,0,3.58.461,5.7,5.7,0,0,0,3.58-.923A3.009,3.009,0,0,0,32.4,77.489a3.105,3.105,0,0,0-1.06-2.375,15.951,15.951,0,0,0-4.375-2.307,11.574,11.574,0,0,1-4.819-3.162,6.69,6.69,0,0,1-1.4-4.272,5.984,5.984,0,0,1,2.222-4.922,9.216,9.216,0,0,1,5.964-1.794,17.524,17.524,0,0,1,7.144,1.572l-1.3,3.333a15.607,15.607,0,0,0-5.947-1.4,4.564,4.564,0,0,0-3.008.863A2.835,2.835,0,0,0,24.794,65.3a3.212,3.212,0,0,0,.41,1.666,4.189,4.189,0,0,0,1.35,1.307A22.837,22.837,0,0,0,29.938,69.9a18.515,18.515,0,0,1,4.033,2.136,6.283,6.283,0,0,1,1.88,2.239A6.734,6.734,0,0,1,36.45,77.215Zm12.031,7.126q-4.29,0-6.52-2.5t-2.23-7.186q0-4.768,2.333-7.332t6.742-2.563a12.635,12.635,0,0,1,5.383,1.111L52.976,69.1a12.163,12.163,0,0,0-4.2-.991q-4.9,0-4.9,6.511a7.8,7.8,0,0,0,1.222,4.777,4.23,4.23,0,0,0,3.58,1.6,10.272,10.272,0,0,0,5.076-1.333v3.5a7.931,7.931,0,0,1-2.3.906A13.793,13.793,0,0,1,48.481,84.342ZM67.775,64.757a9.668,9.668,0,0,1,2,.171l-.393,3.743a7.59,7.59,0,0,0-1.777-.205A5.143,5.143,0,0,0,63.7,70.038a5.683,5.683,0,0,0-1.5,4.084V84H58.188V65.1h3.145l.53,3.333h.205a7.489,7.489,0,0,1,2.452-2.683A5.829,5.829,0,0,1,67.775,64.757ZM80.832,84.342a9.143,9.143,0,0,1-6.9-2.572,9.764,9.764,0,0,1-2.487-7.084,10.712,10.712,0,0,1,2.307-7.28,7.969,7.969,0,0,1,6.34-2.649A7.789,7.789,0,0,1,86.01,67.03a8.685,8.685,0,0,1,2.17,6.255v2.17h-12.6a6.208,6.208,0,0,0,1.487,4.23,5.179,5.179,0,0,0,3.948,1.478,14.573,14.573,0,0,0,3.119-.316,16.349,16.349,0,0,0,3.1-1.051V83.06a12.331,12.331,0,0,1-2.974.991A18.234,18.234,0,0,1,80.832,84.342ZM80.1,67.8a4.035,4.035,0,0,0-3.068,1.213,5.783,5.783,0,0,0-1.376,3.538h8.579A5.232,5.232,0,0,0,83.1,69,3.858,3.858,0,0,0,80.1,67.8ZM101,84.342a9.143,9.143,0,0,1-6.9-2.572,9.764,9.764,0,0,1-2.487-7.084,10.712,10.712,0,0,1,2.307-7.28,7.969,7.969,0,0,1,6.34-2.649,7.789,7.789,0,0,1,5.913,2.273,8.685,8.685,0,0,1,2.17,6.255v2.17h-12.6a6.208,6.208,0,0,0,1.487,4.23,5.179,5.179,0,0,0,3.948,1.478,14.573,14.573,0,0,0,3.119-.316,16.349,16.349,0,0,0,3.1-1.051V83.06a12.331,12.331,0,0,1-2.974.991A18.234,18.234,0,0,1,101,84.342ZM100.263,67.8A4.035,4.035,0,0,0,97.2,69.012,5.783,5.783,0,0,0,95.82,72.55H104.4A5.232,5.232,0,0,0,103.271,69,3.858,3.858,0,0,0,100.263,67.8ZM129.538,84H125.5V72.379a5.086,5.086,0,0,0-.88-3.264,3.4,3.4,0,0,0-2.794-1.077,4.443,4.443,0,0,0-3.726,1.5q-1.179,1.5-1.179,5.042V84H112.91V65.1h3.145l.564,2.478h.205a5.592,5.592,0,0,1,2.427-2.085,8.133,8.133,0,0,1,3.486-.735q6.8,0,6.8,6.921Z" transform="translate(5881.296 8611)" fill="#fff"/>
  </g>
</svg>
